<mxfile host="app.diagrams.net" modified="2023-10-17T22:20:42.908Z" agent="Mozilla/5.0 (Windows NT 10.0; Win64; x64) AppleWebKit/537.36 (KHTML, like Gecko) Chrome/118.0.0.0 Safari/537.36" etag="bRsHsSvkilP5v7mvlp-q" version="22.0.4" type="google">
  <diagram name="Page-1" id="2YBvvXClWsGukQMizWep">
    <mxGraphModel grid="1" page="1" gridSize="10" guides="1" tooltips="1" connect="1" arrows="1" fold="1" pageScale="1" pageWidth="850" pageHeight="1400" math="0" shadow="0">
      <root>
        <mxCell id="0" />
        <mxCell id="1" parent="0" />
        <mxCell id="8OrpDrZAfpW0493N6n80-399" value="" style="html=1;points=[];perimeter=orthogonalPerimeter;outlineConnect=0;targetShapes=umlLifeline;portConstraint=eastwest;newEdgeStyle={&quot;edgeStyle&quot;:&quot;elbowEdgeStyle&quot;,&quot;elbow&quot;:&quot;vertical&quot;,&quot;curved&quot;:0,&quot;rounded&quot;:0};" vertex="1" parent="1">
          <mxGeometry x="205" y="1650" width="10" height="80" as="geometry" />
        </mxCell>
        <mxCell id="8OrpDrZAfpW0493N6n80-557" value="" style="html=1;points=[];perimeter=orthogonalPerimeter;outlineConnect=0;targetShapes=umlLifeline;portConstraint=eastwest;newEdgeStyle={&quot;edgeStyle&quot;:&quot;elbowEdgeStyle&quot;,&quot;elbow&quot;:&quot;vertical&quot;,&quot;curved&quot;:0,&quot;rounded&quot;:0};" vertex="1" parent="1">
          <mxGeometry x="205" y="2890" width="10" height="60" as="geometry" />
        </mxCell>
        <mxCell id="aM9ryv3xv72pqoxQDRHE-5" value=":Backend" style="shape=umlLifeline;perimeter=lifelinePerimeter;whiteSpace=wrap;html=1;container=0;dropTarget=0;collapsible=0;recursiveResize=0;outlineConnect=0;portConstraint=eastwest;newEdgeStyle={&quot;edgeStyle&quot;:&quot;elbowEdgeStyle&quot;,&quot;elbow&quot;:&quot;vertical&quot;,&quot;curved&quot;:0,&quot;rounded&quot;:0};" vertex="1" parent="1">
          <mxGeometry x="160" y="40" width="100" height="2960" as="geometry" />
        </mxCell>
        <mxCell id="aM9ryv3xv72pqoxQDRHE-6" value="" style="html=1;points=[];perimeter=orthogonalPerimeter;outlineConnect=0;targetShapes=umlLifeline;portConstraint=eastwest;newEdgeStyle={&quot;edgeStyle&quot;:&quot;elbowEdgeStyle&quot;,&quot;elbow&quot;:&quot;vertical&quot;,&quot;curved&quot;:0,&quot;rounded&quot;:0};" vertex="1" parent="aM9ryv3xv72pqoxQDRHE-5">
          <mxGeometry x="45" y="80" width="10" height="40" as="geometry" />
        </mxCell>
        <mxCell id="8OrpDrZAfpW0493N6n80-11" value="" style="html=1;points=[];perimeter=orthogonalPerimeter;outlineConnect=0;targetShapes=umlLifeline;portConstraint=eastwest;newEdgeStyle={&quot;edgeStyle&quot;:&quot;elbowEdgeStyle&quot;,&quot;elbow&quot;:&quot;vertical&quot;,&quot;curved&quot;:0,&quot;rounded&quot;:0};" vertex="1" parent="aM9ryv3xv72pqoxQDRHE-5">
          <mxGeometry x="50" y="90" width="10" height="20" as="geometry" />
        </mxCell>
        <mxCell id="8OrpDrZAfpW0493N6n80-110" value="" style="html=1;points=[];perimeter=orthogonalPerimeter;outlineConnect=0;targetShapes=umlLifeline;portConstraint=eastwest;newEdgeStyle={&quot;edgeStyle&quot;:&quot;elbowEdgeStyle&quot;,&quot;elbow&quot;:&quot;vertical&quot;,&quot;curved&quot;:0,&quot;rounded&quot;:0};" vertex="1" parent="aM9ryv3xv72pqoxQDRHE-5">
          <mxGeometry x="45" y="170" width="10" height="40" as="geometry" />
        </mxCell>
        <mxCell id="8OrpDrZAfpW0493N6n80-114" value="" style="html=1;points=[];perimeter=orthogonalPerimeter;outlineConnect=0;targetShapes=umlLifeline;portConstraint=eastwest;newEdgeStyle={&quot;edgeStyle&quot;:&quot;elbowEdgeStyle&quot;,&quot;elbow&quot;:&quot;vertical&quot;,&quot;curved&quot;:0,&quot;rounded&quot;:0};" vertex="1" parent="aM9ryv3xv72pqoxQDRHE-5">
          <mxGeometry x="50" y="180" width="10" height="20" as="geometry" />
        </mxCell>
        <mxCell id="8OrpDrZAfpW0493N6n80-143" value="" style="html=1;points=[];perimeter=orthogonalPerimeter;outlineConnect=0;targetShapes=umlLifeline;portConstraint=eastwest;newEdgeStyle={&quot;edgeStyle&quot;:&quot;elbowEdgeStyle&quot;,&quot;elbow&quot;:&quot;vertical&quot;,&quot;curved&quot;:0,&quot;rounded&quot;:0};" vertex="1" parent="aM9ryv3xv72pqoxQDRHE-5">
          <mxGeometry x="45" y="250" width="10" height="50" as="geometry" />
        </mxCell>
        <mxCell id="8OrpDrZAfpW0493N6n80-145" value="" style="html=1;points=[];perimeter=orthogonalPerimeter;outlineConnect=0;targetShapes=umlLifeline;portConstraint=eastwest;newEdgeStyle={&quot;edgeStyle&quot;:&quot;elbowEdgeStyle&quot;,&quot;elbow&quot;:&quot;vertical&quot;,&quot;curved&quot;:0,&quot;rounded&quot;:0};" vertex="1" parent="aM9ryv3xv72pqoxQDRHE-5">
          <mxGeometry x="50" y="260" width="10" height="30" as="geometry" />
        </mxCell>
        <mxCell id="8OrpDrZAfpW0493N6n80-158" value="" style="html=1;points=[];perimeter=orthogonalPerimeter;outlineConnect=0;targetShapes=umlLifeline;portConstraint=eastwest;newEdgeStyle={&quot;edgeStyle&quot;:&quot;elbowEdgeStyle&quot;,&quot;elbow&quot;:&quot;vertical&quot;,&quot;curved&quot;:0,&quot;rounded&quot;:0};" vertex="1" parent="aM9ryv3xv72pqoxQDRHE-5">
          <mxGeometry x="45" y="330" width="10" height="30" as="geometry" />
        </mxCell>
        <mxCell id="8OrpDrZAfpW0493N6n80-191" value="" style="html=1;points=[];perimeter=orthogonalPerimeter;outlineConnect=0;targetShapes=umlLifeline;portConstraint=eastwest;newEdgeStyle={&quot;edgeStyle&quot;:&quot;elbowEdgeStyle&quot;,&quot;elbow&quot;:&quot;vertical&quot;,&quot;curved&quot;:0,&quot;rounded&quot;:0};" vertex="1" parent="aM9ryv3xv72pqoxQDRHE-5">
          <mxGeometry x="45" y="420" width="10" height="60" as="geometry" />
        </mxCell>
        <mxCell id="8OrpDrZAfpW0493N6n80-193" value="" style="html=1;points=[];perimeter=orthogonalPerimeter;outlineConnect=0;targetShapes=umlLifeline;portConstraint=eastwest;newEdgeStyle={&quot;edgeStyle&quot;:&quot;elbowEdgeStyle&quot;,&quot;elbow&quot;:&quot;vertical&quot;,&quot;curved&quot;:0,&quot;rounded&quot;:0};" vertex="1" parent="aM9ryv3xv72pqoxQDRHE-5">
          <mxGeometry x="50" y="430" width="10" height="30" as="geometry" />
        </mxCell>
        <mxCell id="8OrpDrZAfpW0493N6n80-224" value="" style="html=1;points=[];perimeter=orthogonalPerimeter;outlineConnect=0;targetShapes=umlLifeline;portConstraint=eastwest;newEdgeStyle={&quot;edgeStyle&quot;:&quot;elbowEdgeStyle&quot;,&quot;elbow&quot;:&quot;vertical&quot;,&quot;curved&quot;:0,&quot;rounded&quot;:0};" vertex="1" parent="aM9ryv3xv72pqoxQDRHE-5">
          <mxGeometry x="45" y="520" width="10" height="50" as="geometry" />
        </mxCell>
        <mxCell id="8OrpDrZAfpW0493N6n80-225" value="" style="html=1;points=[];perimeter=orthogonalPerimeter;outlineConnect=0;targetShapes=umlLifeline;portConstraint=eastwest;newEdgeStyle={&quot;edgeStyle&quot;:&quot;elbowEdgeStyle&quot;,&quot;elbow&quot;:&quot;vertical&quot;,&quot;curved&quot;:0,&quot;rounded&quot;:0};" vertex="1" parent="aM9ryv3xv72pqoxQDRHE-5">
          <mxGeometry x="50" y="530" width="10" height="30" as="geometry" />
        </mxCell>
        <mxCell id="8OrpDrZAfpW0493N6n80-234" value="" style="html=1;points=[];perimeter=orthogonalPerimeter;outlineConnect=0;targetShapes=umlLifeline;portConstraint=eastwest;newEdgeStyle={&quot;edgeStyle&quot;:&quot;elbowEdgeStyle&quot;,&quot;elbow&quot;:&quot;vertical&quot;,&quot;curved&quot;:0,&quot;rounded&quot;:0};" vertex="1" parent="aM9ryv3xv72pqoxQDRHE-5">
          <mxGeometry x="45" y="610" width="10" height="90" as="geometry" />
        </mxCell>
        <mxCell id="8OrpDrZAfpW0493N6n80-235" value="" style="html=1;points=[];perimeter=orthogonalPerimeter;outlineConnect=0;targetShapes=umlLifeline;portConstraint=eastwest;newEdgeStyle={&quot;edgeStyle&quot;:&quot;elbowEdgeStyle&quot;,&quot;elbow&quot;:&quot;vertical&quot;,&quot;curved&quot;:0,&quot;rounded&quot;:0};" vertex="1" parent="aM9ryv3xv72pqoxQDRHE-5">
          <mxGeometry x="50" y="620" width="10" height="60" as="geometry" />
        </mxCell>
        <mxCell id="8OrpDrZAfpW0493N6n80-250" value="" style="html=1;points=[];perimeter=orthogonalPerimeter;outlineConnect=0;targetShapes=umlLifeline;portConstraint=eastwest;newEdgeStyle={&quot;edgeStyle&quot;:&quot;elbowEdgeStyle&quot;,&quot;elbow&quot;:&quot;vertical&quot;,&quot;curved&quot;:0,&quot;rounded&quot;:0};" vertex="1" parent="aM9ryv3xv72pqoxQDRHE-5">
          <mxGeometry x="45" y="730" width="10" height="110" as="geometry" />
        </mxCell>
        <mxCell id="8OrpDrZAfpW0493N6n80-251" value="" style="html=1;points=[];perimeter=orthogonalPerimeter;outlineConnect=0;targetShapes=umlLifeline;portConstraint=eastwest;newEdgeStyle={&quot;edgeStyle&quot;:&quot;elbowEdgeStyle&quot;,&quot;elbow&quot;:&quot;vertical&quot;,&quot;curved&quot;:0,&quot;rounded&quot;:0};" vertex="1" parent="aM9ryv3xv72pqoxQDRHE-5">
          <mxGeometry x="50" y="740" width="10" height="40" as="geometry" />
        </mxCell>
        <mxCell id="8OrpDrZAfpW0493N6n80-267" value="" style="html=1;points=[];perimeter=orthogonalPerimeter;outlineConnect=0;targetShapes=umlLifeline;portConstraint=eastwest;newEdgeStyle={&quot;edgeStyle&quot;:&quot;elbowEdgeStyle&quot;,&quot;elbow&quot;:&quot;vertical&quot;,&quot;curved&quot;:0,&quot;rounded&quot;:0};" vertex="1" parent="aM9ryv3xv72pqoxQDRHE-5">
          <mxGeometry x="45" y="890" width="10" height="110" as="geometry" />
        </mxCell>
        <mxCell id="8OrpDrZAfpW0493N6n80-268" value="" style="html=1;points=[];perimeter=orthogonalPerimeter;outlineConnect=0;targetShapes=umlLifeline;portConstraint=eastwest;newEdgeStyle={&quot;edgeStyle&quot;:&quot;elbowEdgeStyle&quot;,&quot;elbow&quot;:&quot;vertical&quot;,&quot;curved&quot;:0,&quot;rounded&quot;:0};" vertex="1" parent="aM9ryv3xv72pqoxQDRHE-5">
          <mxGeometry x="50" y="900" width="10" height="40" as="geometry" />
        </mxCell>
        <mxCell id="8OrpDrZAfpW0493N6n80-286" value="" style="html=1;points=[];perimeter=orthogonalPerimeter;outlineConnect=0;targetShapes=umlLifeline;portConstraint=eastwest;newEdgeStyle={&quot;edgeStyle&quot;:&quot;elbowEdgeStyle&quot;,&quot;elbow&quot;:&quot;vertical&quot;,&quot;curved&quot;:0,&quot;rounded&quot;:0};" vertex="1" parent="aM9ryv3xv72pqoxQDRHE-5">
          <mxGeometry x="45" y="1050" width="10" height="50" as="geometry" />
        </mxCell>
        <mxCell id="8OrpDrZAfpW0493N6n80-294" value="" style="html=1;points=[];perimeter=orthogonalPerimeter;outlineConnect=0;targetShapes=umlLifeline;portConstraint=eastwest;newEdgeStyle={&quot;edgeStyle&quot;:&quot;elbowEdgeStyle&quot;,&quot;elbow&quot;:&quot;vertical&quot;,&quot;curved&quot;:0,&quot;rounded&quot;:0};" vertex="1" parent="aM9ryv3xv72pqoxQDRHE-5">
          <mxGeometry x="45" y="1130" width="10" height="70" as="geometry" />
        </mxCell>
        <mxCell id="8OrpDrZAfpW0493N6n80-309" value="" style="html=1;points=[];perimeter=orthogonalPerimeter;outlineConnect=0;targetShapes=umlLifeline;portConstraint=eastwest;newEdgeStyle={&quot;edgeStyle&quot;:&quot;elbowEdgeStyle&quot;,&quot;elbow&quot;:&quot;vertical&quot;,&quot;curved&quot;:0,&quot;rounded&quot;:0};" vertex="1" parent="aM9ryv3xv72pqoxQDRHE-5">
          <mxGeometry x="45" y="1230" width="10" height="50" as="geometry" />
        </mxCell>
        <mxCell id="8OrpDrZAfpW0493N6n80-324" value="" style="html=1;points=[];perimeter=orthogonalPerimeter;outlineConnect=0;targetShapes=umlLifeline;portConstraint=eastwest;newEdgeStyle={&quot;edgeStyle&quot;:&quot;elbowEdgeStyle&quot;,&quot;elbow&quot;:&quot;vertical&quot;,&quot;curved&quot;:0,&quot;rounded&quot;:0};" vertex="1" parent="aM9ryv3xv72pqoxQDRHE-5">
          <mxGeometry x="45" y="1320" width="10" height="50" as="geometry" />
        </mxCell>
        <mxCell id="8OrpDrZAfpW0493N6n80-333" value="" style="html=1;points=[];perimeter=orthogonalPerimeter;outlineConnect=0;targetShapes=umlLifeline;portConstraint=eastwest;newEdgeStyle={&quot;edgeStyle&quot;:&quot;elbowEdgeStyle&quot;,&quot;elbow&quot;:&quot;vertical&quot;,&quot;curved&quot;:0,&quot;rounded&quot;:0};" vertex="1" parent="aM9ryv3xv72pqoxQDRHE-5">
          <mxGeometry x="45" y="1410" width="10" height="50" as="geometry" />
        </mxCell>
        <mxCell id="8OrpDrZAfpW0493N6n80-343" value="" style="html=1;points=[];perimeter=orthogonalPerimeter;outlineConnect=0;targetShapes=umlLifeline;portConstraint=eastwest;newEdgeStyle={&quot;edgeStyle&quot;:&quot;elbowEdgeStyle&quot;,&quot;elbow&quot;:&quot;vertical&quot;,&quot;curved&quot;:0,&quot;rounded&quot;:0};" vertex="1" parent="aM9ryv3xv72pqoxQDRHE-5">
          <mxGeometry x="45" y="1520" width="10" height="50" as="geometry" />
        </mxCell>
        <mxCell id="8OrpDrZAfpW0493N6n80-354" value="" style="html=1;points=[];perimeter=orthogonalPerimeter;outlineConnect=0;targetShapes=umlLifeline;portConstraint=eastwest;newEdgeStyle={&quot;edgeStyle&quot;:&quot;elbowEdgeStyle&quot;,&quot;elbow&quot;:&quot;vertical&quot;,&quot;curved&quot;:0,&quot;rounded&quot;:0};" vertex="1" parent="aM9ryv3xv72pqoxQDRHE-5">
          <mxGeometry x="45" y="1610" width="10" height="80" as="geometry" />
        </mxCell>
        <mxCell id="8OrpDrZAfpW0493N6n80-377" value="" style="html=1;points=[];perimeter=orthogonalPerimeter;outlineConnect=0;targetShapes=umlLifeline;portConstraint=eastwest;newEdgeStyle={&quot;edgeStyle&quot;:&quot;elbowEdgeStyle&quot;,&quot;elbow&quot;:&quot;vertical&quot;,&quot;curved&quot;:0,&quot;rounded&quot;:0};" vertex="1" parent="aM9ryv3xv72pqoxQDRHE-5">
          <mxGeometry x="45" y="1720" width="10" height="70" as="geometry" />
        </mxCell>
        <mxCell id="8OrpDrZAfpW0493N6n80-392" value="" style="html=1;points=[];perimeter=orthogonalPerimeter;outlineConnect=0;targetShapes=umlLifeline;portConstraint=eastwest;newEdgeStyle={&quot;edgeStyle&quot;:&quot;elbowEdgeStyle&quot;,&quot;elbow&quot;:&quot;vertical&quot;,&quot;curved&quot;:0,&quot;rounded&quot;:0};" vertex="1" parent="aM9ryv3xv72pqoxQDRHE-5">
          <mxGeometry x="50" y="1240" width="10" height="20" as="geometry" />
        </mxCell>
        <mxCell id="8OrpDrZAfpW0493N6n80-393" value="" style="html=1;points=[];perimeter=orthogonalPerimeter;outlineConnect=0;targetShapes=umlLifeline;portConstraint=eastwest;newEdgeStyle={&quot;edgeStyle&quot;:&quot;elbowEdgeStyle&quot;,&quot;elbow&quot;:&quot;vertical&quot;,&quot;curved&quot;:0,&quot;rounded&quot;:0};" vertex="1" parent="aM9ryv3xv72pqoxQDRHE-5">
          <mxGeometry x="50" y="1330" width="10" height="20" as="geometry" />
        </mxCell>
        <mxCell id="8OrpDrZAfpW0493N6n80-394" value="" style="html=1;points=[];perimeter=orthogonalPerimeter;outlineConnect=0;targetShapes=umlLifeline;portConstraint=eastwest;newEdgeStyle={&quot;edgeStyle&quot;:&quot;elbowEdgeStyle&quot;,&quot;elbow&quot;:&quot;vertical&quot;,&quot;curved&quot;:0,&quot;rounded&quot;:0};" vertex="1" parent="aM9ryv3xv72pqoxQDRHE-5">
          <mxGeometry x="50" y="1140" width="10" height="40" as="geometry" />
        </mxCell>
        <mxCell id="8OrpDrZAfpW0493N6n80-395" value="" style="html=1;points=[];perimeter=orthogonalPerimeter;outlineConnect=0;targetShapes=umlLifeline;portConstraint=eastwest;newEdgeStyle={&quot;edgeStyle&quot;:&quot;elbowEdgeStyle&quot;,&quot;elbow&quot;:&quot;vertical&quot;,&quot;curved&quot;:0,&quot;rounded&quot;:0};" vertex="1" parent="aM9ryv3xv72pqoxQDRHE-5">
          <mxGeometry x="50" y="1420" width="10" height="30" as="geometry" />
        </mxCell>
        <mxCell id="8OrpDrZAfpW0493N6n80-396" value="" style="html=1;points=[];perimeter=orthogonalPerimeter;outlineConnect=0;targetShapes=umlLifeline;portConstraint=eastwest;newEdgeStyle={&quot;edgeStyle&quot;:&quot;elbowEdgeStyle&quot;,&quot;elbow&quot;:&quot;vertical&quot;,&quot;curved&quot;:0,&quot;rounded&quot;:0};" vertex="1" parent="aM9ryv3xv72pqoxQDRHE-5">
          <mxGeometry x="50" y="1060" width="10" height="20" as="geometry" />
        </mxCell>
        <mxCell id="8OrpDrZAfpW0493N6n80-397" value="" style="html=1;points=[];perimeter=orthogonalPerimeter;outlineConnect=0;targetShapes=umlLifeline;portConstraint=eastwest;newEdgeStyle={&quot;edgeStyle&quot;:&quot;elbowEdgeStyle&quot;,&quot;elbow&quot;:&quot;vertical&quot;,&quot;curved&quot;:0,&quot;rounded&quot;:0};" vertex="1" parent="aM9ryv3xv72pqoxQDRHE-5">
          <mxGeometry x="50" y="960" width="10" height="20" as="geometry" />
        </mxCell>
        <mxCell id="8OrpDrZAfpW0493N6n80-398" value="" style="html=1;points=[];perimeter=orthogonalPerimeter;outlineConnect=0;targetShapes=umlLifeline;portConstraint=eastwest;newEdgeStyle={&quot;edgeStyle&quot;:&quot;elbowEdgeStyle&quot;,&quot;elbow&quot;:&quot;vertical&quot;,&quot;curved&quot;:0,&quot;rounded&quot;:0};" vertex="1" parent="aM9ryv3xv72pqoxQDRHE-5">
          <mxGeometry x="50" y="800" width="10" height="20" as="geometry" />
        </mxCell>
        <mxCell id="8OrpDrZAfpW0493N6n80-400" value="" style="html=1;points=[];perimeter=orthogonalPerimeter;outlineConnect=0;targetShapes=umlLifeline;portConstraint=eastwest;newEdgeStyle={&quot;edgeStyle&quot;:&quot;elbowEdgeStyle&quot;,&quot;elbow&quot;:&quot;vertical&quot;,&quot;curved&quot;:0,&quot;rounded&quot;:0};" vertex="1" parent="aM9ryv3xv72pqoxQDRHE-5">
          <mxGeometry x="50" y="1620" width="10" height="60" as="geometry" />
        </mxCell>
        <mxCell id="8OrpDrZAfpW0493N6n80-401" value="" style="html=1;points=[];perimeter=orthogonalPerimeter;outlineConnect=0;targetShapes=umlLifeline;portConstraint=eastwest;newEdgeStyle={&quot;edgeStyle&quot;:&quot;elbowEdgeStyle&quot;,&quot;elbow&quot;:&quot;vertical&quot;,&quot;curved&quot;:0,&quot;rounded&quot;:0};" vertex="1" parent="aM9ryv3xv72pqoxQDRHE-5">
          <mxGeometry x="50" y="1530" width="10" height="30" as="geometry" />
        </mxCell>
        <mxCell id="8OrpDrZAfpW0493N6n80-402" value="" style="html=1;points=[];perimeter=orthogonalPerimeter;outlineConnect=0;targetShapes=umlLifeline;portConstraint=eastwest;newEdgeStyle={&quot;edgeStyle&quot;:&quot;elbowEdgeStyle&quot;,&quot;elbow&quot;:&quot;vertical&quot;,&quot;curved&quot;:0,&quot;rounded&quot;:0};" vertex="1" parent="aM9ryv3xv72pqoxQDRHE-5">
          <mxGeometry x="50" y="1730" width="10" height="50" as="geometry" />
        </mxCell>
        <mxCell id="8OrpDrZAfpW0493N6n80-412" value="" style="html=1;points=[];perimeter=orthogonalPerimeter;outlineConnect=0;targetShapes=umlLifeline;portConstraint=eastwest;newEdgeStyle={&quot;edgeStyle&quot;:&quot;elbowEdgeStyle&quot;,&quot;elbow&quot;:&quot;vertical&quot;,&quot;curved&quot;:0,&quot;rounded&quot;:0};" vertex="1" parent="aM9ryv3xv72pqoxQDRHE-5">
          <mxGeometry x="45" y="1830" width="10" height="80" as="geometry" />
        </mxCell>
        <mxCell id="8OrpDrZAfpW0493N6n80-428" value="" style="html=1;points=[];perimeter=orthogonalPerimeter;outlineConnect=0;targetShapes=umlLifeline;portConstraint=eastwest;newEdgeStyle={&quot;edgeStyle&quot;:&quot;elbowEdgeStyle&quot;,&quot;elbow&quot;:&quot;vertical&quot;,&quot;curved&quot;:0,&quot;rounded&quot;:0};" vertex="1" parent="aM9ryv3xv72pqoxQDRHE-5">
          <mxGeometry x="45" y="1940" width="10" height="80" as="geometry" />
        </mxCell>
        <mxCell id="8OrpDrZAfpW0493N6n80-448" value="" style="html=1;points=[];perimeter=orthogonalPerimeter;outlineConnect=0;targetShapes=umlLifeline;portConstraint=eastwest;newEdgeStyle={&quot;edgeStyle&quot;:&quot;elbowEdgeStyle&quot;,&quot;elbow&quot;:&quot;vertical&quot;,&quot;curved&quot;:0,&quot;rounded&quot;:0};" vertex="1" parent="aM9ryv3xv72pqoxQDRHE-5">
          <mxGeometry x="45" y="2060" width="10" height="80" as="geometry" />
        </mxCell>
        <mxCell id="8OrpDrZAfpW0493N6n80-458" value="" style="html=1;points=[];perimeter=orthogonalPerimeter;outlineConnect=0;targetShapes=umlLifeline;portConstraint=eastwest;newEdgeStyle={&quot;edgeStyle&quot;:&quot;elbowEdgeStyle&quot;,&quot;elbow&quot;:&quot;vertical&quot;,&quot;curved&quot;:0,&quot;rounded&quot;:0};" vertex="1" parent="aM9ryv3xv72pqoxQDRHE-5">
          <mxGeometry x="45" y="2200" width="10" height="40" as="geometry" />
        </mxCell>
        <mxCell id="8OrpDrZAfpW0493N6n80-459" value="" style="html=1;points=[];perimeter=orthogonalPerimeter;outlineConnect=0;targetShapes=umlLifeline;portConstraint=eastwest;newEdgeStyle={&quot;edgeStyle&quot;:&quot;elbowEdgeStyle&quot;,&quot;elbow&quot;:&quot;vertical&quot;,&quot;curved&quot;:0,&quot;rounded&quot;:0};" vertex="1" parent="aM9ryv3xv72pqoxQDRHE-5">
          <mxGeometry x="50" y="1950" width="10" height="60" as="geometry" />
        </mxCell>
        <mxCell id="8OrpDrZAfpW0493N6n80-460" value="" style="html=1;points=[];perimeter=orthogonalPerimeter;outlineConnect=0;targetShapes=umlLifeline;portConstraint=eastwest;newEdgeStyle={&quot;edgeStyle&quot;:&quot;elbowEdgeStyle&quot;,&quot;elbow&quot;:&quot;vertical&quot;,&quot;curved&quot;:0,&quot;rounded&quot;:0};" vertex="1" parent="aM9ryv3xv72pqoxQDRHE-5">
          <mxGeometry x="50" y="1840" width="10" height="60" as="geometry" />
        </mxCell>
        <mxCell id="8OrpDrZAfpW0493N6n80-461" value="" style="html=1;points=[];perimeter=orthogonalPerimeter;outlineConnect=0;targetShapes=umlLifeline;portConstraint=eastwest;newEdgeStyle={&quot;edgeStyle&quot;:&quot;elbowEdgeStyle&quot;,&quot;elbow&quot;:&quot;vertical&quot;,&quot;curved&quot;:0,&quot;rounded&quot;:0};" vertex="1" parent="aM9ryv3xv72pqoxQDRHE-5">
          <mxGeometry x="50" y="2070" width="10" height="60" as="geometry" />
        </mxCell>
        <mxCell id="8OrpDrZAfpW0493N6n80-469" value="" style="html=1;points=[];perimeter=orthogonalPerimeter;outlineConnect=0;targetShapes=umlLifeline;portConstraint=eastwest;newEdgeStyle={&quot;edgeStyle&quot;:&quot;elbowEdgeStyle&quot;,&quot;elbow&quot;:&quot;vertical&quot;,&quot;curved&quot;:0,&quot;rounded&quot;:0};" vertex="1" parent="aM9ryv3xv72pqoxQDRHE-5">
          <mxGeometry x="50" y="2210" width="10" height="20" as="geometry" />
        </mxCell>
        <mxCell id="8OrpDrZAfpW0493N6n80-475" value="" style="html=1;points=[];perimeter=orthogonalPerimeter;outlineConnect=0;targetShapes=umlLifeline;portConstraint=eastwest;newEdgeStyle={&quot;edgeStyle&quot;:&quot;elbowEdgeStyle&quot;,&quot;elbow&quot;:&quot;vertical&quot;,&quot;curved&quot;:0,&quot;rounded&quot;:0};" vertex="1" parent="aM9ryv3xv72pqoxQDRHE-5">
          <mxGeometry x="45" y="2300" width="10" height="40" as="geometry" />
        </mxCell>
        <mxCell id="8OrpDrZAfpW0493N6n80-486" value="" style="html=1;points=[];perimeter=orthogonalPerimeter;outlineConnect=0;targetShapes=umlLifeline;portConstraint=eastwest;newEdgeStyle={&quot;edgeStyle&quot;:&quot;elbowEdgeStyle&quot;,&quot;elbow&quot;:&quot;vertical&quot;,&quot;curved&quot;:0,&quot;rounded&quot;:0};" vertex="1" parent="aM9ryv3xv72pqoxQDRHE-5">
          <mxGeometry x="45" y="2400" width="10" height="70" as="geometry" />
        </mxCell>
        <mxCell id="8OrpDrZAfpW0493N6n80-487" value="" style="html=1;points=[];perimeter=orthogonalPerimeter;outlineConnect=0;targetShapes=umlLifeline;portConstraint=eastwest;newEdgeStyle={&quot;edgeStyle&quot;:&quot;elbowEdgeStyle&quot;,&quot;elbow&quot;:&quot;vertical&quot;,&quot;curved&quot;:0,&quot;rounded&quot;:0};" vertex="1" parent="aM9ryv3xv72pqoxQDRHE-5">
          <mxGeometry x="50" y="2310" width="10" height="20" as="geometry" />
        </mxCell>
        <mxCell id="8OrpDrZAfpW0493N6n80-505" value="" style="html=1;points=[];perimeter=orthogonalPerimeter;outlineConnect=0;targetShapes=umlLifeline;portConstraint=eastwest;newEdgeStyle={&quot;edgeStyle&quot;:&quot;elbowEdgeStyle&quot;,&quot;elbow&quot;:&quot;vertical&quot;,&quot;curved&quot;:0,&quot;rounded&quot;:0};" vertex="1" parent="aM9ryv3xv72pqoxQDRHE-5">
          <mxGeometry x="45" y="2510" width="10" height="50" as="geometry" />
        </mxCell>
        <mxCell id="8OrpDrZAfpW0493N6n80-512" value="" style="html=1;points=[];perimeter=orthogonalPerimeter;outlineConnect=0;targetShapes=umlLifeline;portConstraint=eastwest;newEdgeStyle={&quot;edgeStyle&quot;:&quot;elbowEdgeStyle&quot;,&quot;elbow&quot;:&quot;vertical&quot;,&quot;curved&quot;:0,&quot;rounded&quot;:0};" vertex="1" parent="aM9ryv3xv72pqoxQDRHE-5">
          <mxGeometry x="50" y="2410" width="10" height="40" as="geometry" />
        </mxCell>
        <mxCell id="8OrpDrZAfpW0493N6n80-513" value="" style="html=1;points=[];perimeter=orthogonalPerimeter;outlineConnect=0;targetShapes=umlLifeline;portConstraint=eastwest;newEdgeStyle={&quot;edgeStyle&quot;:&quot;elbowEdgeStyle&quot;,&quot;elbow&quot;:&quot;vertical&quot;,&quot;curved&quot;:0,&quot;rounded&quot;:0};" vertex="1" parent="aM9ryv3xv72pqoxQDRHE-5">
          <mxGeometry x="50" y="2530" width="10" height="20" as="geometry" />
        </mxCell>
        <mxCell id="8OrpDrZAfpW0493N6n80-519" value="" style="html=1;points=[];perimeter=orthogonalPerimeter;outlineConnect=0;targetShapes=umlLifeline;portConstraint=eastwest;newEdgeStyle={&quot;edgeStyle&quot;:&quot;elbowEdgeStyle&quot;,&quot;elbow&quot;:&quot;vertical&quot;,&quot;curved&quot;:0,&quot;rounded&quot;:0};" vertex="1" parent="aM9ryv3xv72pqoxQDRHE-5">
          <mxGeometry x="45" y="2610" width="10" height="110" as="geometry" />
        </mxCell>
        <mxCell id="8OrpDrZAfpW0493N6n80-536" value="" style="html=1;points=[];perimeter=orthogonalPerimeter;outlineConnect=0;targetShapes=umlLifeline;portConstraint=eastwest;newEdgeStyle={&quot;edgeStyle&quot;:&quot;elbowEdgeStyle&quot;,&quot;elbow&quot;:&quot;vertical&quot;,&quot;curved&quot;:0,&quot;rounded&quot;:0};" vertex="1" parent="aM9ryv3xv72pqoxQDRHE-5">
          <mxGeometry x="50" y="2690" width="10" height="20" as="geometry" />
        </mxCell>
        <mxCell id="8OrpDrZAfpW0493N6n80-539" value="" style="html=1;points=[];perimeter=orthogonalPerimeter;outlineConnect=0;targetShapes=umlLifeline;portConstraint=eastwest;newEdgeStyle={&quot;edgeStyle&quot;:&quot;elbowEdgeStyle&quot;,&quot;elbow&quot;:&quot;vertical&quot;,&quot;curved&quot;:0,&quot;rounded&quot;:0};" vertex="1" parent="aM9ryv3xv72pqoxQDRHE-5">
          <mxGeometry x="50" y="2620" width="10" height="40" as="geometry" />
        </mxCell>
        <mxCell id="8OrpDrZAfpW0493N6n80-546" value="" style="html=1;points=[];perimeter=orthogonalPerimeter;outlineConnect=0;targetShapes=umlLifeline;portConstraint=eastwest;newEdgeStyle={&quot;edgeStyle&quot;:&quot;elbowEdgeStyle&quot;,&quot;elbow&quot;:&quot;vertical&quot;,&quot;curved&quot;:0,&quot;rounded&quot;:0};" vertex="1" parent="aM9ryv3xv72pqoxQDRHE-5">
          <mxGeometry x="45" y="2750" width="10" height="40" as="geometry" />
        </mxCell>
        <mxCell id="8OrpDrZAfpW0493N6n80-551" value="" style="html=1;points=[];perimeter=orthogonalPerimeter;outlineConnect=0;targetShapes=umlLifeline;portConstraint=eastwest;newEdgeStyle={&quot;edgeStyle&quot;:&quot;elbowEdgeStyle&quot;,&quot;elbow&quot;:&quot;vertical&quot;,&quot;curved&quot;:0,&quot;rounded&quot;:0};" vertex="1" parent="aM9ryv3xv72pqoxQDRHE-5">
          <mxGeometry x="50" y="2760" width="10" height="20" as="geometry" />
        </mxCell>
        <mxCell id="8OrpDrZAfpW0493N6n80-570" value="" style="html=1;points=[];perimeter=orthogonalPerimeter;outlineConnect=0;targetShapes=umlLifeline;portConstraint=eastwest;newEdgeStyle={&quot;edgeStyle&quot;:&quot;elbowEdgeStyle&quot;,&quot;elbow&quot;:&quot;vertical&quot;,&quot;curved&quot;:0,&quot;rounded&quot;:0};" vertex="1" parent="aM9ryv3xv72pqoxQDRHE-5">
          <mxGeometry x="50" y="2860" width="10" height="30" as="geometry" />
        </mxCell>
        <mxCell id="8OrpDrZAfpW0493N6n80-543" value="dispatch" style="html=1;verticalAlign=bottom;endArrow=block;edgeStyle=elbowEdgeStyle;elbow=vertical;curved=0;rounded=0;" edge="1" parent="1">
          <mxGeometry relative="1" as="geometry">
            <mxPoint x="-49" y="2790" as="sourcePoint" />
            <Array as="points">
              <mxPoint x="110" y="2790" />
            </Array>
            <mxPoint x="205" y="2790" as="targetPoint" />
          </mxGeometry>
        </mxCell>
        <mxCell id="8OrpDrZAfpW0493N6n80-516" value="dispatch" style="html=1;verticalAlign=bottom;endArrow=block;edgeStyle=elbowEdgeStyle;elbow=vertical;curved=0;rounded=0;" edge="1" parent="1">
          <mxGeometry relative="1" as="geometry">
            <mxPoint x="-49" y="2650" as="sourcePoint" />
            <Array as="points">
              <mxPoint x="110" y="2650" />
            </Array>
            <mxPoint x="205" y="2650" as="targetPoint" />
          </mxGeometry>
        </mxCell>
        <mxCell id="8OrpDrZAfpW0493N6n80-502" value="dispatch" style="html=1;verticalAlign=bottom;endArrow=block;edgeStyle=elbowEdgeStyle;elbow=vertical;curved=0;rounded=0;" edge="1" parent="1">
          <mxGeometry relative="1" as="geometry">
            <mxPoint x="-50" y="2560" as="sourcePoint" />
            <Array as="points">
              <mxPoint x="109" y="2560" />
            </Array>
            <mxPoint x="204" y="2560" as="targetPoint" />
          </mxGeometry>
        </mxCell>
        <mxCell id="8OrpDrZAfpW0493N6n80-483" value="dispatch" style="html=1;verticalAlign=bottom;endArrow=block;edgeStyle=elbowEdgeStyle;elbow=vertical;curved=0;rounded=0;" edge="1" parent="1">
          <mxGeometry relative="1" as="geometry">
            <mxPoint x="-50" y="2440" as="sourcePoint" />
            <Array as="points">
              <mxPoint x="109" y="2440" />
            </Array>
            <mxPoint x="204" y="2440" as="targetPoint" />
          </mxGeometry>
        </mxCell>
        <mxCell id="8OrpDrZAfpW0493N6n80-472" value="dispatch" style="html=1;verticalAlign=bottom;endArrow=block;edgeStyle=elbowEdgeStyle;elbow=vertical;curved=0;rounded=0;" edge="1" parent="1">
          <mxGeometry relative="1" as="geometry">
            <mxPoint x="-50" y="2340" as="sourcePoint" />
            <Array as="points">
              <mxPoint x="109" y="2340" />
            </Array>
            <mxPoint x="204" y="2340" as="targetPoint" />
          </mxGeometry>
        </mxCell>
        <mxCell id="8OrpDrZAfpW0493N6n80-445" value="dispatch" style="html=1;verticalAlign=bottom;endArrow=block;edgeStyle=elbowEdgeStyle;elbow=vertical;curved=0;rounded=0;" edge="1" parent="1">
          <mxGeometry relative="1" as="geometry">
            <mxPoint x="-49" y="2099" as="sourcePoint" />
            <Array as="points">
              <mxPoint x="110" y="2099" />
            </Array>
            <mxPoint x="205" y="2099" as="targetPoint" />
          </mxGeometry>
        </mxCell>
        <mxCell id="8OrpDrZAfpW0493N6n80-457" value="dispatch" style="html=1;verticalAlign=bottom;endArrow=block;edgeStyle=elbowEdgeStyle;elbow=vertical;curved=0;rounded=0;" edge="1" parent="1">
          <mxGeometry relative="1" as="geometry">
            <mxPoint x="-50" y="2240" as="sourcePoint" />
            <Array as="points">
              <mxPoint x="109" y="2240" />
            </Array>
            <mxPoint x="204" y="2240" as="targetPoint" />
          </mxGeometry>
        </mxCell>
        <mxCell id="8OrpDrZAfpW0493N6n80-427" value="dispatch" style="html=1;verticalAlign=bottom;endArrow=block;edgeStyle=elbowEdgeStyle;elbow=vertical;curved=0;rounded=0;" edge="1" parent="1">
          <mxGeometry relative="1" as="geometry">
            <mxPoint x="-50" y="1980" as="sourcePoint" />
            <Array as="points">
              <mxPoint x="109" y="1980" />
            </Array>
            <mxPoint x="204" y="1980" as="targetPoint" />
          </mxGeometry>
        </mxCell>
        <mxCell id="8OrpDrZAfpW0493N6n80-355" value="dispatch" style="html=1;verticalAlign=bottom;endArrow=block;edgeStyle=elbowEdgeStyle;elbow=vertical;curved=0;rounded=0;" edge="1" parent="1">
          <mxGeometry relative="1" as="geometry">
            <mxPoint x="-50" y="1760" as="sourcePoint" />
            <Array as="points">
              <mxPoint x="109" y="1760" />
            </Array>
            <mxPoint x="204" y="1760" as="targetPoint" />
          </mxGeometry>
        </mxCell>
        <mxCell id="aM9ryv3xv72pqoxQDRHE-1" value=":GUI" style="shape=umlLifeline;perimeter=lifelinePerimeter;whiteSpace=wrap;html=1;container=0;dropTarget=0;collapsible=0;recursiveResize=0;outlineConnect=0;portConstraint=eastwest;newEdgeStyle={&quot;edgeStyle&quot;:&quot;elbowEdgeStyle&quot;,&quot;elbow&quot;:&quot;vertical&quot;,&quot;curved&quot;:0,&quot;rounded&quot;:0};" vertex="1" parent="1">
          <mxGeometry x="-100" y="40" width="100" height="2960" as="geometry" />
        </mxCell>
        <mxCell id="aM9ryv3xv72pqoxQDRHE-2" value="" style="html=1;points=[];perimeter=orthogonalPerimeter;outlineConnect=0;targetShapes=umlLifeline;portConstraint=eastwest;newEdgeStyle={&quot;edgeStyle&quot;:&quot;elbowEdgeStyle&quot;,&quot;elbow&quot;:&quot;vertical&quot;,&quot;curved&quot;:0,&quot;rounded&quot;:0};" vertex="1" parent="aM9ryv3xv72pqoxQDRHE-1">
          <mxGeometry x="45" y="70" width="10" height="50" as="geometry" />
        </mxCell>
        <mxCell id="aM9ryv3xv72pqoxQDRHE-3" value="click log in button" style="html=1;verticalAlign=bottom;startArrow=oval;endArrow=block;startSize=8;edgeStyle=elbowEdgeStyle;elbow=vertical;curved=0;rounded=0;" edge="1" parent="aM9ryv3xv72pqoxQDRHE-1" target="aM9ryv3xv72pqoxQDRHE-2">
          <mxGeometry relative="1" as="geometry">
            <mxPoint x="-160" y="70" as="sourcePoint" />
          </mxGeometry>
        </mxCell>
        <mxCell id="8OrpDrZAfpW0493N6n80-106" value="" style="html=1;points=[];perimeter=orthogonalPerimeter;outlineConnect=0;targetShapes=umlLifeline;portConstraint=eastwest;newEdgeStyle={&quot;edgeStyle&quot;:&quot;elbowEdgeStyle&quot;,&quot;elbow&quot;:&quot;vertical&quot;,&quot;curved&quot;:0,&quot;rounded&quot;:0};" vertex="1" parent="aM9ryv3xv72pqoxQDRHE-1">
          <mxGeometry x="45" y="160" width="10" height="50" as="geometry" />
        </mxCell>
        <mxCell id="8OrpDrZAfpW0493N6n80-125" value="" style="html=1;points=[];perimeter=orthogonalPerimeter;outlineConnect=0;targetShapes=umlLifeline;portConstraint=eastwest;newEdgeStyle={&quot;edgeStyle&quot;:&quot;elbowEdgeStyle&quot;,&quot;elbow&quot;:&quot;vertical&quot;,&quot;curved&quot;:0,&quot;rounded&quot;:0};" vertex="1" parent="aM9ryv3xv72pqoxQDRHE-1">
          <mxGeometry x="45" y="240" width="10" height="60" as="geometry" />
        </mxCell>
        <mxCell id="8OrpDrZAfpW0493N6n80-156" value="" style="html=1;points=[];perimeter=orthogonalPerimeter;outlineConnect=0;targetShapes=umlLifeline;portConstraint=eastwest;newEdgeStyle={&quot;edgeStyle&quot;:&quot;elbowEdgeStyle&quot;,&quot;elbow&quot;:&quot;vertical&quot;,&quot;curved&quot;:0,&quot;rounded&quot;:0};" vertex="1" parent="aM9ryv3xv72pqoxQDRHE-1">
          <mxGeometry x="50" y="330" width="10" height="30" as="geometry" />
        </mxCell>
        <mxCell id="8OrpDrZAfpW0493N6n80-155" value="" style="html=1;points=[];perimeter=orthogonalPerimeter;outlineConnect=0;targetShapes=umlLifeline;portConstraint=eastwest;newEdgeStyle={&quot;edgeStyle&quot;:&quot;elbowEdgeStyle&quot;,&quot;elbow&quot;:&quot;vertical&quot;,&quot;curved&quot;:0,&quot;rounded&quot;:0};" vertex="1" parent="aM9ryv3xv72pqoxQDRHE-1">
          <mxGeometry x="45" y="320" width="12.31" height="160" as="geometry" />
        </mxCell>
        <mxCell id="8OrpDrZAfpW0493N6n80-221" value="" style="html=1;points=[];perimeter=orthogonalPerimeter;outlineConnect=0;targetShapes=umlLifeline;portConstraint=eastwest;newEdgeStyle={&quot;edgeStyle&quot;:&quot;elbowEdgeStyle&quot;,&quot;elbow&quot;:&quot;vertical&quot;,&quot;curved&quot;:0,&quot;rounded&quot;:0};" vertex="1" parent="aM9ryv3xv72pqoxQDRHE-1">
          <mxGeometry x="46.15" y="510" width="10" height="60" as="geometry" />
        </mxCell>
        <mxCell id="8OrpDrZAfpW0493N6n80-231" value="" style="html=1;points=[];perimeter=orthogonalPerimeter;outlineConnect=0;targetShapes=umlLifeline;portConstraint=eastwest;newEdgeStyle={&quot;edgeStyle&quot;:&quot;elbowEdgeStyle&quot;,&quot;elbow&quot;:&quot;vertical&quot;,&quot;curved&quot;:0,&quot;rounded&quot;:0};" vertex="1" parent="aM9ryv3xv72pqoxQDRHE-1">
          <mxGeometry x="45" y="600" width="10" height="100" as="geometry" />
        </mxCell>
        <mxCell id="8OrpDrZAfpW0493N6n80-247" value="" style="html=1;points=[];perimeter=orthogonalPerimeter;outlineConnect=0;targetShapes=umlLifeline;portConstraint=eastwest;newEdgeStyle={&quot;edgeStyle&quot;:&quot;elbowEdgeStyle&quot;,&quot;elbow&quot;:&quot;vertical&quot;,&quot;curved&quot;:0,&quot;rounded&quot;:0};" vertex="1" parent="aM9ryv3xv72pqoxQDRHE-1">
          <mxGeometry x="46.15" y="720" width="10" height="120" as="geometry" />
        </mxCell>
        <mxCell id="8OrpDrZAfpW0493N6n80-264" value="" style="html=1;points=[];perimeter=orthogonalPerimeter;outlineConnect=0;targetShapes=umlLifeline;portConstraint=eastwest;newEdgeStyle={&quot;edgeStyle&quot;:&quot;elbowEdgeStyle&quot;,&quot;elbow&quot;:&quot;vertical&quot;,&quot;curved&quot;:0,&quot;rounded&quot;:0};" vertex="1" parent="aM9ryv3xv72pqoxQDRHE-1">
          <mxGeometry x="45" y="880" width="10" height="120" as="geometry" />
        </mxCell>
        <mxCell id="8OrpDrZAfpW0493N6n80-283" value="" style="html=1;points=[];perimeter=orthogonalPerimeter;outlineConnect=0;targetShapes=umlLifeline;portConstraint=eastwest;newEdgeStyle={&quot;edgeStyle&quot;:&quot;elbowEdgeStyle&quot;,&quot;elbow&quot;:&quot;vertical&quot;,&quot;curved&quot;:0,&quot;rounded&quot;:0};" vertex="1" parent="aM9ryv3xv72pqoxQDRHE-1">
          <mxGeometry x="45" y="1120" width="10" height="80" as="geometry" />
        </mxCell>
        <mxCell id="8OrpDrZAfpW0493N6n80-293" value="" style="html=1;points=[];perimeter=orthogonalPerimeter;outlineConnect=0;targetShapes=umlLifeline;portConstraint=eastwest;newEdgeStyle={&quot;edgeStyle&quot;:&quot;elbowEdgeStyle&quot;,&quot;elbow&quot;:&quot;vertical&quot;,&quot;curved&quot;:0,&quot;rounded&quot;:0};" vertex="1" parent="aM9ryv3xv72pqoxQDRHE-1">
          <mxGeometry x="45" y="1040" width="10" height="60" as="geometry" />
        </mxCell>
        <mxCell id="8OrpDrZAfpW0493N6n80-307" value="" style="html=1;points=[];perimeter=orthogonalPerimeter;outlineConnect=0;targetShapes=umlLifeline;portConstraint=eastwest;newEdgeStyle={&quot;edgeStyle&quot;:&quot;elbowEdgeStyle&quot;,&quot;elbow&quot;:&quot;vertical&quot;,&quot;curved&quot;:0,&quot;rounded&quot;:0};" vertex="1" parent="aM9ryv3xv72pqoxQDRHE-1">
          <mxGeometry x="46.15" y="1220" width="10" height="60" as="geometry" />
        </mxCell>
        <mxCell id="8OrpDrZAfpW0493N6n80-323" value="" style="html=1;points=[];perimeter=orthogonalPerimeter;outlineConnect=0;targetShapes=umlLifeline;portConstraint=eastwest;newEdgeStyle={&quot;edgeStyle&quot;:&quot;elbowEdgeStyle&quot;,&quot;elbow&quot;:&quot;vertical&quot;,&quot;curved&quot;:0,&quot;rounded&quot;:0};" vertex="1" parent="aM9ryv3xv72pqoxQDRHE-1">
          <mxGeometry x="45" y="1310" width="10" height="60" as="geometry" />
        </mxCell>
        <mxCell id="8OrpDrZAfpW0493N6n80-331" value="" style="html=1;points=[];perimeter=orthogonalPerimeter;outlineConnect=0;targetShapes=umlLifeline;portConstraint=eastwest;newEdgeStyle={&quot;edgeStyle&quot;:&quot;elbowEdgeStyle&quot;,&quot;elbow&quot;:&quot;vertical&quot;,&quot;curved&quot;:0,&quot;rounded&quot;:0};" vertex="1" parent="aM9ryv3xv72pqoxQDRHE-1">
          <mxGeometry x="45" y="1400" width="10" height="60" as="geometry" />
        </mxCell>
        <mxCell id="8OrpDrZAfpW0493N6n80-340" value="" style="html=1;points=[];perimeter=orthogonalPerimeter;outlineConnect=0;targetShapes=umlLifeline;portConstraint=eastwest;newEdgeStyle={&quot;edgeStyle&quot;:&quot;elbowEdgeStyle&quot;,&quot;elbow&quot;:&quot;vertical&quot;,&quot;curved&quot;:0,&quot;rounded&quot;:0};" vertex="1" parent="aM9ryv3xv72pqoxQDRHE-1">
          <mxGeometry x="46.15" y="1510" width="10" height="60" as="geometry" />
        </mxCell>
        <mxCell id="8OrpDrZAfpW0493N6n80-352" value="" style="html=1;points=[];perimeter=orthogonalPerimeter;outlineConnect=0;targetShapes=umlLifeline;portConstraint=eastwest;newEdgeStyle={&quot;edgeStyle&quot;:&quot;elbowEdgeStyle&quot;,&quot;elbow&quot;:&quot;vertical&quot;,&quot;curved&quot;:0,&quot;rounded&quot;:0};" vertex="1" parent="aM9ryv3xv72pqoxQDRHE-1">
          <mxGeometry x="45" y="1600" width="10" height="90" as="geometry" />
        </mxCell>
        <mxCell id="8OrpDrZAfpW0493N6n80-374" value="" style="html=1;points=[];perimeter=orthogonalPerimeter;outlineConnect=0;targetShapes=umlLifeline;portConstraint=eastwest;newEdgeStyle={&quot;edgeStyle&quot;:&quot;elbowEdgeStyle&quot;,&quot;elbow&quot;:&quot;vertical&quot;,&quot;curved&quot;:0,&quot;rounded&quot;:0};" vertex="1" parent="aM9ryv3xv72pqoxQDRHE-1">
          <mxGeometry x="45" y="1710" width="10" height="80" as="geometry" />
        </mxCell>
        <mxCell id="8OrpDrZAfpW0493N6n80-408" value="" style="html=1;points=[];perimeter=orthogonalPerimeter;outlineConnect=0;targetShapes=umlLifeline;portConstraint=eastwest;newEdgeStyle={&quot;edgeStyle&quot;:&quot;elbowEdgeStyle&quot;,&quot;elbow&quot;:&quot;vertical&quot;,&quot;curved&quot;:0,&quot;rounded&quot;:0};" vertex="1" parent="aM9ryv3xv72pqoxQDRHE-1">
          <mxGeometry x="45" y="1820" width="10" height="90" as="geometry" />
        </mxCell>
        <mxCell id="8OrpDrZAfpW0493N6n80-426" value="" style="html=1;points=[];perimeter=orthogonalPerimeter;outlineConnect=0;targetShapes=umlLifeline;portConstraint=eastwest;newEdgeStyle={&quot;edgeStyle&quot;:&quot;elbowEdgeStyle&quot;,&quot;elbow&quot;:&quot;vertical&quot;,&quot;curved&quot;:0,&quot;rounded&quot;:0};" vertex="1" parent="aM9ryv3xv72pqoxQDRHE-1">
          <mxGeometry x="45" y="1930" width="10" height="90" as="geometry" />
        </mxCell>
        <mxCell id="8OrpDrZAfpW0493N6n80-444" value="" style="html=1;points=[];perimeter=orthogonalPerimeter;outlineConnect=0;targetShapes=umlLifeline;portConstraint=eastwest;newEdgeStyle={&quot;edgeStyle&quot;:&quot;elbowEdgeStyle&quot;,&quot;elbow&quot;:&quot;vertical&quot;,&quot;curved&quot;:0,&quot;rounded&quot;:0};" vertex="1" parent="aM9ryv3xv72pqoxQDRHE-1">
          <mxGeometry x="45" y="2050" width="10" height="90" as="geometry" />
        </mxCell>
        <mxCell id="8OrpDrZAfpW0493N6n80-456" value="" style="html=1;points=[];perimeter=orthogonalPerimeter;outlineConnect=0;targetShapes=umlLifeline;portConstraint=eastwest;newEdgeStyle={&quot;edgeStyle&quot;:&quot;elbowEdgeStyle&quot;,&quot;elbow&quot;:&quot;vertical&quot;,&quot;curved&quot;:0,&quot;rounded&quot;:0};" vertex="1" parent="aM9ryv3xv72pqoxQDRHE-1">
          <mxGeometry x="46.15" y="2190" width="10" height="50" as="geometry" />
        </mxCell>
        <mxCell id="8OrpDrZAfpW0493N6n80-471" value="" style="html=1;points=[];perimeter=orthogonalPerimeter;outlineConnect=0;targetShapes=umlLifeline;portConstraint=eastwest;newEdgeStyle={&quot;edgeStyle&quot;:&quot;elbowEdgeStyle&quot;,&quot;elbow&quot;:&quot;vertical&quot;,&quot;curved&quot;:0,&quot;rounded&quot;:0};" vertex="1" parent="aM9ryv3xv72pqoxQDRHE-1">
          <mxGeometry x="46.15" y="2290" width="10" height="50" as="geometry" />
        </mxCell>
        <mxCell id="8OrpDrZAfpW0493N6n80-501" value="" style="html=1;points=[];perimeter=orthogonalPerimeter;outlineConnect=0;targetShapes=umlLifeline;portConstraint=eastwest;newEdgeStyle={&quot;edgeStyle&quot;:&quot;elbowEdgeStyle&quot;,&quot;elbow&quot;:&quot;vertical&quot;,&quot;curved&quot;:0,&quot;rounded&quot;:0};" vertex="1" parent="aM9ryv3xv72pqoxQDRHE-1">
          <mxGeometry x="45" y="2510" width="10" height="50" as="geometry" />
        </mxCell>
        <mxCell id="8OrpDrZAfpW0493N6n80-515" value="" style="html=1;points=[];perimeter=orthogonalPerimeter;outlineConnect=0;targetShapes=umlLifeline;portConstraint=eastwest;newEdgeStyle={&quot;edgeStyle&quot;:&quot;elbowEdgeStyle&quot;,&quot;elbow&quot;:&quot;vertical&quot;,&quot;curved&quot;:0,&quot;rounded&quot;:0};" vertex="1" parent="aM9ryv3xv72pqoxQDRHE-1">
          <mxGeometry x="45" y="2600" width="10" height="120" as="geometry" />
        </mxCell>
        <mxCell id="8OrpDrZAfpW0493N6n80-542" value="" style="html=1;points=[];perimeter=orthogonalPerimeter;outlineConnect=0;targetShapes=umlLifeline;portConstraint=eastwest;newEdgeStyle={&quot;edgeStyle&quot;:&quot;elbowEdgeStyle&quot;,&quot;elbow&quot;:&quot;vertical&quot;,&quot;curved&quot;:0,&quot;rounded&quot;:0};" vertex="1" parent="aM9ryv3xv72pqoxQDRHE-1">
          <mxGeometry x="46.16" y="2740" width="10" height="50" as="geometry" />
        </mxCell>
        <mxCell id="8OrpDrZAfpW0493N6n80-554" value="" style="html=1;points=[];perimeter=orthogonalPerimeter;outlineConnect=0;targetShapes=umlLifeline;portConstraint=eastwest;newEdgeStyle={&quot;edgeStyle&quot;:&quot;elbowEdgeStyle&quot;,&quot;elbow&quot;:&quot;vertical&quot;,&quot;curved&quot;:0,&quot;rounded&quot;:0};" vertex="1" parent="aM9ryv3xv72pqoxQDRHE-1">
          <mxGeometry x="46.16" y="2840" width="10" height="70" as="geometry" />
        </mxCell>
        <mxCell id="8OrpDrZAfpW0493N6n80-565" value="" style="html=1;points=[];perimeter=orthogonalPerimeter;outlineConnect=0;targetShapes=umlLifeline;portConstraint=eastwest;newEdgeStyle={&quot;edgeStyle&quot;:&quot;elbowEdgeStyle&quot;,&quot;elbow&quot;:&quot;vertical&quot;,&quot;curved&quot;:0,&quot;rounded&quot;:0};" vertex="1" parent="aM9ryv3xv72pqoxQDRHE-1">
          <mxGeometry x="50" y="2850" width="10" height="60" as="geometry" />
        </mxCell>
        <mxCell id="8OrpDrZAfpW0493N6n80-566" value="" style="html=1;points=[];perimeter=orthogonalPerimeter;outlineConnect=0;targetShapes=umlLifeline;portConstraint=eastwest;newEdgeStyle={&quot;edgeStyle&quot;:&quot;elbowEdgeStyle&quot;,&quot;elbow&quot;:&quot;vertical&quot;,&quot;curved&quot;:0,&quot;rounded&quot;:0};" vertex="1" parent="aM9ryv3xv72pqoxQDRHE-1">
          <mxGeometry x="50" y="2750" width="10" height="40" as="geometry" />
        </mxCell>
        <mxCell id="8OrpDrZAfpW0493N6n80-567" value="" style="html=1;points=[];perimeter=orthogonalPerimeter;outlineConnect=0;targetShapes=umlLifeline;portConstraint=eastwest;newEdgeStyle={&quot;edgeStyle&quot;:&quot;elbowEdgeStyle&quot;,&quot;elbow&quot;:&quot;vertical&quot;,&quot;curved&quot;:0,&quot;rounded&quot;:0};" vertex="1" parent="aM9ryv3xv72pqoxQDRHE-1">
          <mxGeometry x="50" y="2610" width="10" height="110" as="geometry" />
        </mxCell>
        <mxCell id="8OrpDrZAfpW0493N6n80-574" value="" style="html=1;points=[];perimeter=orthogonalPerimeter;outlineConnect=0;targetShapes=umlLifeline;portConstraint=eastwest;newEdgeStyle={&quot;edgeStyle&quot;:&quot;elbowEdgeStyle&quot;,&quot;elbow&quot;:&quot;vertical&quot;,&quot;curved&quot;:0,&quot;rounded&quot;:0};" vertex="1" parent="aM9ryv3xv72pqoxQDRHE-1">
          <mxGeometry x="50" y="2200" width="10" height="40" as="geometry" />
        </mxCell>
        <mxCell id="8OrpDrZAfpW0493N6n80-575" value="" style="html=1;points=[];perimeter=orthogonalPerimeter;outlineConnect=0;targetShapes=umlLifeline;portConstraint=eastwest;newEdgeStyle={&quot;edgeStyle&quot;:&quot;elbowEdgeStyle&quot;,&quot;elbow&quot;:&quot;vertical&quot;,&quot;curved&quot;:0,&quot;rounded&quot;:0};" vertex="1" parent="aM9ryv3xv72pqoxQDRHE-1">
          <mxGeometry x="50" y="2300" width="10" height="40" as="geometry" />
        </mxCell>
        <mxCell id="8OrpDrZAfpW0493N6n80-576" value="" style="html=1;points=[];perimeter=orthogonalPerimeter;outlineConnect=0;targetShapes=umlLifeline;portConstraint=eastwest;newEdgeStyle={&quot;edgeStyle&quot;:&quot;elbowEdgeStyle&quot;,&quot;elbow&quot;:&quot;vertical&quot;,&quot;curved&quot;:0,&quot;rounded&quot;:0};" vertex="1" parent="aM9ryv3xv72pqoxQDRHE-1">
          <mxGeometry x="50" y="2060" width="10" height="80" as="geometry" />
        </mxCell>
        <mxCell id="8OrpDrZAfpW0493N6n80-577" value="" style="html=1;points=[];perimeter=orthogonalPerimeter;outlineConnect=0;targetShapes=umlLifeline;portConstraint=eastwest;newEdgeStyle={&quot;edgeStyle&quot;:&quot;elbowEdgeStyle&quot;,&quot;elbow&quot;:&quot;vertical&quot;,&quot;curved&quot;:0,&quot;rounded&quot;:0};" vertex="1" parent="aM9ryv3xv72pqoxQDRHE-1">
          <mxGeometry x="50" y="1940" width="10" height="80" as="geometry" />
        </mxCell>
        <mxCell id="8OrpDrZAfpW0493N6n80-578" value="" style="html=1;points=[];perimeter=orthogonalPerimeter;outlineConnect=0;targetShapes=umlLifeline;portConstraint=eastwest;newEdgeStyle={&quot;edgeStyle&quot;:&quot;elbowEdgeStyle&quot;,&quot;elbow&quot;:&quot;vertical&quot;,&quot;curved&quot;:0,&quot;rounded&quot;:0};" vertex="1" parent="aM9ryv3xv72pqoxQDRHE-1">
          <mxGeometry x="50" y="1830" width="10" height="80" as="geometry" />
        </mxCell>
        <mxCell id="8OrpDrZAfpW0493N6n80-579" value="" style="html=1;points=[];perimeter=orthogonalPerimeter;outlineConnect=0;targetShapes=umlLifeline;portConstraint=eastwest;newEdgeStyle={&quot;edgeStyle&quot;:&quot;elbowEdgeStyle&quot;,&quot;elbow&quot;:&quot;vertical&quot;,&quot;curved&quot;:0,&quot;rounded&quot;:0};" vertex="1" parent="aM9ryv3xv72pqoxQDRHE-1">
          <mxGeometry x="50" y="1720" width="10" height="70" as="geometry" />
        </mxCell>
        <mxCell id="8OrpDrZAfpW0493N6n80-580" value="" style="html=1;points=[];perimeter=orthogonalPerimeter;outlineConnect=0;targetShapes=umlLifeline;portConstraint=eastwest;newEdgeStyle={&quot;edgeStyle&quot;:&quot;elbowEdgeStyle&quot;,&quot;elbow&quot;:&quot;vertical&quot;,&quot;curved&quot;:0,&quot;rounded&quot;:0};" vertex="1" parent="aM9ryv3xv72pqoxQDRHE-1">
          <mxGeometry x="50" y="1610" width="10" height="80" as="geometry" />
        </mxCell>
        <mxCell id="8OrpDrZAfpW0493N6n80-582" value="" style="html=1;points=[];perimeter=orthogonalPerimeter;outlineConnect=0;targetShapes=umlLifeline;portConstraint=eastwest;newEdgeStyle={&quot;edgeStyle&quot;:&quot;elbowEdgeStyle&quot;,&quot;elbow&quot;:&quot;vertical&quot;,&quot;curved&quot;:0,&quot;rounded&quot;:0};" vertex="1" parent="aM9ryv3xv72pqoxQDRHE-1">
          <mxGeometry x="50" y="1520" width="10" height="50" as="geometry" />
        </mxCell>
        <mxCell id="8OrpDrZAfpW0493N6n80-583" value="" style="html=1;points=[];perimeter=orthogonalPerimeter;outlineConnect=0;targetShapes=umlLifeline;portConstraint=eastwest;newEdgeStyle={&quot;edgeStyle&quot;:&quot;elbowEdgeStyle&quot;,&quot;elbow&quot;:&quot;vertical&quot;,&quot;curved&quot;:0,&quot;rounded&quot;:0};" vertex="1" parent="aM9ryv3xv72pqoxQDRHE-1">
          <mxGeometry x="50" y="1320" width="10" height="50" as="geometry" />
        </mxCell>
        <mxCell id="8OrpDrZAfpW0493N6n80-584" value="" style="html=1;points=[];perimeter=orthogonalPerimeter;outlineConnect=0;targetShapes=umlLifeline;portConstraint=eastwest;newEdgeStyle={&quot;edgeStyle&quot;:&quot;elbowEdgeStyle&quot;,&quot;elbow&quot;:&quot;vertical&quot;,&quot;curved&quot;:0,&quot;rounded&quot;:0};" vertex="1" parent="aM9ryv3xv72pqoxQDRHE-1">
          <mxGeometry x="50" y="1230" width="10" height="50" as="geometry" />
        </mxCell>
        <mxCell id="8OrpDrZAfpW0493N6n80-585" value="" style="html=1;points=[];perimeter=orthogonalPerimeter;outlineConnect=0;targetShapes=umlLifeline;portConstraint=eastwest;newEdgeStyle={&quot;edgeStyle&quot;:&quot;elbowEdgeStyle&quot;,&quot;elbow&quot;:&quot;vertical&quot;,&quot;curved&quot;:0,&quot;rounded&quot;:0};" vertex="1" parent="aM9ryv3xv72pqoxQDRHE-1">
          <mxGeometry x="50" y="1130" width="10" height="70" as="geometry" />
        </mxCell>
        <mxCell id="8OrpDrZAfpW0493N6n80-586" value="" style="html=1;points=[];perimeter=orthogonalPerimeter;outlineConnect=0;targetShapes=umlLifeline;portConstraint=eastwest;newEdgeStyle={&quot;edgeStyle&quot;:&quot;elbowEdgeStyle&quot;,&quot;elbow&quot;:&quot;vertical&quot;,&quot;curved&quot;:0,&quot;rounded&quot;:0};" vertex="1" parent="aM9ryv3xv72pqoxQDRHE-1">
          <mxGeometry x="50" y="1050" width="10" height="50" as="geometry" />
        </mxCell>
        <mxCell id="8OrpDrZAfpW0493N6n80-587" value="" style="html=1;points=[];perimeter=orthogonalPerimeter;outlineConnect=0;targetShapes=umlLifeline;portConstraint=eastwest;newEdgeStyle={&quot;edgeStyle&quot;:&quot;elbowEdgeStyle&quot;,&quot;elbow&quot;:&quot;vertical&quot;,&quot;curved&quot;:0,&quot;rounded&quot;:0};" vertex="1" parent="aM9ryv3xv72pqoxQDRHE-1">
          <mxGeometry x="50" y="890" width="10" height="110" as="geometry" />
        </mxCell>
        <mxCell id="8OrpDrZAfpW0493N6n80-588" value="" style="html=1;points=[];perimeter=orthogonalPerimeter;outlineConnect=0;targetShapes=umlLifeline;portConstraint=eastwest;newEdgeStyle={&quot;edgeStyle&quot;:&quot;elbowEdgeStyle&quot;,&quot;elbow&quot;:&quot;vertical&quot;,&quot;curved&quot;:0,&quot;rounded&quot;:0};" vertex="1" parent="aM9ryv3xv72pqoxQDRHE-1">
          <mxGeometry x="50" y="730" width="10" height="110" as="geometry" />
        </mxCell>
        <mxCell id="8OrpDrZAfpW0493N6n80-589" value="" style="html=1;points=[];perimeter=orthogonalPerimeter;outlineConnect=0;targetShapes=umlLifeline;portConstraint=eastwest;newEdgeStyle={&quot;edgeStyle&quot;:&quot;elbowEdgeStyle&quot;,&quot;elbow&quot;:&quot;vertical&quot;,&quot;curved&quot;:0,&quot;rounded&quot;:0};" vertex="1" parent="aM9ryv3xv72pqoxQDRHE-1">
          <mxGeometry x="50" y="610" width="10" height="90" as="geometry" />
        </mxCell>
        <mxCell id="8OrpDrZAfpW0493N6n80-590" value="" style="html=1;points=[];perimeter=orthogonalPerimeter;outlineConnect=0;targetShapes=umlLifeline;portConstraint=eastwest;newEdgeStyle={&quot;edgeStyle&quot;:&quot;elbowEdgeStyle&quot;,&quot;elbow&quot;:&quot;vertical&quot;,&quot;curved&quot;:0,&quot;rounded&quot;:0};" vertex="1" parent="aM9ryv3xv72pqoxQDRHE-1">
          <mxGeometry x="50" y="520" width="10" height="50" as="geometry" />
        </mxCell>
        <mxCell id="8OrpDrZAfpW0493N6n80-591" value="" style="html=1;points=[];perimeter=orthogonalPerimeter;outlineConnect=0;targetShapes=umlLifeline;portConstraint=eastwest;newEdgeStyle={&quot;edgeStyle&quot;:&quot;elbowEdgeStyle&quot;,&quot;elbow&quot;:&quot;vertical&quot;,&quot;curved&quot;:0,&quot;rounded&quot;:0};" vertex="1" parent="aM9ryv3xv72pqoxQDRHE-1">
          <mxGeometry x="50" y="420" width="10" height="60" as="geometry" />
        </mxCell>
        <mxCell id="8OrpDrZAfpW0493N6n80-592" value="" style="html=1;points=[];perimeter=orthogonalPerimeter;outlineConnect=0;targetShapes=umlLifeline;portConstraint=eastwest;newEdgeStyle={&quot;edgeStyle&quot;:&quot;elbowEdgeStyle&quot;,&quot;elbow&quot;:&quot;vertical&quot;,&quot;curved&quot;:0,&quot;rounded&quot;:0};" vertex="1" parent="aM9ryv3xv72pqoxQDRHE-1">
          <mxGeometry x="50" y="250" width="10" height="50" as="geometry" />
        </mxCell>
        <mxCell id="8OrpDrZAfpW0493N6n80-593" value="" style="html=1;points=[];perimeter=orthogonalPerimeter;outlineConnect=0;targetShapes=umlLifeline;portConstraint=eastwest;newEdgeStyle={&quot;edgeStyle&quot;:&quot;elbowEdgeStyle&quot;,&quot;elbow&quot;:&quot;vertical&quot;,&quot;curved&quot;:0,&quot;rounded&quot;:0};" vertex="1" parent="aM9ryv3xv72pqoxQDRHE-1">
          <mxGeometry x="50" y="170" width="10" height="40" as="geometry" />
        </mxCell>
        <mxCell id="8OrpDrZAfpW0493N6n80-594" value="" style="html=1;points=[];perimeter=orthogonalPerimeter;outlineConnect=0;targetShapes=umlLifeline;portConstraint=eastwest;newEdgeStyle={&quot;edgeStyle&quot;:&quot;elbowEdgeStyle&quot;,&quot;elbow&quot;:&quot;vertical&quot;,&quot;curved&quot;:0,&quot;rounded&quot;:0};" vertex="1" parent="aM9ryv3xv72pqoxQDRHE-1">
          <mxGeometry x="50" y="80" width="10" height="40" as="geometry" />
        </mxCell>
        <mxCell id="8OrpDrZAfpW0493N6n80-347" value="check information" style="html=1;verticalAlign=bottom;endArrow=block;edgeStyle=elbowEdgeStyle;elbow=vertical;curved=0;rounded=0;" edge="1" parent="1" target="8OrpDrZAfpW0493N6n80-348">
          <mxGeometry x="-0.1209" relative="1" as="geometry">
            <mxPoint x="210" y="1570" as="sourcePoint" />
            <Array as="points">
              <mxPoint x="369" y="1570" />
            </Array>
            <mxPoint x="820" y="1570" as="targetPoint" />
            <mxPoint as="offset" />
          </mxGeometry>
        </mxCell>
        <mxCell id="8OrpDrZAfpW0493N6n80-336" value="check if already premium, update information" style="html=1;verticalAlign=bottom;endArrow=block;edgeStyle=elbowEdgeStyle;elbow=vertical;curved=0;rounded=0;" edge="1" parent="1" target="8OrpDrZAfpW0493N6n80-17">
          <mxGeometry x="-0.1209" relative="1" as="geometry">
            <mxPoint x="210" y="1460" as="sourcePoint" />
            <Array as="points">
              <mxPoint x="369" y="1460" />
            </Array>
            <mxPoint x="410" y="1460" as="targetPoint" />
            <mxPoint as="offset" />
          </mxGeometry>
        </mxCell>
        <mxCell id="8OrpDrZAfpW0493N6n80-327" value="get checkout books history" style="html=1;verticalAlign=bottom;endArrow=block;edgeStyle=elbowEdgeStyle;elbow=vertical;curved=0;rounded=0;" edge="1" parent="1">
          <mxGeometry x="0.0025" relative="1" as="geometry">
            <mxPoint x="210" y="1370" as="sourcePoint" />
            <Array as="points">
              <mxPoint x="369" y="1370" />
            </Array>
            <mxPoint x="410" y="1370" as="targetPoint" />
            <mxPoint as="offset" />
          </mxGeometry>
        </mxCell>
        <mxCell id="8OrpDrZAfpW0493N6n80-311" value="get checkout books" style="html=1;verticalAlign=bottom;endArrow=block;edgeStyle=elbowEdgeStyle;elbow=vertical;curved=0;rounded=0;" edge="1" parent="1">
          <mxGeometry x="0.0025" relative="1" as="geometry">
            <mxPoint x="210" y="1280" as="sourcePoint" />
            <Array as="points">
              <mxPoint x="369" y="1280" />
            </Array>
            <mxPoint x="410" y="1280" as="targetPoint" />
            <mxPoint as="offset" />
          </mxGeometry>
        </mxCell>
        <mxCell id="8OrpDrZAfpW0493N6n80-308" value="dispatch" style="html=1;verticalAlign=bottom;endArrow=block;edgeStyle=elbowEdgeStyle;elbow=vertical;curved=0;rounded=0;" edge="1" parent="1">
          <mxGeometry relative="1" as="geometry">
            <mxPoint x="-50" y="1270" as="sourcePoint" />
            <Array as="points">
              <mxPoint x="109" y="1270" />
            </Array>
            <mxPoint x="204" y="1270" as="targetPoint" />
          </mxGeometry>
        </mxCell>
        <mxCell id="8OrpDrZAfpW0493N6n80-295" value="add request" style="html=1;verticalAlign=bottom;endArrow=block;edgeStyle=elbowEdgeStyle;elbow=vertical;curved=0;rounded=0;" edge="1" parent="1" target="8OrpDrZAfpW0493N6n80-364">
          <mxGeometry x="-0.7714" relative="1" as="geometry">
            <mxPoint x="210" y="1180" as="sourcePoint" />
            <Array as="points">
              <mxPoint x="369" y="1180" />
            </Array>
            <mxPoint x="800" y="1180" as="targetPoint" />
            <mxPoint as="offset" />
          </mxGeometry>
        </mxCell>
        <mxCell id="8OrpDrZAfpW0493N6n80-287" value="check checkout books" style="html=1;verticalAlign=bottom;endArrow=block;edgeStyle=elbowEdgeStyle;elbow=vertical;curved=0;rounded=0;" edge="1" parent="1" source="aM9ryv3xv72pqoxQDRHE-5">
          <mxGeometry x="0.0025" relative="1" as="geometry">
            <mxPoint x="210" y="1100" as="sourcePoint" />
            <Array as="points">
              <mxPoint x="369" y="1100" />
            </Array>
            <mxPoint x="410" y="1100" as="targetPoint" />
            <mxPoint as="offset" />
          </mxGeometry>
        </mxCell>
        <mxCell id="8OrpDrZAfpW0493N6n80-284" value="dispatch" style="html=1;verticalAlign=bottom;endArrow=block;edgeStyle=elbowEdgeStyle;elbow=vertical;curved=0;rounded=0;" edge="1" parent="1">
          <mxGeometry relative="1" as="geometry">
            <mxPoint x="-49" y="1090" as="sourcePoint" />
            <Array as="points">
              <mxPoint x="110" y="1090" />
            </Array>
            <mxPoint x="205" y="1090" as="targetPoint" />
          </mxGeometry>
        </mxCell>
        <mxCell id="8OrpDrZAfpW0493N6n80-279" value="update checkout books" style="html=1;verticalAlign=bottom;endArrow=block;edgeStyle=elbowEdgeStyle;elbow=vertical;curved=0;rounded=0;" edge="1" parent="1">
          <mxGeometry x="0.0025" relative="1" as="geometry">
            <mxPoint x="210" y="1000" as="sourcePoint" />
            <Array as="points">
              <mxPoint x="369" y="1000" />
            </Array>
            <mxPoint x="410" y="1000" as="targetPoint" />
            <mxPoint as="offset" />
          </mxGeometry>
        </mxCell>
        <mxCell id="8OrpDrZAfpW0493N6n80-265" value="dispatch" style="html=1;verticalAlign=bottom;endArrow=block;edgeStyle=elbowEdgeStyle;elbow=vertical;curved=0;rounded=0;" edge="1" parent="1">
          <mxGeometry relative="1" as="geometry">
            <mxPoint x="-50" y="930" as="sourcePoint" />
            <Array as="points">
              <mxPoint x="109" y="930" />
            </Array>
            <mxPoint x="204" y="930" as="targetPoint" />
          </mxGeometry>
        </mxCell>
        <mxCell id="8OrpDrZAfpW0493N6n80-249" value="dispatch" style="html=1;verticalAlign=bottom;endArrow=block;edgeStyle=elbowEdgeStyle;elbow=vertical;curved=0;rounded=0;" edge="1" parent="1">
          <mxGeometry relative="1" as="geometry">
            <mxPoint x="-50" y="770" as="sourcePoint" />
            <Array as="points">
              <mxPoint x="109" y="770" />
            </Array>
            <mxPoint x="204" y="770" as="targetPoint" />
          </mxGeometry>
        </mxCell>
        <mxCell id="8OrpDrZAfpW0493N6n80-259" value="update checkout books" style="html=1;verticalAlign=bottom;endArrow=block;edgeStyle=elbowEdgeStyle;elbow=vertical;curved=0;rounded=0;" edge="1" parent="1" target="8OrpDrZAfpW0493N6n80-181">
          <mxGeometry x="0.0025" relative="1" as="geometry">
            <mxPoint x="210" y="840" as="sourcePoint" />
            <Array as="points">
              <mxPoint x="369" y="840" />
            </Array>
            <mxPoint x="360" y="850" as="targetPoint" />
            <mxPoint as="offset" />
          </mxGeometry>
        </mxCell>
        <mxCell id="8OrpDrZAfpW0493N6n80-232" value="dispatch" style="html=1;verticalAlign=bottom;endArrow=block;edgeStyle=elbowEdgeStyle;elbow=vertical;curved=0;rounded=0;" edge="1" parent="1">
          <mxGeometry relative="1" as="geometry">
            <mxPoint x="-50" y="650" as="sourcePoint" />
            <Array as="points">
              <mxPoint x="109" y="650" />
            </Array>
            <mxPoint x="204" y="650" as="targetPoint" />
          </mxGeometry>
        </mxCell>
        <mxCell id="8OrpDrZAfpW0493N6n80-189" value="dispatch" style="html=1;verticalAlign=bottom;endArrow=block;edgeStyle=elbowEdgeStyle;elbow=vertical;curved=0;rounded=0;" edge="1" parent="1" target="aM9ryv3xv72pqoxQDRHE-5">
          <mxGeometry relative="1" as="geometry">
            <mxPoint x="-50" y="460" as="sourcePoint" />
            <Array as="points">
              <mxPoint x="115" y="460" />
            </Array>
            <mxPoint x="140" y="459.9999999999999" as="targetPoint" />
          </mxGeometry>
        </mxCell>
        <mxCell id="8OrpDrZAfpW0493N6n80-163" value="ask to change information" style="html=1;verticalAlign=bottom;endArrow=block;edgeStyle=elbowEdgeStyle;elbow=vertical;curved=0;rounded=0;" edge="1" parent="1" source="aM9ryv3xv72pqoxQDRHE-1">
          <mxGeometry x="0.3333" relative="1" as="geometry">
            <mxPoint x="-150" y="410" as="sourcePoint" />
            <Array as="points">
              <mxPoint x="-50" y="410" />
              <mxPoint x="-95" y="440" />
            </Array>
            <mxPoint x="-255" y="409.9999999999999" as="targetPoint" />
            <mxPoint as="offset" />
          </mxGeometry>
        </mxCell>
        <mxCell id="aM9ryv3xv72pqoxQDRHE-7" value="dispatch" style="html=1;verticalAlign=bottom;endArrow=block;edgeStyle=elbowEdgeStyle;elbow=vertical;curved=0;rounded=0;" edge="1" parent="1" source="aM9ryv3xv72pqoxQDRHE-2" target="aM9ryv3xv72pqoxQDRHE-6">
          <mxGeometry relative="1" as="geometry">
            <mxPoint x="195" y="130" as="sourcePoint" />
            <Array as="points">
              <mxPoint x="130" y="120" />
            </Array>
          </mxGeometry>
        </mxCell>
        <mxCell id="aM9ryv3xv72pqoxQDRHE-9" value="return" style="html=1;verticalAlign=bottom;endArrow=block;edgeStyle=elbowEdgeStyle;elbow=vertical;curved=0;rounded=0;dashed=1;" edge="1" parent="1" source="aM9ryv3xv72pqoxQDRHE-6" target="aM9ryv3xv72pqoxQDRHE-2">
          <mxGeometry relative="1" as="geometry">
            <mxPoint x="175" y="160" as="sourcePoint" />
            <Array as="points">
              <mxPoint x="190" y="160" />
            </Array>
            <mxPoint x="-40" y="160" as="targetPoint" />
          </mxGeometry>
        </mxCell>
        <mxCell id="8OrpDrZAfpW0493N6n80-1" value="Actor" style="shape=umlActor;verticalLabelPosition=bottom;verticalAlign=top;html=1;outlineConnect=0;" vertex="1" parent="1">
          <mxGeometry x="-285" y="20" width="50" height="50" as="geometry" />
        </mxCell>
        <mxCell id="8OrpDrZAfpW0493N6n80-2" value="" style="endArrow=none;dashed=1;html=1;dashPattern=1 3;strokeWidth=2;rounded=0;" edge="1" parent="1">
          <mxGeometry width="50" height="50" relative="1" as="geometry">
            <mxPoint x="-260" y="3000" as="sourcePoint" />
            <mxPoint x="-260" y="85.86" as="targetPoint" />
          </mxGeometry>
        </mxCell>
        <mxCell id="8OrpDrZAfpW0493N6n80-3" value="" style="endArrow=classic;html=1;rounded=0;" edge="1" parent="1" target="8OrpDrZAfpW0493N6n80-183">
          <mxGeometry width="50" height="50" relative="1" as="geometry">
            <mxPoint x="215.00000000000023" y="130" as="sourcePoint" />
            <mxPoint x="390" y="130" as="targetPoint" />
          </mxGeometry>
        </mxCell>
        <mxCell id="8OrpDrZAfpW0493N6n80-5" value="check information" style="edgeLabel;html=1;align=center;verticalAlign=middle;resizable=0;points=[];" connectable="0" vertex="1" parent="8OrpDrZAfpW0493N6n80-3">
          <mxGeometry x="-0.107" y="1" relative="1" as="geometry">
            <mxPoint x="9" y="-9" as="offset" />
          </mxGeometry>
        </mxCell>
        <mxCell id="8OrpDrZAfpW0493N6n80-4" value="" style="endArrow=classic;html=1;rounded=0;dashed=1;" edge="1" parent="1">
          <mxGeometry width="50" height="50" relative="1" as="geometry">
            <mxPoint x="405.0000000000002" y="150" as="sourcePoint" />
            <mxPoint x="220" y="150" as="targetPoint" />
          </mxGeometry>
        </mxCell>
        <mxCell id="8OrpDrZAfpW0493N6n80-27" value="return" style="edgeLabel;html=1;align=center;verticalAlign=middle;resizable=0;points=[];" connectable="0" vertex="1" parent="8OrpDrZAfpW0493N6n80-4">
          <mxGeometry x="-0.3962" y="-1" relative="1" as="geometry">
            <mxPoint x="-39" y="-9" as="offset" />
          </mxGeometry>
        </mxCell>
        <mxCell id="8OrpDrZAfpW0493N6n80-17" value=":PremiumAccount&lt;br&gt;Manager" style="shape=umlLifeline;perimeter=lifelinePerimeter;whiteSpace=wrap;html=1;container=0;dropTarget=0;collapsible=0;recursiveResize=0;outlineConnect=0;portConstraint=eastwest;newEdgeStyle={&quot;edgeStyle&quot;:&quot;elbowEdgeStyle&quot;,&quot;elbow&quot;:&quot;vertical&quot;,&quot;curved&quot;:0,&quot;rounded&quot;:0};" vertex="1" parent="1">
          <mxGeometry x="570" y="40" width="100" height="2960" as="geometry" />
        </mxCell>
        <mxCell id="8OrpDrZAfpW0493N6n80-337" value="" style="html=1;points=[];perimeter=orthogonalPerimeter;outlineConnect=0;targetShapes=umlLifeline;portConstraint=eastwest;newEdgeStyle={&quot;edgeStyle&quot;:&quot;elbowEdgeStyle&quot;,&quot;elbow&quot;:&quot;vertical&quot;,&quot;curved&quot;:0,&quot;rounded&quot;:0};" vertex="1" parent="8OrpDrZAfpW0493N6n80-17">
          <mxGeometry x="45" y="1420" width="10" height="30" as="geometry" />
        </mxCell>
        <mxCell id="8OrpDrZAfpW0493N6n80-420" value="" style="html=1;points=[];perimeter=orthogonalPerimeter;outlineConnect=0;targetShapes=umlLifeline;portConstraint=eastwest;newEdgeStyle={&quot;edgeStyle&quot;:&quot;elbowEdgeStyle&quot;,&quot;elbow&quot;:&quot;vertical&quot;,&quot;curved&quot;:0,&quot;rounded&quot;:0};" vertex="1" parent="8OrpDrZAfpW0493N6n80-17">
          <mxGeometry x="45" y="1860" width="10" height="20" as="geometry" />
        </mxCell>
        <mxCell id="8OrpDrZAfpW0493N6n80-450" value="" style="html=1;points=[];perimeter=orthogonalPerimeter;outlineConnect=0;targetShapes=umlLifeline;portConstraint=eastwest;newEdgeStyle={&quot;edgeStyle&quot;:&quot;elbowEdgeStyle&quot;,&quot;elbow&quot;:&quot;vertical&quot;,&quot;curved&quot;:0,&quot;rounded&quot;:0};" vertex="1" parent="8OrpDrZAfpW0493N6n80-17">
          <mxGeometry x="45" y="2070" width="10" height="20" as="geometry" />
        </mxCell>
        <mxCell id="8OrpDrZAfpW0493N6n80-478" value="" style="html=1;points=[];perimeter=orthogonalPerimeter;outlineConnect=0;targetShapes=umlLifeline;portConstraint=eastwest;newEdgeStyle={&quot;edgeStyle&quot;:&quot;elbowEdgeStyle&quot;,&quot;elbow&quot;:&quot;vertical&quot;,&quot;curved&quot;:0,&quot;rounded&quot;:0};" vertex="1" parent="8OrpDrZAfpW0493N6n80-17">
          <mxGeometry x="45" y="2310" width="10" height="20" as="geometry" />
        </mxCell>
        <mxCell id="8OrpDrZAfpW0493N6n80-490" value="" style="html=1;points=[];perimeter=orthogonalPerimeter;outlineConnect=0;targetShapes=umlLifeline;portConstraint=eastwest;newEdgeStyle={&quot;edgeStyle&quot;:&quot;elbowEdgeStyle&quot;,&quot;elbow&quot;:&quot;vertical&quot;,&quot;curved&quot;:0,&quot;rounded&quot;:0};" vertex="1" parent="8OrpDrZAfpW0493N6n80-17">
          <mxGeometry x="45" y="2410" width="10" height="20" as="geometry" />
        </mxCell>
        <mxCell id="8OrpDrZAfpW0493N6n80-548" value="" style="html=1;points=[];perimeter=orthogonalPerimeter;outlineConnect=0;targetShapes=umlLifeline;portConstraint=eastwest;newEdgeStyle={&quot;edgeStyle&quot;:&quot;elbowEdgeStyle&quot;,&quot;elbow&quot;:&quot;vertical&quot;,&quot;curved&quot;:0,&quot;rounded&quot;:0};" vertex="1" parent="8OrpDrZAfpW0493N6n80-17">
          <mxGeometry x="45" y="2760" width="10" height="20" as="geometry" />
        </mxCell>
        <mxCell id="8OrpDrZAfpW0493N6n80-93" value=":Librarian" style="whiteSpace=wrap;html=1;" vertex="1" parent="1">
          <mxGeometry x="800" y="40" width="100" height="40" as="geometry" />
        </mxCell>
        <mxCell id="8OrpDrZAfpW0493N6n80-101" value="" style="endArrow=none;dashed=1;html=1;rounded=0;entryX=0.5;entryY=1;entryDx=0;entryDy=0;" edge="1" parent="1" target="8OrpDrZAfpW0493N6n80-93">
          <mxGeometry width="50" height="50" relative="1" as="geometry">
            <mxPoint x="850" y="310" as="sourcePoint" />
            <mxPoint x="850" y="70" as="targetPoint" />
          </mxGeometry>
        </mxCell>
        <mxCell id="8OrpDrZAfpW0493N6n80-105" value="click create account button" style="html=1;verticalAlign=bottom;startArrow=oval;endArrow=block;startSize=8;edgeStyle=elbowEdgeStyle;elbow=vertical;curved=0;rounded=0;" edge="1" parent="1" target="8OrpDrZAfpW0493N6n80-106">
          <mxGeometry relative="1" as="geometry">
            <mxPoint x="-260" y="199.93" as="sourcePoint" />
            <mxPoint x="-100" y="200" as="targetPoint" />
          </mxGeometry>
        </mxCell>
        <mxCell id="8OrpDrZAfpW0493N6n80-108" value="return" style="html=1;verticalAlign=bottom;endArrow=block;edgeStyle=elbowEdgeStyle;elbow=vertical;curved=0;rounded=0;dashed=1;" edge="1" parent="1" source="aM9ryv3xv72pqoxQDRHE-5">
          <mxGeometry relative="1" as="geometry">
            <mxPoint x="195" y="250" as="sourcePoint" />
            <Array as="points">
              <mxPoint x="190" y="250" />
            </Array>
            <mxPoint x="-45" y="250" as="targetPoint" />
          </mxGeometry>
        </mxCell>
        <mxCell id="8OrpDrZAfpW0493N6n80-109" value="dispatch" style="html=1;verticalAlign=bottom;endArrow=block;edgeStyle=elbowEdgeStyle;elbow=vertical;curved=0;rounded=0;" edge="1" parent="1" target="aM9ryv3xv72pqoxQDRHE-5">
          <mxGeometry relative="1" as="geometry">
            <mxPoint x="-45" y="209.66" as="sourcePoint" />
            <Array as="points">
              <mxPoint x="130" y="209.66" />
            </Array>
            <mxPoint x="195" y="209.66" as="targetPoint" />
          </mxGeometry>
        </mxCell>
        <mxCell id="8OrpDrZAfpW0493N6n80-112" value="" style="endArrow=classic;html=1;rounded=0;dashed=1;" edge="1" parent="1">
          <mxGeometry width="50" height="50" relative="1" as="geometry">
            <mxPoint x="409.5000000000002" y="240" as="sourcePoint" />
            <mxPoint x="220" y="240" as="targetPoint" />
          </mxGeometry>
        </mxCell>
        <mxCell id="8OrpDrZAfpW0493N6n80-113" value="return" style="edgeLabel;html=1;align=center;verticalAlign=middle;resizable=0;points=[];" connectable="0" vertex="1" parent="8OrpDrZAfpW0493N6n80-112">
          <mxGeometry x="-0.3962" y="-1" relative="1" as="geometry">
            <mxPoint x="-42" y="-9" as="offset" />
          </mxGeometry>
        </mxCell>
        <mxCell id="8OrpDrZAfpW0493N6n80-115" value="" style="endArrow=classic;html=1;rounded=0;" edge="1" parent="1" target="8OrpDrZAfpW0493N6n80-185">
          <mxGeometry width="50" height="50" relative="1" as="geometry">
            <mxPoint x="210.00000000000023" y="220" as="sourcePoint" />
            <mxPoint x="380" y="220" as="targetPoint" />
          </mxGeometry>
        </mxCell>
        <mxCell id="8OrpDrZAfpW0493N6n80-116" value="add information" style="edgeLabel;html=1;align=center;verticalAlign=middle;resizable=0;points=[];" connectable="0" vertex="1" parent="8OrpDrZAfpW0493N6n80-115">
          <mxGeometry x="-0.107" y="1" relative="1" as="geometry">
            <mxPoint x="9" y="-9" as="offset" />
          </mxGeometry>
        </mxCell>
        <mxCell id="8OrpDrZAfpW0493N6n80-117" value=":Library" style="whiteSpace=wrap;html=1;" vertex="1" parent="1">
          <mxGeometry x="1040" y="40" width="100" height="40" as="geometry" />
        </mxCell>
        <mxCell id="8OrpDrZAfpW0493N6n80-118" value="" style="endArrow=none;dashed=1;html=1;rounded=0;entryX=0.5;entryY=1;entryDx=0;entryDy=0;" edge="1" parent="1">
          <mxGeometry width="50" height="50" relative="1" as="geometry">
            <mxPoint x="1090" y="120" as="sourcePoint" />
            <mxPoint x="1090" y="80" as="targetPoint" />
          </mxGeometry>
        </mxCell>
        <mxCell id="8OrpDrZAfpW0493N6n80-119" value=":Book" style="whiteSpace=wrap;html=1;" vertex="1" parent="1">
          <mxGeometry x="1280" y="40" width="100" height="40" as="geometry" />
        </mxCell>
        <mxCell id="8OrpDrZAfpW0493N6n80-120" value="" style="endArrow=none;dashed=1;html=1;rounded=0;entryX=0.5;entryY=1;entryDx=0;entryDy=0;" edge="1" parent="1" source="8OrpDrZAfpW0493N6n80-275">
          <mxGeometry width="50" height="50" relative="1" as="geometry">
            <mxPoint x="1330" y="1300.6896551724137" as="sourcePoint" />
            <mxPoint x="1330" y="80" as="targetPoint" />
          </mxGeometry>
        </mxCell>
        <mxCell id="8OrpDrZAfpW0493N6n80-123" value="" style="endArrow=none;dashed=1;html=1;rounded=0;" edge="1" parent="1">
          <mxGeometry width="50" height="50" relative="1" as="geometry">
            <mxPoint x="850" y="994" as="sourcePoint" />
            <mxPoint x="849.66" y="300" as="targetPoint" />
          </mxGeometry>
        </mxCell>
        <mxCell id="8OrpDrZAfpW0493N6n80-124" value="click terminate account button" style="html=1;verticalAlign=bottom;startArrow=oval;endArrow=block;startSize=8;edgeStyle=elbowEdgeStyle;elbow=vertical;curved=0;rounded=0;" edge="1" parent="1">
          <mxGeometry relative="1" as="geometry">
            <mxPoint x="-260" y="279.66" as="sourcePoint" />
            <mxPoint x="-55" y="280" as="targetPoint" />
          </mxGeometry>
        </mxCell>
        <mxCell id="8OrpDrZAfpW0493N6n80-141" value="dispatch" style="html=1;verticalAlign=bottom;endArrow=block;edgeStyle=elbowEdgeStyle;elbow=vertical;curved=0;rounded=0;" edge="1" parent="1" source="8OrpDrZAfpW0493N6n80-125" target="8OrpDrZAfpW0493N6n80-143">
          <mxGeometry relative="1" as="geometry">
            <mxPoint x="-40" y="290" as="sourcePoint" />
            <Array as="points">
              <mxPoint x="115" y="290" />
            </Array>
            <mxPoint x="195" y="290.34000000000003" as="targetPoint" />
          </mxGeometry>
        </mxCell>
        <mxCell id="8OrpDrZAfpW0493N6n80-142" value="return" style="html=1;verticalAlign=bottom;endArrow=block;edgeStyle=elbowEdgeStyle;elbow=vertical;curved=0;rounded=0;dashed=1;" edge="1" parent="1">
          <mxGeometry relative="1" as="geometry">
            <mxPoint x="210" y="340" as="sourcePoint" />
            <Array as="points">
              <mxPoint x="190" y="340" />
            </Array>
            <mxPoint x="-45" y="340" as="targetPoint" />
          </mxGeometry>
        </mxCell>
        <mxCell id="8OrpDrZAfpW0493N6n80-144" value="" style="html=1;points=[];perimeter=orthogonalPerimeter;outlineConnect=0;targetShapes=umlLifeline;portConstraint=eastwest;newEdgeStyle={&quot;edgeStyle&quot;:&quot;elbowEdgeStyle&quot;,&quot;elbow&quot;:&quot;vertical&quot;,&quot;curved&quot;:0,&quot;rounded&quot;:0};" vertex="1" parent="1">
          <mxGeometry x="210" y="220" width="10" height="20" as="geometry" />
        </mxCell>
        <mxCell id="8OrpDrZAfpW0493N6n80-147" value="" style="endArrow=classic;html=1;rounded=0;dashed=1;" edge="1" parent="1">
          <mxGeometry width="50" height="50" relative="1" as="geometry">
            <mxPoint x="410" y="330" as="sourcePoint" />
            <mxPoint x="220" y="330" as="targetPoint" />
          </mxGeometry>
        </mxCell>
        <mxCell id="8OrpDrZAfpW0493N6n80-148" value="return" style="edgeLabel;html=1;align=center;verticalAlign=middle;resizable=0;points=[];" connectable="0" vertex="1" parent="8OrpDrZAfpW0493N6n80-147">
          <mxGeometry x="-0.3962" y="-1" relative="1" as="geometry">
            <mxPoint x="-43" y="-9" as="offset" />
          </mxGeometry>
        </mxCell>
        <mxCell id="8OrpDrZAfpW0493N6n80-149" value="" style="endArrow=classic;html=1;rounded=0;" edge="1" parent="1" target="8OrpDrZAfpW0493N6n80-187">
          <mxGeometry width="50" height="50" relative="1" as="geometry">
            <mxPoint x="210.00000000000023" y="300" as="sourcePoint" />
            <mxPoint x="380" y="300" as="targetPoint" />
          </mxGeometry>
        </mxCell>
        <mxCell id="8OrpDrZAfpW0493N6n80-150" value="delete information" style="edgeLabel;html=1;align=center;verticalAlign=middle;resizable=0;points=[];" connectable="0" vertex="1" parent="8OrpDrZAfpW0493N6n80-149">
          <mxGeometry x="-0.107" y="1" relative="1" as="geometry">
            <mxPoint x="9" y="-9" as="offset" />
          </mxGeometry>
        </mxCell>
        <mxCell id="8OrpDrZAfpW0493N6n80-151" value="click change account information button" style="html=1;verticalAlign=bottom;startArrow=oval;endArrow=block;startSize=8;edgeStyle=elbowEdgeStyle;elbow=vertical;curved=0;rounded=0;" edge="1" parent="1">
          <mxGeometry relative="1" as="geometry">
            <mxPoint x="-260" y="360" as="sourcePoint" />
            <mxPoint x="-55" y="360.34000000000003" as="targetPoint" />
          </mxGeometry>
        </mxCell>
        <mxCell id="8OrpDrZAfpW0493N6n80-157" value="dispatch" style="html=1;verticalAlign=bottom;endArrow=block;edgeStyle=elbowEdgeStyle;elbow=vertical;curved=0;rounded=0;" edge="1" parent="1">
          <mxGeometry relative="1" as="geometry">
            <mxPoint x="-50" y="370" as="sourcePoint" />
            <Array as="points">
              <mxPoint x="125" y="370" />
            </Array>
            <mxPoint x="205" y="370.34000000000003" as="targetPoint" />
          </mxGeometry>
        </mxCell>
        <mxCell id="8OrpDrZAfpW0493N6n80-159" value="ask to change information" style="html=1;verticalAlign=bottom;endArrow=block;edgeStyle=elbowEdgeStyle;elbow=vertical;curved=0;rounded=0;" edge="1" parent="1" target="8OrpDrZAfpW0493N6n80-156">
          <mxGeometry relative="1" as="geometry">
            <mxPoint x="200" y="400" as="sourcePoint" />
            <Array as="points">
              <mxPoint x="210" y="400" />
              <mxPoint x="215" y="430" />
            </Array>
            <mxPoint x="-20" y="390" as="targetPoint" />
          </mxGeometry>
        </mxCell>
        <mxCell id="8OrpDrZAfpW0493N6n80-164" value="" style="html=1;points=[];perimeter=orthogonalPerimeter;outlineConnect=0;targetShapes=umlLifeline;portConstraint=eastwest;newEdgeStyle={&quot;edgeStyle&quot;:&quot;elbowEdgeStyle&quot;,&quot;elbow&quot;:&quot;vertical&quot;,&quot;curved&quot;:0,&quot;rounded&quot;:0};" vertex="1" parent="1">
          <mxGeometry x="-50" y="370" width="10" height="30" as="geometry" />
        </mxCell>
        <mxCell id="8OrpDrZAfpW0493N6n80-175" value="" style="html=1;points=[];perimeter=orthogonalPerimeter;outlineConnect=0;targetShapes=umlLifeline;portConstraint=eastwest;newEdgeStyle={&quot;edgeStyle&quot;:&quot;elbowEdgeStyle&quot;,&quot;elbow&quot;:&quot;vertical&quot;,&quot;curved&quot;:0,&quot;rounded&quot;:0};" vertex="1" parent="1">
          <mxGeometry x="-265" y="410" width="10" height="40" as="geometry" />
        </mxCell>
        <mxCell id="8OrpDrZAfpW0493N6n80-179" value="enter inew information" style="html=1;verticalAlign=bottom;endArrow=block;edgeStyle=elbowEdgeStyle;elbow=vertical;curved=0;rounded=0;" edge="1" parent="1">
          <mxGeometry relative="1" as="geometry">
            <mxPoint x="-255" y="450" as="sourcePoint" />
            <Array as="points">
              <mxPoint x="-80" y="450" />
            </Array>
            <mxPoint x="-55" y="449.9999999999999" as="targetPoint" />
          </mxGeometry>
        </mxCell>
        <mxCell id="8OrpDrZAfpW0493N6n80-181" value=":AccountManager" style="shape=umlLifeline;perimeter=lifelinePerimeter;whiteSpace=wrap;html=1;container=0;dropTarget=0;collapsible=0;recursiveResize=0;outlineConnect=0;portConstraint=eastwest;newEdgeStyle={&quot;edgeStyle&quot;:&quot;elbowEdgeStyle&quot;,&quot;elbow&quot;:&quot;vertical&quot;,&quot;curved&quot;:0,&quot;rounded&quot;:0};" vertex="1" parent="1">
          <mxGeometry x="360" y="40" width="100" height="2960" as="geometry" />
        </mxCell>
        <mxCell id="8OrpDrZAfpW0493N6n80-183" value="" style="html=1;points=[];perimeter=orthogonalPerimeter;outlineConnect=0;targetShapes=umlLifeline;portConstraint=eastwest;newEdgeStyle={&quot;edgeStyle&quot;:&quot;elbowEdgeStyle&quot;,&quot;elbow&quot;:&quot;vertical&quot;,&quot;curved&quot;:0,&quot;rounded&quot;:0};direction=east;flipH=1;flipV=0;" vertex="1" parent="8OrpDrZAfpW0493N6n80-181">
          <mxGeometry x="45" y="90" width="10" height="20" as="geometry" />
        </mxCell>
        <mxCell id="8OrpDrZAfpW0493N6n80-185" value="" style="html=1;points=[];perimeter=orthogonalPerimeter;outlineConnect=0;targetShapes=umlLifeline;portConstraint=eastwest;newEdgeStyle={&quot;edgeStyle&quot;:&quot;elbowEdgeStyle&quot;,&quot;elbow&quot;:&quot;vertical&quot;,&quot;curved&quot;:0,&quot;rounded&quot;:0};" vertex="1" parent="8OrpDrZAfpW0493N6n80-181">
          <mxGeometry x="45" y="180" width="10" height="20" as="geometry" />
        </mxCell>
        <mxCell id="8OrpDrZAfpW0493N6n80-187" value="" style="html=1;points=[];perimeter=orthogonalPerimeter;outlineConnect=0;targetShapes=umlLifeline;portConstraint=eastwest;newEdgeStyle={&quot;edgeStyle&quot;:&quot;elbowEdgeStyle&quot;,&quot;elbow&quot;:&quot;vertical&quot;,&quot;curved&quot;:0,&quot;rounded&quot;:0};" vertex="1" parent="8OrpDrZAfpW0493N6n80-181">
          <mxGeometry x="45" y="260" width="10" height="30" as="geometry" />
        </mxCell>
        <mxCell id="8OrpDrZAfpW0493N6n80-196" value="" style="html=1;points=[];perimeter=orthogonalPerimeter;outlineConnect=0;targetShapes=umlLifeline;portConstraint=eastwest;newEdgeStyle={&quot;edgeStyle&quot;:&quot;elbowEdgeStyle&quot;,&quot;elbow&quot;:&quot;vertical&quot;,&quot;curved&quot;:0,&quot;rounded&quot;:0};" vertex="1" parent="8OrpDrZAfpW0493N6n80-181">
          <mxGeometry x="45" y="430" width="10" height="30" as="geometry" />
        </mxCell>
        <mxCell id="8OrpDrZAfpW0493N6n80-228" value="" style="html=1;points=[];perimeter=orthogonalPerimeter;outlineConnect=0;targetShapes=umlLifeline;portConstraint=eastwest;newEdgeStyle={&quot;edgeStyle&quot;:&quot;elbowEdgeStyle&quot;,&quot;elbow&quot;:&quot;vertical&quot;,&quot;curved&quot;:0,&quot;rounded&quot;:0};" vertex="1" parent="8OrpDrZAfpW0493N6n80-181">
          <mxGeometry x="45" y="530" width="10" height="30" as="geometry" />
        </mxCell>
        <mxCell id="8OrpDrZAfpW0493N6n80-260" value="" style="html=1;points=[];perimeter=orthogonalPerimeter;outlineConnect=0;targetShapes=umlLifeline;portConstraint=eastwest;newEdgeStyle={&quot;edgeStyle&quot;:&quot;elbowEdgeStyle&quot;,&quot;elbow&quot;:&quot;vertical&quot;,&quot;curved&quot;:0,&quot;rounded&quot;:0};" vertex="1" parent="8OrpDrZAfpW0493N6n80-181">
          <mxGeometry x="45" y="800" width="10" height="20" as="geometry" />
        </mxCell>
        <mxCell id="8OrpDrZAfpW0493N6n80-280" value="" style="html=1;points=[];perimeter=orthogonalPerimeter;outlineConnect=0;targetShapes=umlLifeline;portConstraint=eastwest;newEdgeStyle={&quot;edgeStyle&quot;:&quot;elbowEdgeStyle&quot;,&quot;elbow&quot;:&quot;vertical&quot;,&quot;curved&quot;:0,&quot;rounded&quot;:0};" vertex="1" parent="8OrpDrZAfpW0493N6n80-181">
          <mxGeometry x="45" y="960" width="10" height="20" as="geometry" />
        </mxCell>
        <mxCell id="8OrpDrZAfpW0493N6n80-288" value="" style="html=1;points=[];perimeter=orthogonalPerimeter;outlineConnect=0;targetShapes=umlLifeline;portConstraint=eastwest;newEdgeStyle={&quot;edgeStyle&quot;:&quot;elbowEdgeStyle&quot;,&quot;elbow&quot;:&quot;vertical&quot;,&quot;curved&quot;:0,&quot;rounded&quot;:0};" vertex="1" parent="8OrpDrZAfpW0493N6n80-181">
          <mxGeometry x="45" y="1060" width="10" height="20" as="geometry" />
        </mxCell>
        <mxCell id="8OrpDrZAfpW0493N6n80-313" value="" style="html=1;points=[];perimeter=orthogonalPerimeter;outlineConnect=0;targetShapes=umlLifeline;portConstraint=eastwest;newEdgeStyle={&quot;edgeStyle&quot;:&quot;elbowEdgeStyle&quot;,&quot;elbow&quot;:&quot;vertical&quot;,&quot;curved&quot;:0,&quot;rounded&quot;:0};" vertex="1" parent="8OrpDrZAfpW0493N6n80-181">
          <mxGeometry x="45" y="1240" width="10" height="20" as="geometry" />
        </mxCell>
        <mxCell id="8OrpDrZAfpW0493N6n80-329" value="" style="html=1;points=[];perimeter=orthogonalPerimeter;outlineConnect=0;targetShapes=umlLifeline;portConstraint=eastwest;newEdgeStyle={&quot;edgeStyle&quot;:&quot;elbowEdgeStyle&quot;,&quot;elbow&quot;:&quot;vertical&quot;,&quot;curved&quot;:0,&quot;rounded&quot;:0};" vertex="1" parent="8OrpDrZAfpW0493N6n80-181">
          <mxGeometry x="45" y="1330" width="10" height="20" as="geometry" />
        </mxCell>
        <mxCell id="8OrpDrZAfpW0493N6n80-422" value="" style="html=1;points=[];perimeter=orthogonalPerimeter;outlineConnect=0;targetShapes=umlLifeline;portConstraint=eastwest;newEdgeStyle={&quot;edgeStyle&quot;:&quot;elbowEdgeStyle&quot;,&quot;elbow&quot;:&quot;vertical&quot;,&quot;curved&quot;:0,&quot;rounded&quot;:0};" vertex="1" parent="8OrpDrZAfpW0493N6n80-181">
          <mxGeometry x="45" y="1880" width="10" height="20" as="geometry" />
        </mxCell>
        <mxCell id="8OrpDrZAfpW0493N6n80-438" value="" style="html=1;points=[];perimeter=orthogonalPerimeter;outlineConnect=0;targetShapes=umlLifeline;portConstraint=eastwest;newEdgeStyle={&quot;edgeStyle&quot;:&quot;elbowEdgeStyle&quot;,&quot;elbow&quot;:&quot;vertical&quot;,&quot;curved&quot;:0,&quot;rounded&quot;:0};" vertex="1" parent="8OrpDrZAfpW0493N6n80-181">
          <mxGeometry x="45" y="1970" width="10" height="20" as="geometry" />
        </mxCell>
        <mxCell id="8OrpDrZAfpW0493N6n80-453" value="" style="html=1;points=[];perimeter=orthogonalPerimeter;outlineConnect=0;targetShapes=umlLifeline;portConstraint=eastwest;newEdgeStyle={&quot;edgeStyle&quot;:&quot;elbowEdgeStyle&quot;,&quot;elbow&quot;:&quot;vertical&quot;,&quot;curved&quot;:0,&quot;rounded&quot;:0};" vertex="1" parent="8OrpDrZAfpW0493N6n80-181">
          <mxGeometry x="45" y="2090" width="10" height="40" as="geometry" />
        </mxCell>
        <mxCell id="8OrpDrZAfpW0493N6n80-495" value="" style="html=1;points=[];perimeter=orthogonalPerimeter;outlineConnect=0;targetShapes=umlLifeline;portConstraint=eastwest;newEdgeStyle={&quot;edgeStyle&quot;:&quot;elbowEdgeStyle&quot;,&quot;elbow&quot;:&quot;vertical&quot;,&quot;curved&quot;:0,&quot;rounded&quot;:0};" vertex="1" parent="8OrpDrZAfpW0493N6n80-181">
          <mxGeometry x="45" y="2430" width="10" height="20" as="geometry" />
        </mxCell>
        <mxCell id="8OrpDrZAfpW0493N6n80-532" value="" style="html=1;points=[];perimeter=orthogonalPerimeter;outlineConnect=0;targetShapes=umlLifeline;portConstraint=eastwest;newEdgeStyle={&quot;edgeStyle&quot;:&quot;elbowEdgeStyle&quot;,&quot;elbow&quot;:&quot;vertical&quot;,&quot;curved&quot;:0,&quot;rounded&quot;:0};" vertex="1" parent="8OrpDrZAfpW0493N6n80-181">
          <mxGeometry x="45" y="2690" width="10" height="20" as="geometry" />
        </mxCell>
        <mxCell id="8OrpDrZAfpW0493N6n80-192" value="return" style="html=1;verticalAlign=bottom;endArrow=block;edgeStyle=elbowEdgeStyle;elbow=vertical;curved=0;rounded=0;dashed=1;" edge="1" parent="1">
          <mxGeometry relative="1" as="geometry">
            <mxPoint x="205" y="520" as="sourcePoint" />
            <Array as="points">
              <mxPoint x="185" y="520" />
            </Array>
            <mxPoint x="-45" y="519.9999999999999" as="targetPoint" />
          </mxGeometry>
        </mxCell>
        <mxCell id="8OrpDrZAfpW0493N6n80-194" value="change information" style="html=1;verticalAlign=bottom;endArrow=block;edgeStyle=elbowEdgeStyle;elbow=vertical;curved=0;rounded=0;" edge="1" parent="1" target="8OrpDrZAfpW0493N6n80-181">
          <mxGeometry relative="1" as="geometry">
            <mxPoint x="210" y="470" as="sourcePoint" />
            <Array as="points">
              <mxPoint x="375" y="470" />
            </Array>
            <mxPoint x="390" y="470" as="targetPoint" />
          </mxGeometry>
        </mxCell>
        <mxCell id="8OrpDrZAfpW0493N6n80-195" value="return" style="html=1;verticalAlign=bottom;endArrow=block;edgeStyle=elbowEdgeStyle;elbow=vertical;curved=0;rounded=0;dashed=1;" edge="1" parent="1" source="8OrpDrZAfpW0493N6n80-181">
          <mxGeometry relative="1" as="geometry">
            <mxPoint x="390" y="500" as="sourcePoint" />
            <Array as="points">
              <mxPoint x="370" y="500" />
            </Array>
            <mxPoint x="220" y="500" as="targetPoint" />
          </mxGeometry>
        </mxCell>
        <mxCell id="8OrpDrZAfpW0493N6n80-197" value="click show log in information" style="html=1;verticalAlign=bottom;startArrow=oval;endArrow=block;startSize=8;edgeStyle=elbowEdgeStyle;elbow=vertical;curved=0;rounded=0;" edge="1" parent="1" target="aM9ryv3xv72pqoxQDRHE-1">
          <mxGeometry relative="1" as="geometry">
            <mxPoint x="-260" y="550" as="sourcePoint" />
            <mxPoint x="-80" y="550" as="targetPoint" />
            <Array as="points">
              <mxPoint x="-70" y="550" />
              <mxPoint x="-260" y="550" />
            </Array>
          </mxGeometry>
        </mxCell>
        <mxCell id="8OrpDrZAfpW0493N6n80-222" value="dispatch" style="html=1;verticalAlign=bottom;endArrow=block;edgeStyle=elbowEdgeStyle;elbow=vertical;curved=0;rounded=0;" edge="1" parent="1" source="8OrpDrZAfpW0493N6n80-221" target="aM9ryv3xv72pqoxQDRHE-5">
          <mxGeometry relative="1" as="geometry">
            <mxPoint x="-30" y="560" as="sourcePoint" />
            <Array as="points">
              <mxPoint x="115" y="560" />
            </Array>
            <mxPoint x="190" y="560" as="targetPoint" />
          </mxGeometry>
        </mxCell>
        <mxCell id="8OrpDrZAfpW0493N6n80-223" value="return" style="html=1;verticalAlign=bottom;endArrow=block;edgeStyle=elbowEdgeStyle;elbow=vertical;curved=0;rounded=0;dashed=1;" edge="1" parent="1" target="aM9ryv3xv72pqoxQDRHE-1">
          <mxGeometry relative="1" as="geometry">
            <mxPoint x="210" y="610" as="sourcePoint" />
            <Array as="points">
              <mxPoint x="190" y="610" />
            </Array>
            <mxPoint x="-20" y="610" as="targetPoint" />
          </mxGeometry>
        </mxCell>
        <mxCell id="8OrpDrZAfpW0493N6n80-226" value="get information" style="html=1;verticalAlign=bottom;endArrow=block;edgeStyle=elbowEdgeStyle;elbow=vertical;curved=0;rounded=0;" edge="1" parent="1" target="8OrpDrZAfpW0493N6n80-181">
          <mxGeometry relative="1" as="geometry">
            <mxPoint x="210" y="569.66" as="sourcePoint" />
            <Array as="points">
              <mxPoint x="375" y="569.66" />
            </Array>
            <mxPoint x="380" y="570" as="targetPoint" />
          </mxGeometry>
        </mxCell>
        <mxCell id="8OrpDrZAfpW0493N6n80-227" value="return" style="html=1;verticalAlign=bottom;endArrow=block;edgeStyle=elbowEdgeStyle;elbow=vertical;curved=0;rounded=0;dashed=1;" edge="1" parent="1">
          <mxGeometry relative="1" as="geometry">
            <mxPoint x="410" y="600" as="sourcePoint" />
            <Array as="points">
              <mxPoint x="370" y="600" />
            </Array>
            <mxPoint x="220" y="600" as="targetPoint" />
          </mxGeometry>
        </mxCell>
        <mxCell id="8OrpDrZAfpW0493N6n80-230" value="search book" style="html=1;verticalAlign=bottom;startArrow=oval;endArrow=block;startSize=8;edgeStyle=elbowEdgeStyle;elbow=vertical;curved=0;rounded=0;entryX=0.5;entryY=0;entryDx=0;entryDy=0;entryPerimeter=0;" edge="1" parent="1" target="8OrpDrZAfpW0493N6n80-231">
          <mxGeometry relative="1" as="geometry">
            <mxPoint x="-260" y="640" as="sourcePoint" />
            <mxPoint x="-60" y="640" as="targetPoint" />
            <Array as="points">
              <mxPoint x="-70" y="640" />
              <mxPoint x="-260" y="640" />
            </Array>
          </mxGeometry>
        </mxCell>
        <mxCell id="8OrpDrZAfpW0493N6n80-233" value="return" style="html=1;verticalAlign=bottom;endArrow=block;edgeStyle=elbowEdgeStyle;elbow=vertical;curved=0;rounded=0;dashed=1;" edge="1" parent="1">
          <mxGeometry relative="1" as="geometry">
            <mxPoint x="210" y="740" as="sourcePoint" />
            <Array as="points">
              <mxPoint x="190" y="740" />
            </Array>
            <mxPoint x="-50" y="740" as="targetPoint" />
          </mxGeometry>
        </mxCell>
        <mxCell id="8OrpDrZAfpW0493N6n80-236" value="get information" style="html=1;verticalAlign=bottom;endArrow=block;edgeStyle=elbowEdgeStyle;elbow=vertical;curved=0;rounded=0;entryX=0.5;entryY=0;entryDx=0;entryDy=0;entryPerimeter=0;" edge="1" parent="1" target="8OrpDrZAfpW0493N6n80-239">
          <mxGeometry x="-0.75" relative="1" as="geometry">
            <mxPoint x="210" y="660" as="sourcePoint" />
            <Array as="points">
              <mxPoint x="375" y="660" />
            </Array>
            <mxPoint x="1040" y="660" as="targetPoint" />
            <mxPoint as="offset" />
          </mxGeometry>
        </mxCell>
        <mxCell id="8OrpDrZAfpW0493N6n80-237" value="" style="endArrow=none;dashed=1;html=1;rounded=0;entryX=0.5;entryY=1;entryDx=0;entryDy=0;" edge="1" parent="1" source="8OrpDrZAfpW0493N6n80-239">
          <mxGeometry width="50" height="50" relative="1" as="geometry">
            <mxPoint x="1090" y="985.5172413793103" as="sourcePoint" />
            <mxPoint x="1090" y="80" as="targetPoint" />
          </mxGeometry>
        </mxCell>
        <mxCell id="8OrpDrZAfpW0493N6n80-240" value="" style="endArrow=none;dashed=1;html=1;rounded=0;entryX=0.5;entryY=1;entryDx=0;entryDy=0;" edge="1" parent="1" source="8OrpDrZAfpW0493N6n80-270" target="8OrpDrZAfpW0493N6n80-239">
          <mxGeometry width="50" height="50" relative="1" as="geometry">
            <mxPoint x="1090" y="985.5172413793103" as="sourcePoint" />
            <mxPoint x="1090" y="80" as="targetPoint" />
          </mxGeometry>
        </mxCell>
        <mxCell id="8OrpDrZAfpW0493N6n80-239" value="" style="html=1;points=[];perimeter=orthogonalPerimeter;outlineConnect=0;targetShapes=umlLifeline;portConstraint=eastwest;newEdgeStyle={&quot;edgeStyle&quot;:&quot;elbowEdgeStyle&quot;,&quot;elbow&quot;:&quot;vertical&quot;,&quot;curved&quot;:0,&quot;rounded&quot;:0};" vertex="1" parent="1">
          <mxGeometry x="1085" y="660" width="10" height="60" as="geometry" />
        </mxCell>
        <mxCell id="8OrpDrZAfpW0493N6n80-241" value="" style="html=1;points=[];perimeter=orthogonalPerimeter;outlineConnect=0;targetShapes=umlLifeline;portConstraint=eastwest;newEdgeStyle={&quot;edgeStyle&quot;:&quot;elbowEdgeStyle&quot;,&quot;elbow&quot;:&quot;vertical&quot;,&quot;curved&quot;:0,&quot;rounded&quot;:0};" vertex="1" parent="1">
          <mxGeometry x="1090" y="670" width="10" height="40" as="geometry" />
        </mxCell>
        <mxCell id="8OrpDrZAfpW0493N6n80-242" value="get information" style="html=1;verticalAlign=bottom;endArrow=block;edgeStyle=elbowEdgeStyle;elbow=vertical;curved=0;rounded=0;" edge="1" parent="1" target="8OrpDrZAfpW0493N6n80-243">
          <mxGeometry relative="1" as="geometry">
            <mxPoint x="1095" y="670" as="sourcePoint" />
            <Array as="points">
              <mxPoint x="1260" y="670" />
            </Array>
            <mxPoint x="1295" y="670.34" as="targetPoint" />
          </mxGeometry>
        </mxCell>
        <mxCell id="8OrpDrZAfpW0493N6n80-243" value="" style="html=1;points=[];perimeter=orthogonalPerimeter;outlineConnect=0;targetShapes=umlLifeline;portConstraint=eastwest;newEdgeStyle={&quot;edgeStyle&quot;:&quot;elbowEdgeStyle&quot;,&quot;elbow&quot;:&quot;vertical&quot;,&quot;curved&quot;:0,&quot;rounded&quot;:0};" vertex="1" parent="1">
          <mxGeometry x="1325" y="670" width="10" height="40" as="geometry" />
        </mxCell>
        <mxCell id="8OrpDrZAfpW0493N6n80-244" value="return" style="html=1;verticalAlign=bottom;endArrow=block;edgeStyle=elbowEdgeStyle;elbow=vertical;curved=0;rounded=0;dashed=1;" edge="1" parent="1" target="8OrpDrZAfpW0493N6n80-241">
          <mxGeometry relative="1" as="geometry">
            <mxPoint x="1325" y="709.31" as="sourcePoint" />
            <Array as="points">
              <mxPoint x="1285" y="709.31" />
            </Array>
            <mxPoint x="1135" y="709.31" as="targetPoint" />
          </mxGeometry>
        </mxCell>
        <mxCell id="8OrpDrZAfpW0493N6n80-245" value="return" style="html=1;verticalAlign=bottom;endArrow=block;edgeStyle=elbowEdgeStyle;elbow=vertical;curved=0;rounded=0;dashed=1;" edge="1" parent="1" target="8OrpDrZAfpW0493N6n80-235">
          <mxGeometry relative="1" as="geometry">
            <mxPoint x="1085" y="720" as="sourcePoint" />
            <Array as="points">
              <mxPoint x="1045" y="720" />
            </Array>
            <mxPoint x="480" y="730" as="targetPoint" />
          </mxGeometry>
        </mxCell>
        <mxCell id="8OrpDrZAfpW0493N6n80-246" value="check out" style="html=1;verticalAlign=bottom;startArrow=oval;endArrow=block;startSize=8;edgeStyle=elbowEdgeStyle;elbow=vertical;curved=0;rounded=0;entryX=0.5;entryY=0;entryDx=0;entryDy=0;entryPerimeter=0;" edge="1" parent="1">
          <mxGeometry relative="1" as="geometry">
            <mxPoint x="-260" y="760" as="sourcePoint" />
            <mxPoint x="-50" y="760" as="targetPoint" />
            <Array as="points">
              <mxPoint x="-70" y="760" />
              <mxPoint x="-260" y="760" />
            </Array>
          </mxGeometry>
        </mxCell>
        <mxCell id="8OrpDrZAfpW0493N6n80-252" value="get book" style="html=1;verticalAlign=bottom;endArrow=block;edgeStyle=elbowEdgeStyle;elbow=vertical;curved=0;rounded=0;entryX=0.5;entryY=0;entryDx=0;entryDy=0;entryPerimeter=0;" edge="1" parent="1">
          <mxGeometry x="-0.75" relative="1" as="geometry">
            <mxPoint x="210" y="780" as="sourcePoint" />
            <Array as="points">
              <mxPoint x="375" y="780" />
            </Array>
            <mxPoint x="1090" y="780" as="targetPoint" />
            <mxPoint as="offset" />
          </mxGeometry>
        </mxCell>
        <mxCell id="8OrpDrZAfpW0493N6n80-253" value="" style="html=1;points=[];perimeter=orthogonalPerimeter;outlineConnect=0;targetShapes=umlLifeline;portConstraint=eastwest;newEdgeStyle={&quot;edgeStyle&quot;:&quot;elbowEdgeStyle&quot;,&quot;elbow&quot;:&quot;vertical&quot;,&quot;curved&quot;:0,&quot;rounded&quot;:0};" vertex="1" parent="1">
          <mxGeometry x="1087.5" y="780" width="10" height="40" as="geometry" />
        </mxCell>
        <mxCell id="8OrpDrZAfpW0493N6n80-254" value="" style="html=1;points=[];perimeter=orthogonalPerimeter;outlineConnect=0;targetShapes=umlLifeline;portConstraint=eastwest;newEdgeStyle={&quot;edgeStyle&quot;:&quot;elbowEdgeStyle&quot;,&quot;elbow&quot;:&quot;vertical&quot;,&quot;curved&quot;:0,&quot;rounded&quot;:0};" vertex="1" parent="1">
          <mxGeometry x="1092.5" y="790" width="10" height="20" as="geometry" />
        </mxCell>
        <mxCell id="8OrpDrZAfpW0493N6n80-255" value="get book information" style="html=1;verticalAlign=bottom;endArrow=block;edgeStyle=elbowEdgeStyle;elbow=vertical;curved=0;rounded=0;" edge="1" parent="1">
          <mxGeometry relative="1" as="geometry">
            <mxPoint x="1092.5" y="790" as="sourcePoint" />
            <Array as="points">
              <mxPoint x="1257.5" y="790" />
            </Array>
            <mxPoint x="1322.5" y="790" as="targetPoint" />
          </mxGeometry>
        </mxCell>
        <mxCell id="8OrpDrZAfpW0493N6n80-256" value="" style="html=1;points=[];perimeter=orthogonalPerimeter;outlineConnect=0;targetShapes=umlLifeline;portConstraint=eastwest;newEdgeStyle={&quot;edgeStyle&quot;:&quot;elbowEdgeStyle&quot;,&quot;elbow&quot;:&quot;vertical&quot;,&quot;curved&quot;:0,&quot;rounded&quot;:0};" vertex="1" parent="1">
          <mxGeometry x="1325" y="790" width="10" height="20" as="geometry" />
        </mxCell>
        <mxCell id="8OrpDrZAfpW0493N6n80-257" value="return" style="html=1;verticalAlign=bottom;endArrow=block;edgeStyle=elbowEdgeStyle;elbow=vertical;curved=0;rounded=0;dashed=1;" edge="1" parent="1">
          <mxGeometry relative="1" as="geometry">
            <mxPoint x="1327.5" y="810.31" as="sourcePoint" />
            <Array as="points">
              <mxPoint x="1287.5" y="810.31" />
            </Array>
            <mxPoint x="1102.5" y="810" as="targetPoint" />
          </mxGeometry>
        </mxCell>
        <mxCell id="8OrpDrZAfpW0493N6n80-258" value="return" style="html=1;verticalAlign=bottom;endArrow=block;edgeStyle=elbowEdgeStyle;elbow=vertical;curved=0;rounded=0;dashed=1;" edge="1" parent="1" target="aM9ryv3xv72pqoxQDRHE-5">
          <mxGeometry relative="1" as="geometry">
            <mxPoint x="1085" y="820.31" as="sourcePoint" />
            <Array as="points">
              <mxPoint x="1045" y="820.31" />
            </Array>
            <mxPoint x="560" y="830" as="targetPoint" />
          </mxGeometry>
        </mxCell>
        <mxCell id="8OrpDrZAfpW0493N6n80-261" value="return" style="html=1;verticalAlign=bottom;endArrow=block;edgeStyle=elbowEdgeStyle;elbow=vertical;curved=0;rounded=0;dashed=1;" edge="1" parent="1" target="8OrpDrZAfpW0493N6n80-398">
          <mxGeometry relative="1" as="geometry">
            <mxPoint x="410" y="860" as="sourcePoint" />
            <Array as="points">
              <mxPoint x="390" y="860" />
            </Array>
            <mxPoint x="230" y="860" as="targetPoint" />
          </mxGeometry>
        </mxCell>
        <mxCell id="8OrpDrZAfpW0493N6n80-262" value="return" style="html=1;verticalAlign=bottom;endArrow=block;edgeStyle=elbowEdgeStyle;elbow=vertical;curved=0;rounded=0;dashed=1;" edge="1" parent="1" target="aM9ryv3xv72pqoxQDRHE-1">
          <mxGeometry relative="1" as="geometry">
            <mxPoint x="210" y="870" as="sourcePoint" />
            <Array as="points">
              <mxPoint x="180" y="880" />
              <mxPoint x="210" y="870" />
            </Array>
            <mxPoint x="-30" y="870" as="targetPoint" />
          </mxGeometry>
        </mxCell>
        <mxCell id="8OrpDrZAfpW0493N6n80-263" value="return book" style="html=1;verticalAlign=bottom;startArrow=oval;endArrow=block;startSize=8;edgeStyle=elbowEdgeStyle;elbow=vertical;curved=0;rounded=0;entryX=0.5;entryY=0;entryDx=0;entryDy=0;entryPerimeter=0;" edge="1" parent="1">
          <mxGeometry x="-0.0016" relative="1" as="geometry">
            <mxPoint x="-260" y="920" as="sourcePoint" />
            <mxPoint x="-50" y="920" as="targetPoint" />
            <Array as="points">
              <mxPoint x="-70" y="920" />
              <mxPoint x="-260" y="920" />
            </Array>
            <mxPoint as="offset" />
          </mxGeometry>
        </mxCell>
        <mxCell id="8OrpDrZAfpW0493N6n80-266" value="return" style="html=1;verticalAlign=bottom;endArrow=block;edgeStyle=elbowEdgeStyle;elbow=vertical;curved=0;rounded=0;dashed=1;" edge="1" parent="1">
          <mxGeometry relative="1" as="geometry">
            <mxPoint x="210" y="1040" as="sourcePoint" />
            <Array as="points">
              <mxPoint x="180" y="1040" />
              <mxPoint x="210" y="1030" />
            </Array>
            <mxPoint x="-50" y="1040" as="targetPoint" />
          </mxGeometry>
        </mxCell>
        <mxCell id="8OrpDrZAfpW0493N6n80-269" value="check book" style="html=1;verticalAlign=bottom;endArrow=block;edgeStyle=elbowEdgeStyle;elbow=vertical;curved=0;rounded=0;entryX=0.5;entryY=0;entryDx=0;entryDy=0;entryPerimeter=0;" edge="1" parent="1">
          <mxGeometry x="-0.75" relative="1" as="geometry">
            <mxPoint x="207.5" y="940" as="sourcePoint" />
            <Array as="points">
              <mxPoint x="372.5" y="940" />
            </Array>
            <mxPoint x="1087.5" y="940" as="targetPoint" />
            <mxPoint as="offset" />
          </mxGeometry>
        </mxCell>
        <mxCell id="8OrpDrZAfpW0493N6n80-271" value="" style="endArrow=none;dashed=1;html=1;rounded=0;entryX=0.5;entryY=1;entryDx=0;entryDy=0;" edge="1" parent="1" target="8OrpDrZAfpW0493N6n80-270">
          <mxGeometry width="50" height="50" relative="1" as="geometry">
            <mxPoint x="1090" y="1220" as="sourcePoint" />
            <mxPoint x="1090" y="720" as="targetPoint" />
          </mxGeometry>
        </mxCell>
        <mxCell id="8OrpDrZAfpW0493N6n80-270" value="" style="html=1;points=[];perimeter=orthogonalPerimeter;outlineConnect=0;targetShapes=umlLifeline;portConstraint=eastwest;newEdgeStyle={&quot;edgeStyle&quot;:&quot;elbowEdgeStyle&quot;,&quot;elbow&quot;:&quot;vertical&quot;,&quot;curved&quot;:0,&quot;rounded&quot;:0};" vertex="1" parent="1">
          <mxGeometry x="1085" y="940" width="10" height="40" as="geometry" />
        </mxCell>
        <mxCell id="8OrpDrZAfpW0493N6n80-272" value="" style="html=1;points=[];perimeter=orthogonalPerimeter;outlineConnect=0;targetShapes=umlLifeline;portConstraint=eastwest;newEdgeStyle={&quot;edgeStyle&quot;:&quot;elbowEdgeStyle&quot;,&quot;elbow&quot;:&quot;vertical&quot;,&quot;curved&quot;:0,&quot;rounded&quot;:0};" vertex="1" parent="1">
          <mxGeometry x="1090" y="950" width="10" height="20" as="geometry" />
        </mxCell>
        <mxCell id="8OrpDrZAfpW0493N6n80-273" value="get book information" style="html=1;verticalAlign=bottom;endArrow=block;edgeStyle=elbowEdgeStyle;elbow=vertical;curved=0;rounded=0;" edge="1" parent="1">
          <mxGeometry relative="1" as="geometry">
            <mxPoint x="1092.5" y="790" as="sourcePoint" />
            <Array as="points">
              <mxPoint x="1257.5" y="790" />
            </Array>
            <mxPoint x="1322.5" y="790" as="targetPoint" />
          </mxGeometry>
        </mxCell>
        <mxCell id="8OrpDrZAfpW0493N6n80-274" value="check book information" style="html=1;verticalAlign=bottom;endArrow=block;edgeStyle=elbowEdgeStyle;elbow=vertical;curved=0;rounded=0;" edge="1" parent="1">
          <mxGeometry relative="1" as="geometry">
            <mxPoint x="1100" y="950" as="sourcePoint" />
            <Array as="points">
              <mxPoint x="1265" y="950" />
            </Array>
            <mxPoint x="1330" y="950" as="targetPoint" />
          </mxGeometry>
        </mxCell>
        <mxCell id="8OrpDrZAfpW0493N6n80-276" value="" style="endArrow=none;dashed=1;html=1;rounded=0;entryX=0.5;entryY=1;entryDx=0;entryDy=0;" edge="1" parent="1" target="8OrpDrZAfpW0493N6n80-275">
          <mxGeometry width="50" height="50" relative="1" as="geometry">
            <mxPoint x="1330" y="1210" as="sourcePoint" />
            <mxPoint x="1330" y="80" as="targetPoint" />
          </mxGeometry>
        </mxCell>
        <mxCell id="8OrpDrZAfpW0493N6n80-275" value="" style="html=1;points=[];perimeter=orthogonalPerimeter;outlineConnect=0;targetShapes=umlLifeline;portConstraint=eastwest;newEdgeStyle={&quot;edgeStyle&quot;:&quot;elbowEdgeStyle&quot;,&quot;elbow&quot;:&quot;vertical&quot;,&quot;curved&quot;:0,&quot;rounded&quot;:0};" vertex="1" parent="1">
          <mxGeometry x="1325" y="950" width="10" height="20" as="geometry" />
        </mxCell>
        <mxCell id="8OrpDrZAfpW0493N6n80-277" value="return" style="html=1;verticalAlign=bottom;endArrow=block;edgeStyle=elbowEdgeStyle;elbow=vertical;curved=0;rounded=0;dashed=1;" edge="1" parent="1">
          <mxGeometry relative="1" as="geometry">
            <mxPoint x="1325" y="970.31" as="sourcePoint" />
            <Array as="points">
              <mxPoint x="1285" y="970.31" />
            </Array>
            <mxPoint x="1100" y="970" as="targetPoint" />
          </mxGeometry>
        </mxCell>
        <mxCell id="8OrpDrZAfpW0493N6n80-278" value="return" style="html=1;verticalAlign=bottom;endArrow=block;edgeStyle=elbowEdgeStyle;elbow=vertical;curved=0;rounded=0;dashed=1;" edge="1" parent="1">
          <mxGeometry relative="1" as="geometry">
            <mxPoint x="1095" y="980.31" as="sourcePoint" />
            <Array as="points">
              <mxPoint x="1055" y="980.31" />
            </Array>
            <mxPoint x="220" y="980" as="targetPoint" />
          </mxGeometry>
        </mxCell>
        <mxCell id="8OrpDrZAfpW0493N6n80-281" value="return" style="html=1;verticalAlign=bottom;endArrow=block;edgeStyle=elbowEdgeStyle;elbow=vertical;curved=0;rounded=0;dashed=1;" edge="1" parent="1" target="8OrpDrZAfpW0493N6n80-397">
          <mxGeometry relative="1" as="geometry">
            <mxPoint x="410" y="1020" as="sourcePoint" />
            <Array as="points">
              <mxPoint x="390" y="1020" />
            </Array>
            <mxPoint x="230" y="1020" as="targetPoint" />
          </mxGeometry>
        </mxCell>
        <mxCell id="8OrpDrZAfpW0493N6n80-282" value="request extention" style="html=1;verticalAlign=bottom;startArrow=oval;endArrow=block;startSize=8;edgeStyle=elbowEdgeStyle;elbow=vertical;curved=0;rounded=0;entryX=0.5;entryY=0;entryDx=0;entryDy=0;entryPerimeter=0;" edge="1" parent="1">
          <mxGeometry x="-0.0016" relative="1" as="geometry">
            <mxPoint x="-260" y="1080" as="sourcePoint" />
            <mxPoint x="-50" y="1080" as="targetPoint" />
            <Array as="points">
              <mxPoint x="-70" y="1080" />
              <mxPoint x="-260" y="1080" />
            </Array>
            <mxPoint as="offset" />
          </mxGeometry>
        </mxCell>
        <mxCell id="8OrpDrZAfpW0493N6n80-289" value="return" style="html=1;verticalAlign=bottom;endArrow=block;edgeStyle=elbowEdgeStyle;elbow=vertical;curved=0;rounded=0;dashed=1;" edge="1" parent="1" target="8OrpDrZAfpW0493N6n80-396">
          <mxGeometry relative="1" as="geometry">
            <mxPoint x="410" y="1120" as="sourcePoint" />
            <Array as="points">
              <mxPoint x="390" y="1120" />
            </Array>
            <mxPoint x="230" y="1120" as="targetPoint" />
          </mxGeometry>
        </mxCell>
        <mxCell id="8OrpDrZAfpW0493N6n80-290" value="return" style="html=1;verticalAlign=bottom;endArrow=block;edgeStyle=elbowEdgeStyle;elbow=vertical;curved=0;rounded=0;dashed=1;" edge="1" parent="1" target="aM9ryv3xv72pqoxQDRHE-1">
          <mxGeometry relative="1" as="geometry">
            <mxPoint x="210" y="1140" as="sourcePoint" />
            <Array as="points">
              <mxPoint x="190" y="1140" />
            </Array>
            <mxPoint x="10" y="1140" as="targetPoint" />
          </mxGeometry>
        </mxCell>
        <mxCell id="8OrpDrZAfpW0493N6n80-291" value="request book" style="html=1;verticalAlign=bottom;startArrow=oval;endArrow=block;startSize=8;edgeStyle=elbowEdgeStyle;elbow=vertical;curved=0;rounded=0;entryX=0.5;entryY=0;entryDx=0;entryDy=0;entryPerimeter=0;" edge="1" parent="1">
          <mxGeometry x="-0.0016" relative="1" as="geometry">
            <mxPoint x="-255" y="1160" as="sourcePoint" />
            <mxPoint x="-45" y="1160" as="targetPoint" />
            <Array as="points">
              <mxPoint x="-65" y="1160" />
              <mxPoint x="-255" y="1160" />
            </Array>
            <mxPoint as="offset" />
          </mxGeometry>
        </mxCell>
        <mxCell id="8OrpDrZAfpW0493N6n80-292" value="dispatch" style="html=1;verticalAlign=bottom;endArrow=block;edgeStyle=elbowEdgeStyle;elbow=vertical;curved=0;rounded=0;" edge="1" parent="1">
          <mxGeometry relative="1" as="geometry">
            <mxPoint x="-44" y="1170" as="sourcePoint" />
            <Array as="points">
              <mxPoint x="115" y="1170" />
            </Array>
            <mxPoint x="210" y="1170" as="targetPoint" />
          </mxGeometry>
        </mxCell>
        <mxCell id="8OrpDrZAfpW0493N6n80-298" value="" style="endArrow=none;dashed=1;html=1;rounded=0;" edge="1" parent="1">
          <mxGeometry width="50" height="50" relative="1" as="geometry">
            <mxPoint x="1090" y="1551.3793103448277" as="sourcePoint" />
            <mxPoint x="1090" y="1220" as="targetPoint" />
          </mxGeometry>
        </mxCell>
        <mxCell id="8OrpDrZAfpW0493N6n80-301" value="return" style="html=1;verticalAlign=bottom;endArrow=block;edgeStyle=elbowEdgeStyle;elbow=vertical;curved=0;rounded=0;dashed=1;" edge="1" parent="1" target="8OrpDrZAfpW0493N6n80-294">
          <mxGeometry relative="1" as="geometry">
            <mxPoint x="840" y="1220" as="sourcePoint" />
            <Array as="points">
              <mxPoint x="850" y="1220" />
            </Array>
            <mxPoint x="222.5" y="1220" as="targetPoint" />
          </mxGeometry>
        </mxCell>
        <mxCell id="8OrpDrZAfpW0493N6n80-302" value="return" style="html=1;verticalAlign=bottom;endArrow=block;edgeStyle=elbowEdgeStyle;elbow=vertical;curved=0;rounded=0;dashed=1;" edge="1" parent="1">
          <mxGeometry relative="1" as="geometry">
            <mxPoint x="210" y="1240" as="sourcePoint" />
            <Array as="points">
              <mxPoint x="190" y="1240" />
            </Array>
            <mxPoint x="-50" y="1240" as="targetPoint" />
          </mxGeometry>
        </mxCell>
        <mxCell id="8OrpDrZAfpW0493N6n80-303" value="" style="endArrow=none;dashed=1;html=1;rounded=0;" edge="1" parent="1" source="8OrpDrZAfpW0493N6n80-364">
          <mxGeometry width="50" height="50" relative="1" as="geometry">
            <mxPoint x="850" y="2308" as="sourcePoint" />
            <mxPoint x="850" y="830" as="targetPoint" />
          </mxGeometry>
        </mxCell>
        <mxCell id="8OrpDrZAfpW0493N6n80-306" value="check checkout book" style="html=1;verticalAlign=bottom;startArrow=oval;endArrow=block;startSize=8;edgeStyle=elbowEdgeStyle;elbow=vertical;curved=0;rounded=0;entryX=0.5;entryY=0;entryDx=0;entryDy=0;entryPerimeter=0;" edge="1" parent="1">
          <mxGeometry x="-0.0016" relative="1" as="geometry">
            <mxPoint x="-260" y="1260" as="sourcePoint" />
            <mxPoint x="-50" y="1260" as="targetPoint" />
            <Array as="points">
              <mxPoint x="-70" y="1260" />
              <mxPoint x="-260" y="1260" />
            </Array>
            <mxPoint as="offset" />
          </mxGeometry>
        </mxCell>
        <mxCell id="8OrpDrZAfpW0493N6n80-310" value="return" style="html=1;verticalAlign=bottom;endArrow=block;edgeStyle=elbowEdgeStyle;elbow=vertical;curved=0;rounded=0;dashed=1;" edge="1" parent="1">
          <mxGeometry relative="1" as="geometry">
            <mxPoint x="210" y="1320" as="sourcePoint" />
            <Array as="points">
              <mxPoint x="190" y="1320" />
            </Array>
            <mxPoint x="-50" y="1320" as="targetPoint" />
          </mxGeometry>
        </mxCell>
        <mxCell id="8OrpDrZAfpW0493N6n80-312" value="return" style="html=1;verticalAlign=bottom;endArrow=block;edgeStyle=elbowEdgeStyle;elbow=vertical;curved=0;rounded=0;dashed=1;" edge="1" parent="1">
          <mxGeometry relative="1" as="geometry">
            <mxPoint x="420" y="1300" as="sourcePoint" />
            <Array as="points">
              <mxPoint x="400" y="1300" />
            </Array>
            <mxPoint x="220" y="1300" as="targetPoint" />
          </mxGeometry>
        </mxCell>
        <mxCell id="8OrpDrZAfpW0493N6n80-322" value="check checkout book history" style="html=1;verticalAlign=bottom;startArrow=oval;endArrow=block;startSize=8;edgeStyle=elbowEdgeStyle;elbow=vertical;curved=0;rounded=0;entryX=0.5;entryY=0;entryDx=0;entryDy=0;entryPerimeter=0;" edge="1" parent="1">
          <mxGeometry x="-0.0016" relative="1" as="geometry">
            <mxPoint x="-260" y="1350" as="sourcePoint" />
            <mxPoint x="-50" y="1350" as="targetPoint" />
            <Array as="points">
              <mxPoint x="-70" y="1350" />
              <mxPoint x="-260" y="1350" />
            </Array>
            <mxPoint as="offset" />
          </mxGeometry>
        </mxCell>
        <mxCell id="8OrpDrZAfpW0493N6n80-325" value="dispatch" style="html=1;verticalAlign=bottom;endArrow=block;edgeStyle=elbowEdgeStyle;elbow=vertical;curved=0;rounded=0;" edge="1" parent="1">
          <mxGeometry relative="1" as="geometry">
            <mxPoint x="-44" y="1360" as="sourcePoint" />
            <Array as="points">
              <mxPoint x="115" y="1360" />
            </Array>
            <mxPoint x="210" y="1360" as="targetPoint" />
          </mxGeometry>
        </mxCell>
        <mxCell id="8OrpDrZAfpW0493N6n80-326" value="return" style="html=1;verticalAlign=bottom;endArrow=block;edgeStyle=elbowEdgeStyle;elbow=vertical;curved=0;rounded=0;dashed=1;" edge="1" parent="1">
          <mxGeometry relative="1" as="geometry">
            <mxPoint x="210" y="1410" as="sourcePoint" />
            <Array as="points">
              <mxPoint x="190" y="1410" />
            </Array>
            <mxPoint x="-50" y="1410" as="targetPoint" />
          </mxGeometry>
        </mxCell>
        <mxCell id="8OrpDrZAfpW0493N6n80-328" value="return" style="html=1;verticalAlign=bottom;endArrow=block;edgeStyle=elbowEdgeStyle;elbow=vertical;curved=0;rounded=0;dashed=1;" edge="1" parent="1">
          <mxGeometry relative="1" as="geometry">
            <mxPoint x="410" y="1390" as="sourcePoint" />
            <Array as="points">
              <mxPoint x="390" y="1390" />
            </Array>
            <mxPoint x="220" y="1390" as="targetPoint" />
          </mxGeometry>
        </mxCell>
        <mxCell id="8OrpDrZAfpW0493N6n80-330" value="buy premium" style="html=1;verticalAlign=bottom;startArrow=oval;endArrow=block;startSize=8;edgeStyle=elbowEdgeStyle;elbow=vertical;curved=0;rounded=0;entryX=0.5;entryY=0;entryDx=0;entryDy=0;entryPerimeter=0;" edge="1" parent="1">
          <mxGeometry x="-0.0016" relative="1" as="geometry">
            <mxPoint x="-260" y="1440" as="sourcePoint" />
            <mxPoint x="-50" y="1440" as="targetPoint" />
            <Array as="points">
              <mxPoint x="-70" y="1440" />
              <mxPoint x="-260" y="1440" />
            </Array>
            <mxPoint as="offset" />
          </mxGeometry>
        </mxCell>
        <mxCell id="8OrpDrZAfpW0493N6n80-332" value="dispatch" style="html=1;verticalAlign=bottom;endArrow=block;edgeStyle=elbowEdgeStyle;elbow=vertical;curved=0;rounded=0;" edge="1" parent="1">
          <mxGeometry relative="1" as="geometry">
            <mxPoint x="-44" y="1450" as="sourcePoint" />
            <Array as="points">
              <mxPoint x="115" y="1450" />
            </Array>
            <mxPoint x="210" y="1450" as="targetPoint" />
          </mxGeometry>
        </mxCell>
        <mxCell id="8OrpDrZAfpW0493N6n80-334" value="return" style="html=1;verticalAlign=bottom;endArrow=block;edgeStyle=elbowEdgeStyle;elbow=vertical;curved=0;rounded=0;dashed=1;" edge="1" parent="1">
          <mxGeometry relative="1" as="geometry">
            <mxPoint x="210" y="1500" as="sourcePoint" />
            <Array as="points">
              <mxPoint x="190" y="1500" />
            </Array>
            <mxPoint x="-50" y="1500" as="targetPoint" />
          </mxGeometry>
        </mxCell>
        <mxCell id="8OrpDrZAfpW0493N6n80-335" value="get checkout books history" style="html=1;verticalAlign=bottom;endArrow=block;edgeStyle=elbowEdgeStyle;elbow=vertical;curved=0;rounded=0;" edge="1" parent="1">
          <mxGeometry x="0.0025" relative="1" as="geometry">
            <mxPoint x="210" y="1370" as="sourcePoint" />
            <Array as="points">
              <mxPoint x="369" y="1370" />
            </Array>
            <mxPoint x="410" y="1370" as="targetPoint" />
            <mxPoint as="offset" />
          </mxGeometry>
        </mxCell>
        <mxCell id="8OrpDrZAfpW0493N6n80-338" value="return" style="html=1;verticalAlign=bottom;endArrow=block;edgeStyle=elbowEdgeStyle;elbow=vertical;curved=0;rounded=0;dashed=1;" edge="1" parent="1" target="8OrpDrZAfpW0493N6n80-333">
          <mxGeometry x="-0.0617" relative="1" as="geometry">
            <mxPoint x="620" y="1490" as="sourcePoint" />
            <Array as="points">
              <mxPoint x="560.17" y="1490" />
              <mxPoint x="615.17" y="1490" />
            </Array>
            <mxPoint x="220.00333333333325" y="1490" as="targetPoint" />
            <mxPoint as="offset" />
          </mxGeometry>
        </mxCell>
        <mxCell id="8OrpDrZAfpW0493N6n80-339" value="click log in button" style="html=1;verticalAlign=bottom;startArrow=oval;endArrow=block;startSize=8;edgeStyle=elbowEdgeStyle;elbow=vertical;curved=0;rounded=0;entryX=0.5;entryY=0;entryDx=0;entryDy=0;entryPerimeter=0;" edge="1" parent="1">
          <mxGeometry x="-0.0016" relative="1" as="geometry">
            <mxPoint x="-260" y="1550" as="sourcePoint" />
            <mxPoint x="-50" y="1550" as="targetPoint" />
            <Array as="points">
              <mxPoint x="-70" y="1550" />
              <mxPoint x="-260" y="1550" />
            </Array>
            <mxPoint as="offset" />
          </mxGeometry>
        </mxCell>
        <mxCell id="8OrpDrZAfpW0493N6n80-341" value="dispatch" style="html=1;verticalAlign=bottom;endArrow=block;edgeStyle=elbowEdgeStyle;elbow=vertical;curved=0;rounded=0;" edge="1" parent="1">
          <mxGeometry relative="1" as="geometry">
            <mxPoint x="-44" y="1560" as="sourcePoint" />
            <Array as="points">
              <mxPoint x="115" y="1560" />
            </Array>
            <mxPoint x="210" y="1560" as="targetPoint" />
          </mxGeometry>
        </mxCell>
        <mxCell id="8OrpDrZAfpW0493N6n80-342" value="return" style="html=1;verticalAlign=bottom;endArrow=block;edgeStyle=elbowEdgeStyle;elbow=vertical;curved=0;rounded=0;dashed=1;" edge="1" parent="1">
          <mxGeometry relative="1" as="geometry">
            <mxPoint x="210" y="1610" as="sourcePoint" />
            <Array as="points">
              <mxPoint x="190" y="1610" />
            </Array>
            <mxPoint x="-50" y="1610" as="targetPoint" />
          </mxGeometry>
        </mxCell>
        <mxCell id="8OrpDrZAfpW0493N6n80-344" value="" style="endArrow=none;dashed=1;html=1;rounded=0;" edge="1" parent="1" source="8OrpDrZAfpW0493N6n80-358">
          <mxGeometry width="50" height="50" relative="1" as="geometry">
            <mxPoint x="1090" y="2050" as="sourcePoint" />
            <mxPoint x="1090" y="1220" as="targetPoint" />
          </mxGeometry>
        </mxCell>
        <mxCell id="8OrpDrZAfpW0493N6n80-349" value="" style="endArrow=none;dashed=1;html=1;rounded=0;" edge="1" parent="1" source="8OrpDrZAfpW0493N6n80-383" target="8OrpDrZAfpW0493N6n80-348">
          <mxGeometry width="50" height="50" relative="1" as="geometry">
            <mxPoint x="850" y="2308" as="sourcePoint" />
            <mxPoint x="850" y="830" as="targetPoint" />
          </mxGeometry>
        </mxCell>
        <mxCell id="8OrpDrZAfpW0493N6n80-348" value="" style="html=1;points=[];perimeter=orthogonalPerimeter;outlineConnect=0;targetShapes=umlLifeline;portConstraint=eastwest;newEdgeStyle={&quot;edgeStyle&quot;:&quot;elbowEdgeStyle&quot;,&quot;elbow&quot;:&quot;vertical&quot;,&quot;curved&quot;:0,&quot;rounded&quot;:0};" vertex="1" parent="1">
          <mxGeometry x="845" y="1570" width="10" height="30" as="geometry" />
        </mxCell>
        <mxCell id="8OrpDrZAfpW0493N6n80-350" value="return" style="html=1;verticalAlign=bottom;endArrow=block;edgeStyle=elbowEdgeStyle;elbow=vertical;curved=0;rounded=0;dashed=1;" edge="1" parent="1" target="8OrpDrZAfpW0493N6n80-401">
          <mxGeometry x="-0.0617" relative="1" as="geometry">
            <mxPoint x="845" y="1600" as="sourcePoint" />
            <Array as="points">
              <mxPoint x="785.17" y="1600" />
              <mxPoint x="840.17" y="1600" />
            </Array>
            <mxPoint x="230" y="1600" as="targetPoint" />
            <mxPoint as="offset" />
          </mxGeometry>
        </mxCell>
        <mxCell id="8OrpDrZAfpW0493N6n80-351" value="add book" style="html=1;verticalAlign=bottom;startArrow=oval;endArrow=block;startSize=8;edgeStyle=elbowEdgeStyle;elbow=vertical;curved=0;rounded=0;entryX=0.5;entryY=0;entryDx=0;entryDy=0;entryPerimeter=0;" edge="1" parent="1">
          <mxGeometry x="-0.0016" relative="1" as="geometry">
            <mxPoint x="-260" y="1640" as="sourcePoint" />
            <mxPoint x="-50" y="1640" as="targetPoint" />
            <Array as="points">
              <mxPoint x="-70" y="1640" />
              <mxPoint x="-260" y="1640" />
            </Array>
            <mxPoint as="offset" />
          </mxGeometry>
        </mxCell>
        <mxCell id="8OrpDrZAfpW0493N6n80-353" value="dispatch" style="html=1;verticalAlign=bottom;endArrow=block;edgeStyle=elbowEdgeStyle;elbow=vertical;curved=0;rounded=0;" edge="1" parent="1">
          <mxGeometry relative="1" as="geometry">
            <mxPoint x="-44" y="1650" as="sourcePoint" />
            <Array as="points">
              <mxPoint x="115" y="1650" />
            </Array>
            <mxPoint x="210" y="1650" as="targetPoint" />
          </mxGeometry>
        </mxCell>
        <mxCell id="8OrpDrZAfpW0493N6n80-357" value="add book&amp;nbsp; in library" style="html=1;verticalAlign=bottom;endArrow=block;edgeStyle=elbowEdgeStyle;elbow=vertical;curved=0;rounded=0;" edge="1" parent="1" target="8OrpDrZAfpW0493N6n80-358">
          <mxGeometry relative="1" as="geometry">
            <mxPoint x="855" y="1670.3" as="sourcePoint" />
            <Array as="points" />
            <mxPoint x="1080" y="1670" as="targetPoint" />
            <mxPoint as="offset" />
          </mxGeometry>
        </mxCell>
        <mxCell id="8OrpDrZAfpW0493N6n80-359" value="" style="endArrow=none;dashed=1;html=1;rounded=0;" edge="1" parent="1" source="8OrpDrZAfpW0493N6n80-390" target="8OrpDrZAfpW0493N6n80-358">
          <mxGeometry width="50" height="50" relative="1" as="geometry">
            <mxPoint x="1090" y="1830" as="sourcePoint" />
            <mxPoint x="1090" y="1220" as="targetPoint" />
          </mxGeometry>
        </mxCell>
        <mxCell id="8OrpDrZAfpW0493N6n80-358" value="" style="html=1;points=[];perimeter=orthogonalPerimeter;outlineConnect=0;targetShapes=umlLifeline;portConstraint=eastwest;newEdgeStyle={&quot;edgeStyle&quot;:&quot;elbowEdgeStyle&quot;,&quot;elbow&quot;:&quot;vertical&quot;,&quot;curved&quot;:0,&quot;rounded&quot;:0};" vertex="1" parent="1">
          <mxGeometry x="1085" y="1670" width="10" height="40" as="geometry" />
        </mxCell>
        <mxCell id="8OrpDrZAfpW0493N6n80-362" value="" style="endArrow=none;dashed=1;html=1;rounded=0;entryX=0.5;entryY=1;entryDx=0;entryDy=0;" edge="1" parent="1" source="8OrpDrZAfpW0493N6n80-367">
          <mxGeometry width="50" height="50" relative="1" as="geometry">
            <mxPoint x="1330" y="2000" as="sourcePoint" />
            <mxPoint x="1330" y="1210" as="targetPoint" />
          </mxGeometry>
        </mxCell>
        <mxCell id="8OrpDrZAfpW0493N6n80-365" value="" style="endArrow=none;dashed=1;html=1;rounded=0;" edge="1" parent="1" source="8OrpDrZAfpW0493N6n80-348" target="8OrpDrZAfpW0493N6n80-364">
          <mxGeometry width="50" height="50" relative="1" as="geometry">
            <mxPoint x="850" y="1570" as="sourcePoint" />
            <mxPoint x="850" y="830" as="targetPoint" />
          </mxGeometry>
        </mxCell>
        <mxCell id="8OrpDrZAfpW0493N6n80-364" value="" style="html=1;points=[];perimeter=orthogonalPerimeter;outlineConnect=0;targetShapes=umlLifeline;portConstraint=eastwest;newEdgeStyle={&quot;edgeStyle&quot;:&quot;elbowEdgeStyle&quot;,&quot;elbow&quot;:&quot;vertical&quot;,&quot;curved&quot;:0,&quot;rounded&quot;:0};" vertex="1" parent="1">
          <mxGeometry x="845" y="1180" width="10" height="40" as="geometry" />
        </mxCell>
        <mxCell id="8OrpDrZAfpW0493N6n80-366" value="add book information" style="html=1;verticalAlign=bottom;endArrow=block;edgeStyle=elbowEdgeStyle;elbow=vertical;curved=0;rounded=0;" edge="1" parent="1" source="8OrpDrZAfpW0493N6n80-405">
          <mxGeometry relative="1" as="geometry">
            <mxPoint x="1097.5" y="1680" as="sourcePoint" />
            <Array as="points">
              <mxPoint x="1262.5" y="1680" />
            </Array>
            <mxPoint x="1327.5" y="1680" as="targetPoint" />
          </mxGeometry>
        </mxCell>
        <mxCell id="8OrpDrZAfpW0493N6n80-368" value="" style="endArrow=none;dashed=1;html=1;rounded=0;entryX=0.5;entryY=1;entryDx=0;entryDy=0;" edge="1" parent="1" source="8OrpDrZAfpW0493N6n80-524" target="8OrpDrZAfpW0493N6n80-367">
          <mxGeometry width="50" height="50" relative="1" as="geometry">
            <mxPoint x="1330" y="3000" as="sourcePoint" />
            <mxPoint x="1330" y="1210" as="targetPoint" />
          </mxGeometry>
        </mxCell>
        <mxCell id="8OrpDrZAfpW0493N6n80-367" value="" style="html=1;points=[];perimeter=orthogonalPerimeter;outlineConnect=0;targetShapes=umlLifeline;portConstraint=eastwest;newEdgeStyle={&quot;edgeStyle&quot;:&quot;elbowEdgeStyle&quot;,&quot;elbow&quot;:&quot;vertical&quot;,&quot;curved&quot;:0,&quot;rounded&quot;:0};" vertex="1" parent="1">
          <mxGeometry x="1325" y="1680" width="10" height="20" as="geometry" />
        </mxCell>
        <mxCell id="8OrpDrZAfpW0493N6n80-369" value="return" style="html=1;verticalAlign=bottom;endArrow=block;edgeStyle=elbowEdgeStyle;elbow=vertical;curved=0;rounded=0;dashed=1;" edge="1" parent="1">
          <mxGeometry relative="1" as="geometry">
            <mxPoint x="1322.5" y="1700.31" as="sourcePoint" />
            <Array as="points">
              <mxPoint x="1282.5" y="1700.31" />
            </Array>
            <mxPoint x="1097.5" y="1700" as="targetPoint" />
          </mxGeometry>
        </mxCell>
        <mxCell id="8OrpDrZAfpW0493N6n80-371" value="v" style="html=1;verticalAlign=bottom;endArrow=block;edgeStyle=elbowEdgeStyle;elbow=vertical;curved=0;rounded=0;dashed=1;" edge="1" parent="1">
          <mxGeometry relative="1" as="geometry">
            <mxPoint x="210" y="1730" as="sourcePoint" />
            <Array as="points">
              <mxPoint x="-10" y="1730" />
              <mxPoint x="190" y="1720" />
            </Array>
            <mxPoint x="-45" y="1730" as="targetPoint" />
          </mxGeometry>
        </mxCell>
        <mxCell id="8OrpDrZAfpW0493N6n80-372" value="return" style="edgeLabel;html=1;align=center;verticalAlign=middle;resizable=0;points=[];" connectable="0" vertex="1" parent="8OrpDrZAfpW0493N6n80-371">
          <mxGeometry x="0.0062" y="1" relative="1" as="geometry">
            <mxPoint y="-11" as="offset" />
          </mxGeometry>
        </mxCell>
        <mxCell id="8OrpDrZAfpW0493N6n80-373" value="remove book" style="html=1;verticalAlign=bottom;startArrow=oval;endArrow=block;startSize=8;edgeStyle=elbowEdgeStyle;elbow=vertical;curved=0;rounded=0;entryX=0.5;entryY=0;entryDx=0;entryDy=0;entryPerimeter=0;" edge="1" parent="1">
          <mxGeometry x="-0.0016" relative="1" as="geometry">
            <mxPoint x="-260" y="1750" as="sourcePoint" />
            <mxPoint x="-50" y="1750" as="targetPoint" />
            <Array as="points">
              <mxPoint x="-70" y="1750" />
              <mxPoint x="-260" y="1750" />
            </Array>
            <mxPoint as="offset" />
          </mxGeometry>
        </mxCell>
        <mxCell id="8OrpDrZAfpW0493N6n80-375" value="v" style="html=1;verticalAlign=bottom;endArrow=block;edgeStyle=elbowEdgeStyle;elbow=vertical;curved=0;rounded=0;dashed=1;" edge="1" parent="1">
          <mxGeometry relative="1" as="geometry">
            <mxPoint x="210" y="1830" as="sourcePoint" />
            <Array as="points">
              <mxPoint x="-10" y="1830" />
              <mxPoint x="190" y="1820" />
            </Array>
            <mxPoint x="-45" y="1830" as="targetPoint" />
          </mxGeometry>
        </mxCell>
        <mxCell id="8OrpDrZAfpW0493N6n80-376" value="return" style="edgeLabel;html=1;align=center;verticalAlign=middle;resizable=0;points=[];" connectable="0" vertex="1" parent="8OrpDrZAfpW0493N6n80-375">
          <mxGeometry x="0.0062" y="1" relative="1" as="geometry">
            <mxPoint y="-11" as="offset" />
          </mxGeometry>
        </mxCell>
        <mxCell id="8OrpDrZAfpW0493N6n80-378" value="check if admin" style="html=1;verticalAlign=bottom;endArrow=block;edgeStyle=elbowEdgeStyle;elbow=vertical;curved=0;rounded=0;" edge="1" parent="1" source="8OrpDrZAfpW0493N6n80-17" target="8OrpDrZAfpW0493N6n80-387">
          <mxGeometry x="-0.7829" relative="1" as="geometry">
            <mxPoint x="217.5" y="1770" as="sourcePoint" />
            <Array as="points">
              <mxPoint x="220" y="1770" />
            </Array>
            <mxPoint x="1092.5" y="1770" as="targetPoint" />
            <mxPoint as="offset" />
          </mxGeometry>
        </mxCell>
        <mxCell id="8OrpDrZAfpW0493N6n80-379" value="return" style="html=1;verticalAlign=bottom;endArrow=block;edgeStyle=elbowEdgeStyle;elbow=vertical;curved=0;rounded=0;dashed=1;" edge="1" parent="1" source="8OrpDrZAfpW0493N6n80-387" target="8OrpDrZAfpW0493N6n80-402">
          <mxGeometry x="-0.0617" relative="1" as="geometry">
            <mxPoint x="1085" y="1820" as="sourcePoint" />
            <Array as="points">
              <mxPoint x="232.5" y="1820" />
              <mxPoint x="1037.67" y="1830" />
              <mxPoint x="1092.67" y="1830" />
            </Array>
            <mxPoint x="240" y="1820" as="targetPoint" />
            <mxPoint as="offset" />
          </mxGeometry>
        </mxCell>
        <mxCell id="8OrpDrZAfpW0493N6n80-381" value="" style="endArrow=none;dashed=1;html=1;rounded=0;" edge="1" parent="1" source="8OrpDrZAfpW0493N6n80-521">
          <mxGeometry width="50" height="50" relative="1" as="geometry">
            <mxPoint x="1090" y="3000" as="sourcePoint" />
            <mxPoint x="1090" y="1820" as="targetPoint" />
          </mxGeometry>
        </mxCell>
        <mxCell id="8OrpDrZAfpW0493N6n80-382" value="check if admin" style="html=1;verticalAlign=bottom;endArrow=block;edgeStyle=elbowEdgeStyle;elbow=vertical;curved=0;rounded=0;" edge="1" parent="1" target="8OrpDrZAfpW0493N6n80-383">
          <mxGeometry x="-0.1209" relative="1" as="geometry">
            <mxPoint x="215" y="1660" as="sourcePoint" />
            <Array as="points">
              <mxPoint x="374" y="1660" />
            </Array>
            <mxPoint x="850" y="1660" as="targetPoint" />
            <mxPoint as="offset" />
          </mxGeometry>
        </mxCell>
        <mxCell id="8OrpDrZAfpW0493N6n80-384" value="" style="endArrow=none;dashed=1;html=1;rounded=0;" edge="1" parent="1" target="8OrpDrZAfpW0493N6n80-383">
          <mxGeometry width="50" height="50" relative="1" as="geometry">
            <mxPoint x="850" y="1880" as="sourcePoint" />
            <mxPoint x="850" y="1600" as="targetPoint" />
          </mxGeometry>
        </mxCell>
        <mxCell id="8OrpDrZAfpW0493N6n80-383" value="" style="html=1;points=[];perimeter=orthogonalPerimeter;outlineConnect=0;targetShapes=umlLifeline;portConstraint=eastwest;newEdgeStyle={&quot;edgeStyle&quot;:&quot;elbowEdgeStyle&quot;,&quot;elbow&quot;:&quot;vertical&quot;,&quot;curved&quot;:0,&quot;rounded&quot;:0};" vertex="1" parent="1">
          <mxGeometry x="845" y="1660" width="10" height="60" as="geometry" />
        </mxCell>
        <mxCell id="8OrpDrZAfpW0493N6n80-385" value="return" style="html=1;verticalAlign=bottom;endArrow=block;edgeStyle=elbowEdgeStyle;elbow=vertical;curved=0;rounded=0;dashed=1;" edge="1" parent="1">
          <mxGeometry x="-0.0617" relative="1" as="geometry">
            <mxPoint x="855" y="1720" as="sourcePoint" />
            <Array as="points">
              <mxPoint x="795.17" y="1720" />
              <mxPoint x="850.17" y="1720" />
            </Array>
            <mxPoint x="220" y="1720" as="targetPoint" />
            <mxPoint as="offset" />
          </mxGeometry>
        </mxCell>
        <mxCell id="8OrpDrZAfpW0493N6n80-386" value="return" style="html=1;verticalAlign=bottom;endArrow=block;edgeStyle=elbowEdgeStyle;elbow=vertical;curved=0;rounded=0;dashed=1;" edge="1" parent="1" target="8OrpDrZAfpW0493N6n80-403">
          <mxGeometry relative="1" as="geometry">
            <mxPoint x="1080" y="1710.31" as="sourcePoint" />
            <Array as="points">
              <mxPoint x="860" y="1710" />
            </Array>
            <mxPoint x="880" y="1710" as="targetPoint" />
          </mxGeometry>
        </mxCell>
        <mxCell id="8OrpDrZAfpW0493N6n80-387" value="" style="html=1;points=[];perimeter=orthogonalPerimeter;outlineConnect=0;targetShapes=umlLifeline;portConstraint=eastwest;newEdgeStyle={&quot;edgeStyle&quot;:&quot;elbowEdgeStyle&quot;,&quot;elbow&quot;:&quot;vertical&quot;,&quot;curved&quot;:0,&quot;rounded&quot;:0};" vertex="1" parent="1">
          <mxGeometry x="845" y="1770" width="10" height="50" as="geometry" />
        </mxCell>
        <mxCell id="8OrpDrZAfpW0493N6n80-388" value="remove book&amp;nbsp; in library" style="html=1;verticalAlign=bottom;endArrow=block;edgeStyle=elbowEdgeStyle;elbow=vertical;curved=0;rounded=0;" edge="1" parent="1">
          <mxGeometry relative="1" as="geometry">
            <mxPoint x="855" y="1780.3" as="sourcePoint" />
            <Array as="points" />
            <mxPoint x="1085" y="1780" as="targetPoint" />
            <mxPoint as="offset" />
          </mxGeometry>
        </mxCell>
        <mxCell id="8OrpDrZAfpW0493N6n80-389" value="return" style="html=1;verticalAlign=bottom;endArrow=block;edgeStyle=elbowEdgeStyle;elbow=vertical;curved=0;rounded=0;dashed=1;" edge="1" parent="1" target="8OrpDrZAfpW0493N6n80-404">
          <mxGeometry relative="1" as="geometry">
            <mxPoint x="1080" y="1810.31" as="sourcePoint" />
            <Array as="points" />
            <mxPoint x="880" y="1810" as="targetPoint" />
          </mxGeometry>
        </mxCell>
        <mxCell id="8OrpDrZAfpW0493N6n80-391" value="" style="endArrow=none;dashed=1;html=1;rounded=0;" edge="1" parent="1" target="8OrpDrZAfpW0493N6n80-390">
          <mxGeometry width="50" height="50" relative="1" as="geometry">
            <mxPoint x="1090" y="1830" as="sourcePoint" />
            <mxPoint x="1090" y="1710" as="targetPoint" />
          </mxGeometry>
        </mxCell>
        <mxCell id="8OrpDrZAfpW0493N6n80-390" value="" style="html=1;points=[];perimeter=orthogonalPerimeter;outlineConnect=0;targetShapes=umlLifeline;portConstraint=eastwest;newEdgeStyle={&quot;edgeStyle&quot;:&quot;elbowEdgeStyle&quot;,&quot;elbow&quot;:&quot;vertical&quot;,&quot;curved&quot;:0,&quot;rounded&quot;:0};" vertex="1" parent="1">
          <mxGeometry x="1085" y="1780" width="10" height="30" as="geometry" />
        </mxCell>
        <mxCell id="8OrpDrZAfpW0493N6n80-403" value="" style="html=1;points=[];perimeter=orthogonalPerimeter;outlineConnect=0;targetShapes=umlLifeline;portConstraint=eastwest;newEdgeStyle={&quot;edgeStyle&quot;:&quot;elbowEdgeStyle&quot;,&quot;elbow&quot;:&quot;vertical&quot;,&quot;curved&quot;:0,&quot;rounded&quot;:0};" vertex="1" parent="1">
          <mxGeometry x="850" y="1670" width="10" height="40" as="geometry" />
        </mxCell>
        <mxCell id="8OrpDrZAfpW0493N6n80-404" value="" style="html=1;points=[];perimeter=orthogonalPerimeter;outlineConnect=0;targetShapes=umlLifeline;portConstraint=eastwest;newEdgeStyle={&quot;edgeStyle&quot;:&quot;elbowEdgeStyle&quot;,&quot;elbow&quot;:&quot;vertical&quot;,&quot;curved&quot;:0,&quot;rounded&quot;:0};" vertex="1" parent="1">
          <mxGeometry x="850" y="1780" width="10" height="30" as="geometry" />
        </mxCell>
        <mxCell id="8OrpDrZAfpW0493N6n80-406" value="" style="html=1;verticalAlign=bottom;endArrow=block;edgeStyle=elbowEdgeStyle;elbow=vertical;curved=0;rounded=0;" edge="1" parent="1" target="8OrpDrZAfpW0493N6n80-405">
          <mxGeometry relative="1" as="geometry">
            <mxPoint x="1097.5" y="1680" as="sourcePoint" />
            <Array as="points" />
            <mxPoint x="1327.5" y="1680" as="targetPoint" />
          </mxGeometry>
        </mxCell>
        <mxCell id="8OrpDrZAfpW0493N6n80-405" value="" style="html=1;points=[];perimeter=orthogonalPerimeter;outlineConnect=0;targetShapes=umlLifeline;portConstraint=eastwest;newEdgeStyle={&quot;edgeStyle&quot;:&quot;elbowEdgeStyle&quot;,&quot;elbow&quot;:&quot;vertical&quot;,&quot;curved&quot;:0,&quot;rounded&quot;:0};" vertex="1" parent="1">
          <mxGeometry x="1092.5" y="1680" width="10" height="20" as="geometry" />
        </mxCell>
        <mxCell id="8OrpDrZAfpW0493N6n80-407" value="terminate account" style="html=1;verticalAlign=bottom;startArrow=oval;endArrow=block;startSize=8;edgeStyle=elbowEdgeStyle;elbow=vertical;curved=0;rounded=0;entryX=0.5;entryY=0;entryDx=0;entryDy=0;entryPerimeter=0;" edge="1" parent="1">
          <mxGeometry x="-0.0016" relative="1" as="geometry">
            <mxPoint x="-265" y="1860" as="sourcePoint" />
            <mxPoint x="-55" y="1860" as="targetPoint" />
            <Array as="points">
              <mxPoint x="-75" y="1860" />
              <mxPoint x="-265" y="1860" />
            </Array>
            <mxPoint as="offset" />
          </mxGeometry>
        </mxCell>
        <mxCell id="8OrpDrZAfpW0493N6n80-409" value="dispatch" style="html=1;verticalAlign=bottom;endArrow=block;edgeStyle=elbowEdgeStyle;elbow=vertical;curved=0;rounded=0;" edge="1" parent="1">
          <mxGeometry relative="1" as="geometry">
            <mxPoint x="-49" y="1870" as="sourcePoint" />
            <Array as="points">
              <mxPoint x="110" y="1870" />
            </Array>
            <mxPoint x="205" y="1870" as="targetPoint" />
          </mxGeometry>
        </mxCell>
        <mxCell id="8OrpDrZAfpW0493N6n80-410" value="v" style="html=1;verticalAlign=bottom;endArrow=block;edgeStyle=elbowEdgeStyle;elbow=vertical;curved=0;rounded=0;dashed=1;" edge="1" parent="1">
          <mxGeometry relative="1" as="geometry">
            <mxPoint x="210" y="1950" as="sourcePoint" />
            <Array as="points">
              <mxPoint x="-10" y="1950" />
              <mxPoint x="190" y="1940" />
            </Array>
            <mxPoint x="-45" y="1950" as="targetPoint" />
          </mxGeometry>
        </mxCell>
        <mxCell id="8OrpDrZAfpW0493N6n80-411" value="return" style="edgeLabel;html=1;align=center;verticalAlign=middle;resizable=0;points=[];" connectable="0" vertex="1" parent="8OrpDrZAfpW0493N6n80-410">
          <mxGeometry x="0.0062" y="1" relative="1" as="geometry">
            <mxPoint y="-11" as="offset" />
          </mxGeometry>
        </mxCell>
        <mxCell id="8OrpDrZAfpW0493N6n80-413" value="check if admin" style="html=1;verticalAlign=bottom;endArrow=block;edgeStyle=elbowEdgeStyle;elbow=vertical;curved=0;rounded=0;" edge="1" parent="1">
          <mxGeometry x="-0.7829" relative="1" as="geometry">
            <mxPoint x="615" y="1880" as="sourcePoint" />
            <Array as="points">
              <mxPoint x="215" y="1880" />
            </Array>
            <mxPoint x="845" y="1880" as="targetPoint" />
            <mxPoint as="offset" />
          </mxGeometry>
        </mxCell>
        <mxCell id="8OrpDrZAfpW0493N6n80-417" value="" style="endArrow=none;dashed=1;html=1;rounded=0;" edge="1" parent="1" source="8OrpDrZAfpW0493N6n80-440" target="8OrpDrZAfpW0493N6n80-419">
          <mxGeometry width="50" height="50" relative="1" as="geometry">
            <mxPoint x="850" y="2308" as="sourcePoint" />
            <mxPoint x="850" y="1930" as="targetPoint" />
          </mxGeometry>
        </mxCell>
        <mxCell id="8OrpDrZAfpW0493N6n80-418" value="check if premium" style="html=1;verticalAlign=bottom;endArrow=block;edgeStyle=elbowEdgeStyle;elbow=vertical;curved=0;rounded=0;" edge="1" parent="1" target="8OrpDrZAfpW0493N6n80-17">
          <mxGeometry relative="1" as="geometry">
            <mxPoint x="835" y="1900" as="sourcePoint" />
            <Array as="points">
              <mxPoint x="845" y="1900" />
              <mxPoint x="850" y="1930" />
            </Array>
            <mxPoint x="650" y="1900" as="targetPoint" />
          </mxGeometry>
        </mxCell>
        <mxCell id="8OrpDrZAfpW0493N6n80-419" value="" style="html=1;points=[];perimeter=orthogonalPerimeter;outlineConnect=0;targetShapes=umlLifeline;portConstraint=eastwest;newEdgeStyle={&quot;edgeStyle&quot;:&quot;elbowEdgeStyle&quot;,&quot;elbow&quot;:&quot;vertical&quot;,&quot;curved&quot;:0,&quot;rounded&quot;:0};" vertex="1" parent="1">
          <mxGeometry x="845" y="1880" width="10" height="20" as="geometry" />
        </mxCell>
        <mxCell id="8OrpDrZAfpW0493N6n80-421" value="delete account" style="html=1;verticalAlign=bottom;endArrow=block;edgeStyle=elbowEdgeStyle;elbow=vertical;curved=0;rounded=0;" edge="1" parent="1" target="8OrpDrZAfpW0493N6n80-181">
          <mxGeometry relative="1" as="geometry">
            <mxPoint x="605" y="1920" as="sourcePoint" />
            <Array as="points">
              <mxPoint x="615" y="1920" />
              <mxPoint x="620" y="1950" />
            </Array>
            <mxPoint x="440" y="1920" as="targetPoint" />
          </mxGeometry>
        </mxCell>
        <mxCell id="8OrpDrZAfpW0493N6n80-423" value="v" style="html=1;verticalAlign=bottom;endArrow=block;edgeStyle=elbowEdgeStyle;elbow=vertical;curved=0;rounded=0;dashed=1;" edge="1" parent="1" target="8OrpDrZAfpW0493N6n80-460">
          <mxGeometry relative="1" as="geometry">
            <mxPoint x="410" y="1940" as="sourcePoint" />
            <Array as="points">
              <mxPoint x="285" y="1940" />
              <mxPoint x="485" y="1930" />
            </Array>
            <mxPoint x="230" y="1940" as="targetPoint" />
          </mxGeometry>
        </mxCell>
        <mxCell id="8OrpDrZAfpW0493N6n80-424" value="return" style="edgeLabel;html=1;align=center;verticalAlign=middle;resizable=0;points=[];" connectable="0" vertex="1" parent="8OrpDrZAfpW0493N6n80-423">
          <mxGeometry x="0.0062" y="1" relative="1" as="geometry">
            <mxPoint y="-11" as="offset" />
          </mxGeometry>
        </mxCell>
        <mxCell id="8OrpDrZAfpW0493N6n80-425" value="add admin account" style="html=1;verticalAlign=bottom;startArrow=oval;endArrow=block;startSize=8;edgeStyle=elbowEdgeStyle;elbow=vertical;curved=0;rounded=0;" edge="1" parent="1" target="aM9ryv3xv72pqoxQDRHE-1">
          <mxGeometry x="-0.0016" relative="1" as="geometry">
            <mxPoint x="-260" y="1970" as="sourcePoint" />
            <mxPoint x="-70" y="1970" as="targetPoint" />
            <Array as="points">
              <mxPoint x="-70" y="1970" />
              <mxPoint x="-260" y="1970" />
            </Array>
            <mxPoint as="offset" />
          </mxGeometry>
        </mxCell>
        <mxCell id="8OrpDrZAfpW0493N6n80-429" value="v" style="html=1;verticalAlign=bottom;endArrow=block;edgeStyle=elbowEdgeStyle;elbow=vertical;curved=0;rounded=0;dashed=1;" edge="1" parent="1">
          <mxGeometry relative="1" as="geometry">
            <mxPoint x="210" y="2060" as="sourcePoint" />
            <Array as="points">
              <mxPoint x="-10" y="2060" />
              <mxPoint x="190" y="2050" />
            </Array>
            <mxPoint x="-45" y="2060" as="targetPoint" />
          </mxGeometry>
        </mxCell>
        <mxCell id="8OrpDrZAfpW0493N6n80-430" value="return" style="edgeLabel;html=1;align=center;verticalAlign=middle;resizable=0;points=[];" connectable="0" vertex="1" parent="8OrpDrZAfpW0493N6n80-429">
          <mxGeometry x="0.0062" y="1" relative="1" as="geometry">
            <mxPoint y="-11" as="offset" />
          </mxGeometry>
        </mxCell>
        <mxCell id="8OrpDrZAfpW0493N6n80-431" value="check if admin" style="html=1;verticalAlign=bottom;endArrow=block;edgeStyle=elbowEdgeStyle;elbow=vertical;curved=0;rounded=0;" edge="1" parent="1">
          <mxGeometry x="-0.7829" relative="1" as="geometry">
            <mxPoint x="615" y="1990" as="sourcePoint" />
            <Array as="points">
              <mxPoint x="215" y="1990" />
            </Array>
            <mxPoint x="845" y="1990" as="targetPoint" />
            <mxPoint as="offset" />
          </mxGeometry>
        </mxCell>
        <mxCell id="8OrpDrZAfpW0493N6n80-432" value="" style="html=1;points=[];perimeter=orthogonalPerimeter;outlineConnect=0;targetShapes=umlLifeline;portConstraint=eastwest;newEdgeStyle={&quot;edgeStyle&quot;:&quot;elbowEdgeStyle&quot;,&quot;elbow&quot;:&quot;vertical&quot;,&quot;curved&quot;:0,&quot;rounded&quot;:0};" vertex="1" parent="1">
          <mxGeometry x="845" y="1990" width="10" height="20" as="geometry" />
        </mxCell>
        <mxCell id="8OrpDrZAfpW0493N6n80-434" value="check if user" style="html=1;verticalAlign=bottom;endArrow=block;edgeStyle=elbowEdgeStyle;elbow=vertical;curved=0;rounded=0;" edge="1" parent="1" target="8OrpDrZAfpW0493N6n80-181">
          <mxGeometry relative="1" as="geometry">
            <mxPoint x="835" y="2010" as="sourcePoint" />
            <Array as="points">
              <mxPoint x="845" y="2010" />
              <mxPoint x="850" y="2040" />
            </Array>
            <mxPoint x="619" y="2010" as="targetPoint" />
          </mxGeometry>
        </mxCell>
        <mxCell id="8OrpDrZAfpW0493N6n80-439" value="add admin account" style="html=1;verticalAlign=bottom;endArrow=block;edgeStyle=elbowEdgeStyle;elbow=vertical;curved=0;rounded=0;" edge="1" parent="1" target="8OrpDrZAfpW0493N6n80-440">
          <mxGeometry x="-0.12" relative="1" as="geometry">
            <mxPoint x="410" y="2030" as="sourcePoint" />
            <Array as="points" />
            <mxPoint x="700" y="2030" as="targetPoint" />
            <mxPoint x="-1" as="offset" />
          </mxGeometry>
        </mxCell>
        <mxCell id="8OrpDrZAfpW0493N6n80-441" value="" style="endArrow=none;dashed=1;html=1;rounded=0;" edge="1" parent="1" source="8OrpDrZAfpW0493N6n80-465" target="8OrpDrZAfpW0493N6n80-440">
          <mxGeometry width="50" height="50" relative="1" as="geometry">
            <mxPoint x="850" y="2308" as="sourcePoint" />
            <mxPoint x="850" y="1900" as="targetPoint" />
          </mxGeometry>
        </mxCell>
        <mxCell id="8OrpDrZAfpW0493N6n80-440" value="" style="html=1;points=[];perimeter=orthogonalPerimeter;outlineConnect=0;targetShapes=umlLifeline;portConstraint=eastwest;newEdgeStyle={&quot;edgeStyle&quot;:&quot;elbowEdgeStyle&quot;,&quot;elbow&quot;:&quot;vertical&quot;,&quot;curved&quot;:0,&quot;rounded&quot;:0};" vertex="1" parent="1">
          <mxGeometry x="845" y="2030" width="10" height="20" as="geometry" />
        </mxCell>
        <mxCell id="8OrpDrZAfpW0493N6n80-442" value="z" style="html=1;verticalAlign=bottom;endArrow=block;edgeStyle=elbowEdgeStyle;elbow=vertical;curved=0;rounded=0;" edge="1" parent="1" target="aM9ryv3xv72pqoxQDRHE-5">
          <mxGeometry relative="1" as="geometry">
            <mxPoint x="835" y="2050" as="sourcePoint" />
            <Array as="points">
              <mxPoint x="280" y="2050" />
              <mxPoint x="845" y="2050" />
              <mxPoint x="850" y="2080" />
            </Array>
            <mxPoint x="240" y="2050" as="targetPoint" />
          </mxGeometry>
        </mxCell>
        <mxCell id="8OrpDrZAfpW0493N6n80-443" value="check user checkout" style="html=1;verticalAlign=bottom;startArrow=oval;endArrow=block;startSize=8;edgeStyle=elbowEdgeStyle;elbow=vertical;curved=0;rounded=0;" edge="1" parent="1">
          <mxGeometry x="-0.0016" relative="1" as="geometry">
            <mxPoint x="-260" y="2090" as="sourcePoint" />
            <mxPoint x="-50" y="2090" as="targetPoint" />
            <Array as="points">
              <mxPoint x="-70" y="2090" />
              <mxPoint x="-260" y="2090" />
            </Array>
            <mxPoint as="offset" />
          </mxGeometry>
        </mxCell>
        <mxCell id="8OrpDrZAfpW0493N6n80-446" value="v" style="html=1;verticalAlign=bottom;endArrow=block;edgeStyle=elbowEdgeStyle;elbow=vertical;curved=0;rounded=0;dashed=1;" edge="1" parent="1">
          <mxGeometry relative="1" as="geometry">
            <mxPoint x="210" y="2180" as="sourcePoint" />
            <Array as="points">
              <mxPoint x="-10" y="2180" />
              <mxPoint x="190" y="2170" />
            </Array>
            <mxPoint x="-45" y="2180" as="targetPoint" />
          </mxGeometry>
        </mxCell>
        <mxCell id="8OrpDrZAfpW0493N6n80-447" value="return" style="edgeLabel;html=1;align=center;verticalAlign=middle;resizable=0;points=[];" connectable="0" vertex="1" parent="8OrpDrZAfpW0493N6n80-446">
          <mxGeometry x="0.0062" y="1" relative="1" as="geometry">
            <mxPoint y="-11" as="offset" />
          </mxGeometry>
        </mxCell>
        <mxCell id="8OrpDrZAfpW0493N6n80-449" value="check if premium" style="html=1;verticalAlign=bottom;endArrow=block;edgeStyle=elbowEdgeStyle;elbow=horizontal;curved=0;rounded=0;" edge="1" parent="1" target="8OrpDrZAfpW0493N6n80-17">
          <mxGeometry relative="1" as="geometry">
            <mxPoint x="215" y="2110" as="sourcePoint" />
            <Array as="points">
              <mxPoint x="374" y="2110" />
            </Array>
            <mxPoint x="590" y="2110" as="targetPoint" />
          </mxGeometry>
        </mxCell>
        <mxCell id="8OrpDrZAfpW0493N6n80-451" value="get checkout list&amp;nbsp;" style="html=1;verticalAlign=bottom;endArrow=block;edgeStyle=elbowEdgeStyle;elbow=vertical;curved=0;rounded=0;" edge="1" parent="1">
          <mxGeometry relative="1" as="geometry">
            <mxPoint x="605" y="2130" as="sourcePoint" />
            <Array as="points">
              <mxPoint x="615" y="2130" />
              <mxPoint x="620" y="2160" />
            </Array>
            <mxPoint x="409" y="2130" as="targetPoint" />
          </mxGeometry>
        </mxCell>
        <mxCell id="8OrpDrZAfpW0493N6n80-452" value="" style="html=1;points=[];perimeter=orthogonalPerimeter;outlineConnect=0;targetShapes=umlLifeline;portConstraint=eastwest;newEdgeStyle={&quot;edgeStyle&quot;:&quot;elbowEdgeStyle&quot;,&quot;elbow&quot;:&quot;vertical&quot;,&quot;curved&quot;:0,&quot;rounded&quot;:0};" vertex="1" parent="1">
          <mxGeometry x="405" y="1920" width="10" height="20" as="geometry" />
        </mxCell>
        <mxCell id="8OrpDrZAfpW0493N6n80-454" value="delete account" style="html=1;verticalAlign=bottom;endArrow=block;edgeStyle=elbowEdgeStyle;elbow=vertical;curved=0;rounded=0;" edge="1" parent="1" target="aM9ryv3xv72pqoxQDRHE-5">
          <mxGeometry relative="1" as="geometry">
            <mxPoint x="396" y="2170" as="sourcePoint" />
            <Array as="points">
              <mxPoint x="406" y="2170" />
              <mxPoint x="411" y="2200" />
            </Array>
            <mxPoint x="240" y="2170" as="targetPoint" />
          </mxGeometry>
        </mxCell>
        <mxCell id="8OrpDrZAfpW0493N6n80-455" value="check suggestion" style="html=1;verticalAlign=bottom;startArrow=oval;endArrow=block;startSize=8;edgeStyle=elbowEdgeStyle;elbow=vertical;curved=0;rounded=0;" edge="1" parent="1">
          <mxGeometry x="-0.0016" relative="1" as="geometry">
            <mxPoint x="-260" y="2230" as="sourcePoint" />
            <mxPoint x="-50" y="2230" as="targetPoint" />
            <Array as="points">
              <mxPoint x="-70" y="2230" />
              <mxPoint x="-260" y="2230" />
            </Array>
            <mxPoint as="offset" />
          </mxGeometry>
        </mxCell>
        <mxCell id="8OrpDrZAfpW0493N6n80-462" value="v" style="html=1;verticalAlign=bottom;endArrow=block;edgeStyle=elbowEdgeStyle;elbow=vertical;curved=0;rounded=0;dashed=1;" edge="1" parent="1">
          <mxGeometry relative="1" as="geometry">
            <mxPoint x="210" y="2280" as="sourcePoint" />
            <Array as="points">
              <mxPoint x="-10" y="2280" />
              <mxPoint x="190" y="2270" />
            </Array>
            <mxPoint x="-45" y="2280" as="targetPoint" />
          </mxGeometry>
        </mxCell>
        <mxCell id="8OrpDrZAfpW0493N6n80-463" value="return" style="edgeLabel;html=1;align=center;verticalAlign=middle;resizable=0;points=[];" connectable="0" vertex="1" parent="8OrpDrZAfpW0493N6n80-462">
          <mxGeometry x="0.0062" y="1" relative="1" as="geometry">
            <mxPoint y="-11" as="offset" />
          </mxGeometry>
        </mxCell>
        <mxCell id="8OrpDrZAfpW0493N6n80-464" value="get request" style="html=1;verticalAlign=bottom;endArrow=block;edgeStyle=elbowEdgeStyle;elbow=horizontal;curved=0;rounded=0;entryX=0.5;entryY=0;entryDx=0;entryDy=0;entryPerimeter=0;" edge="1" parent="1" target="8OrpDrZAfpW0493N6n80-465">
          <mxGeometry relative="1" as="geometry">
            <mxPoint x="215" y="2250" as="sourcePoint" />
            <Array as="points">
              <mxPoint x="374" y="2250" />
            </Array>
            <mxPoint x="820" y="2250" as="targetPoint" />
          </mxGeometry>
        </mxCell>
        <mxCell id="8OrpDrZAfpW0493N6n80-466" value="" style="endArrow=none;dashed=1;html=1;rounded=0;" edge="1" parent="1" source="8OrpDrZAfpW0493N6n80-561" target="8OrpDrZAfpW0493N6n80-465">
          <mxGeometry width="50" height="50" relative="1" as="geometry">
            <mxPoint x="850" y="3000" as="sourcePoint" />
            <mxPoint x="850" y="2050" as="targetPoint" />
          </mxGeometry>
        </mxCell>
        <mxCell id="8OrpDrZAfpW0493N6n80-465" value="" style="html=1;points=[];perimeter=orthogonalPerimeter;outlineConnect=0;targetShapes=umlLifeline;portConstraint=eastwest;newEdgeStyle={&quot;edgeStyle&quot;:&quot;elbowEdgeStyle&quot;,&quot;elbow&quot;:&quot;vertical&quot;,&quot;curved&quot;:0,&quot;rounded&quot;:0};" vertex="1" parent="1">
          <mxGeometry x="845" y="2250" width="10" height="20" as="geometry" />
        </mxCell>
        <mxCell id="8OrpDrZAfpW0493N6n80-467" value="v" style="html=1;verticalAlign=bottom;endArrow=block;edgeStyle=elbowEdgeStyle;elbow=vertical;curved=0;rounded=0;dashed=1;" edge="1" parent="1" target="8OrpDrZAfpW0493N6n80-469">
          <mxGeometry relative="1" as="geometry">
            <mxPoint x="855" y="2270" as="sourcePoint" />
            <Array as="points">
              <mxPoint x="730" y="2270" />
              <mxPoint x="930" y="2260" />
            </Array>
            <mxPoint x="270" y="2270" as="targetPoint" />
          </mxGeometry>
        </mxCell>
        <mxCell id="8OrpDrZAfpW0493N6n80-468" value="return" style="edgeLabel;html=1;align=center;verticalAlign=middle;resizable=0;points=[];" connectable="0" vertex="1" parent="8OrpDrZAfpW0493N6n80-467">
          <mxGeometry x="0.0062" y="1" relative="1" as="geometry">
            <mxPoint y="-11" as="offset" />
          </mxGeometry>
        </mxCell>
        <mxCell id="8OrpDrZAfpW0493N6n80-470" value="log in premium" style="html=1;verticalAlign=bottom;startArrow=oval;endArrow=block;startSize=8;edgeStyle=elbowEdgeStyle;elbow=vertical;curved=0;rounded=0;" edge="1" parent="1">
          <mxGeometry x="-0.0016" relative="1" as="geometry">
            <mxPoint x="-260" y="2330" as="sourcePoint" />
            <mxPoint x="-50" y="2330" as="targetPoint" />
            <Array as="points">
              <mxPoint x="-70" y="2330" />
              <mxPoint x="-260" y="2330" />
            </Array>
            <mxPoint as="offset" />
          </mxGeometry>
        </mxCell>
        <mxCell id="8OrpDrZAfpW0493N6n80-473" value="v" style="html=1;verticalAlign=bottom;endArrow=block;edgeStyle=elbowEdgeStyle;elbow=vertical;curved=0;rounded=0;dashed=1;" edge="1" parent="1">
          <mxGeometry relative="1" as="geometry">
            <mxPoint x="210" y="2380" as="sourcePoint" />
            <Array as="points">
              <mxPoint x="-10" y="2380" />
              <mxPoint x="190" y="2370" />
            </Array>
            <mxPoint x="-45" y="2380" as="targetPoint" />
          </mxGeometry>
        </mxCell>
        <mxCell id="8OrpDrZAfpW0493N6n80-474" value="return" style="edgeLabel;html=1;align=center;verticalAlign=middle;resizable=0;points=[];" connectable="0" vertex="1" parent="8OrpDrZAfpW0493N6n80-473">
          <mxGeometry x="0.0062" y="1" relative="1" as="geometry">
            <mxPoint y="-11" as="offset" />
          </mxGeometry>
        </mxCell>
        <mxCell id="8OrpDrZAfpW0493N6n80-477" value="check information" style="html=1;verticalAlign=bottom;endArrow=block;edgeStyle=elbowEdgeStyle;elbow=horizontal;curved=0;rounded=0;" edge="1" parent="1">
          <mxGeometry relative="1" as="geometry">
            <mxPoint x="215" y="2350" as="sourcePoint" />
            <Array as="points">
              <mxPoint x="380" y="2580" />
            </Array>
            <mxPoint x="620" y="2350" as="targetPoint" />
          </mxGeometry>
        </mxCell>
        <mxCell id="8OrpDrZAfpW0493N6n80-479" value="v" style="html=1;verticalAlign=bottom;endArrow=block;edgeStyle=elbowEdgeStyle;elbow=vertical;curved=0;rounded=0;dashed=1;" edge="1" parent="1" target="8OrpDrZAfpW0493N6n80-475">
          <mxGeometry relative="1" as="geometry">
            <mxPoint x="625" y="2370" as="sourcePoint" />
            <Array as="points">
              <mxPoint x="405" y="2370" />
              <mxPoint x="605" y="2360" />
            </Array>
            <mxPoint x="370" y="2370" as="targetPoint" />
          </mxGeometry>
        </mxCell>
        <mxCell id="8OrpDrZAfpW0493N6n80-480" value="return" style="edgeLabel;html=1;align=center;verticalAlign=middle;resizable=0;points=[];" connectable="0" vertex="1" parent="8OrpDrZAfpW0493N6n80-479">
          <mxGeometry x="0.0062" y="1" relative="1" as="geometry">
            <mxPoint y="-11" as="offset" />
          </mxGeometry>
        </mxCell>
        <mxCell id="8OrpDrZAfpW0493N6n80-481" value="cancel premium" style="html=1;verticalAlign=bottom;startArrow=oval;endArrow=block;startSize=8;edgeStyle=elbowEdgeStyle;elbow=vertical;curved=0;rounded=0;" edge="1" parent="1">
          <mxGeometry x="-0.0016" relative="1" as="geometry">
            <mxPoint x="-260" y="2430" as="sourcePoint" />
            <mxPoint x="-50" y="2430" as="targetPoint" />
            <Array as="points">
              <mxPoint x="-70" y="2430" />
              <mxPoint x="-260" y="2430" />
            </Array>
            <mxPoint as="offset" />
          </mxGeometry>
        </mxCell>
        <mxCell id="8OrpDrZAfpW0493N6n80-482" value="" style="html=1;points=[];perimeter=orthogonalPerimeter;outlineConnect=0;targetShapes=umlLifeline;portConstraint=eastwest;newEdgeStyle={&quot;edgeStyle&quot;:&quot;elbowEdgeStyle&quot;,&quot;elbow&quot;:&quot;vertical&quot;,&quot;curved&quot;:0,&quot;rounded&quot;:0};" vertex="1" parent="1">
          <mxGeometry x="-55" y="2430" width="10" height="80" as="geometry" />
        </mxCell>
        <mxCell id="8OrpDrZAfpW0493N6n80-484" value="v" style="html=1;verticalAlign=bottom;endArrow=block;edgeStyle=elbowEdgeStyle;elbow=vertical;curved=0;rounded=0;dashed=1;" edge="1" parent="1">
          <mxGeometry relative="1" as="geometry">
            <mxPoint x="210" y="2510" as="sourcePoint" />
            <Array as="points">
              <mxPoint x="-10" y="2510" />
              <mxPoint x="190" y="2500" />
            </Array>
            <mxPoint x="-45" y="2510" as="targetPoint" />
          </mxGeometry>
        </mxCell>
        <mxCell id="8OrpDrZAfpW0493N6n80-485" value="return" style="edgeLabel;html=1;align=center;verticalAlign=middle;resizable=0;points=[];" connectable="0" vertex="1" parent="8OrpDrZAfpW0493N6n80-484">
          <mxGeometry x="0.0062" y="1" relative="1" as="geometry">
            <mxPoint y="-11" as="offset" />
          </mxGeometry>
        </mxCell>
        <mxCell id="8OrpDrZAfpW0493N6n80-489" value="delete premium information" style="html=1;verticalAlign=bottom;endArrow=block;edgeStyle=elbowEdgeStyle;elbow=horizontal;curved=0;rounded=0;" edge="1" parent="1">
          <mxGeometry relative="1" as="geometry">
            <mxPoint x="215" y="2450" as="sourcePoint" />
            <Array as="points">
              <mxPoint x="380" y="2680" />
            </Array>
            <mxPoint x="620" y="2450" as="targetPoint" />
          </mxGeometry>
        </mxCell>
        <mxCell id="8OrpDrZAfpW0493N6n80-494" value="edit account" style="html=1;verticalAlign=bottom;endArrow=block;edgeStyle=elbowEdgeStyle;elbow=vertical;curved=0;rounded=0;" edge="1" parent="1">
          <mxGeometry relative="1" as="geometry">
            <mxPoint x="611" y="2469.4700000000003" as="sourcePoint" />
            <Array as="points">
              <mxPoint x="621" y="2469.4700000000003" />
              <mxPoint x="626" y="2499.4700000000003" />
            </Array>
            <mxPoint x="415" y="2469.4700000000003" as="targetPoint" />
          </mxGeometry>
        </mxCell>
        <mxCell id="8OrpDrZAfpW0493N6n80-496" value="v" style="html=1;verticalAlign=bottom;endArrow=block;edgeStyle=elbowEdgeStyle;elbow=vertical;curved=0;rounded=0;dashed=1;" edge="1" parent="1" target="8OrpDrZAfpW0493N6n80-486">
          <mxGeometry relative="1" as="geometry">
            <mxPoint x="415" y="2490" as="sourcePoint" />
            <Array as="points">
              <mxPoint x="300" y="2490" />
              <mxPoint x="395" y="2480" />
            </Array>
            <mxPoint x="300" y="2490" as="targetPoint" />
          </mxGeometry>
        </mxCell>
        <mxCell id="8OrpDrZAfpW0493N6n80-497" value="return" style="edgeLabel;html=1;align=center;verticalAlign=middle;resizable=0;points=[];" connectable="0" vertex="1" parent="8OrpDrZAfpW0493N6n80-496">
          <mxGeometry x="0.0062" y="1" relative="1" as="geometry">
            <mxPoint y="-11" as="offset" />
          </mxGeometry>
        </mxCell>
        <mxCell id="8OrpDrZAfpW0493N6n80-500" value="checkout premium" style="html=1;verticalAlign=bottom;startArrow=oval;endArrow=block;startSize=8;edgeStyle=elbowEdgeStyle;elbow=vertical;curved=0;rounded=0;" edge="1" parent="1">
          <mxGeometry x="-0.0016" relative="1" as="geometry">
            <mxPoint x="-260" y="2550" as="sourcePoint" />
            <mxPoint x="-50" y="2550" as="targetPoint" />
            <Array as="points">
              <mxPoint x="-70" y="2550" />
              <mxPoint x="-260" y="2550" />
            </Array>
            <mxPoint as="offset" />
          </mxGeometry>
        </mxCell>
        <mxCell id="8OrpDrZAfpW0493N6n80-503" value="v" style="html=1;verticalAlign=bottom;endArrow=block;edgeStyle=elbowEdgeStyle;elbow=vertical;curved=0;rounded=0;dashed=1;" edge="1" parent="1">
          <mxGeometry relative="1" as="geometry">
            <mxPoint x="210" y="2610" as="sourcePoint" />
            <Array as="points">
              <mxPoint x="-10" y="2610" />
              <mxPoint x="190" y="2600" />
            </Array>
            <mxPoint x="-45" y="2610" as="targetPoint" />
          </mxGeometry>
        </mxCell>
        <mxCell id="8OrpDrZAfpW0493N6n80-504" value="return" style="edgeLabel;html=1;align=center;verticalAlign=middle;resizable=0;points=[];" connectable="0" vertex="1" parent="8OrpDrZAfpW0493N6n80-503">
          <mxGeometry x="0.0062" y="1" relative="1" as="geometry">
            <mxPoint y="-11" as="offset" />
          </mxGeometry>
        </mxCell>
        <mxCell id="8OrpDrZAfpW0493N6n80-506" value="delete premium information" style="html=1;verticalAlign=bottom;endArrow=block;edgeStyle=elbowEdgeStyle;elbow=horizontal;curved=0;rounded=0;" edge="1" parent="1">
          <mxGeometry relative="1" as="geometry">
            <mxPoint x="215" y="2450" as="sourcePoint" />
            <Array as="points">
              <mxPoint x="380" y="2680" />
            </Array>
            <mxPoint x="620" y="2450" as="targetPoint" />
          </mxGeometry>
        </mxCell>
        <mxCell id="8OrpDrZAfpW0493N6n80-508" value="get checked book" style="html=1;verticalAlign=bottom;endArrow=block;edgeStyle=elbowEdgeStyle;elbow=vertical;curved=0;rounded=0;" edge="1" parent="1" target="8OrpDrZAfpW0493N6n80-509">
          <mxGeometry relative="1" as="geometry">
            <mxPoint x="215" y="2570" as="sourcePoint" />
            <Array as="points">
              <mxPoint x="374" y="2570" />
            </Array>
            <mxPoint x="469" y="2570" as="targetPoint" />
          </mxGeometry>
        </mxCell>
        <mxCell id="8OrpDrZAfpW0493N6n80-509" value="" style="html=1;points=[];perimeter=orthogonalPerimeter;outlineConnect=0;targetShapes=umlLifeline;portConstraint=eastwest;newEdgeStyle={&quot;edgeStyle&quot;:&quot;elbowEdgeStyle&quot;,&quot;elbow&quot;:&quot;vertical&quot;,&quot;curved&quot;:0,&quot;rounded&quot;:0};" vertex="1" parent="1">
          <mxGeometry x="615" y="2570" width="10" height="20" as="geometry" />
        </mxCell>
        <mxCell id="8OrpDrZAfpW0493N6n80-510" value="v" style="html=1;verticalAlign=bottom;endArrow=block;edgeStyle=elbowEdgeStyle;elbow=vertical;curved=0;rounded=0;dashed=1;" edge="1" parent="1" target="8OrpDrZAfpW0493N6n80-505">
          <mxGeometry relative="1" as="geometry">
            <mxPoint x="625" y="2590" as="sourcePoint" />
            <Array as="points">
              <mxPoint x="510" y="2590" />
              <mxPoint x="605" y="2580" />
            </Array>
            <mxPoint x="425" y="2590" as="targetPoint" />
          </mxGeometry>
        </mxCell>
        <mxCell id="8OrpDrZAfpW0493N6n80-511" value="return" style="edgeLabel;html=1;align=center;verticalAlign=middle;resizable=0;points=[];" connectable="0" vertex="1" parent="8OrpDrZAfpW0493N6n80-510">
          <mxGeometry x="0.0062" y="1" relative="1" as="geometry">
            <mxPoint y="-11" as="offset" />
          </mxGeometry>
        </mxCell>
        <mxCell id="8OrpDrZAfpW0493N6n80-514" value="return premium" style="html=1;verticalAlign=bottom;startArrow=oval;endArrow=block;startSize=8;edgeStyle=elbowEdgeStyle;elbow=vertical;curved=0;rounded=0;" edge="1" parent="1">
          <mxGeometry x="-0.0016" relative="1" as="geometry">
            <mxPoint x="-260" y="2640" as="sourcePoint" />
            <mxPoint x="-50" y="2640" as="targetPoint" />
            <Array as="points">
              <mxPoint x="-70" y="2640" />
              <mxPoint x="-260" y="2640" />
            </Array>
            <mxPoint as="offset" />
          </mxGeometry>
        </mxCell>
        <mxCell id="8OrpDrZAfpW0493N6n80-517" value="v" style="html=1;verticalAlign=bottom;endArrow=block;edgeStyle=elbowEdgeStyle;elbow=vertical;curved=0;rounded=0;dashed=1;" edge="1" parent="1">
          <mxGeometry relative="1" as="geometry">
            <mxPoint x="210" y="2760" as="sourcePoint" />
            <Array as="points">
              <mxPoint x="-10" y="2760" />
              <mxPoint x="190" y="2750" />
            </Array>
            <mxPoint x="-45" y="2760" as="targetPoint" />
          </mxGeometry>
        </mxCell>
        <mxCell id="8OrpDrZAfpW0493N6n80-518" value="return" style="edgeLabel;html=1;align=center;verticalAlign=middle;resizable=0;points=[];" connectable="0" vertex="1" parent="8OrpDrZAfpW0493N6n80-517">
          <mxGeometry x="0.0062" y="1" relative="1" as="geometry">
            <mxPoint y="-11" as="offset" />
          </mxGeometry>
        </mxCell>
        <mxCell id="8OrpDrZAfpW0493N6n80-520" value="check book" style="html=1;verticalAlign=bottom;endArrow=block;edgeStyle=elbowEdgeStyle;elbow=vertical;curved=0;rounded=0;entryX=0.5;entryY=0;entryDx=0;entryDy=0;entryPerimeter=0;" edge="1" parent="1" target="8OrpDrZAfpW0493N6n80-521">
          <mxGeometry x="-0.7829" relative="1" as="geometry">
            <mxPoint x="215" y="2660" as="sourcePoint" />
            <Array as="points">
              <mxPoint x="374" y="2660" />
            </Array>
            <mxPoint x="1050" y="2660" as="targetPoint" />
            <mxPoint as="offset" />
          </mxGeometry>
        </mxCell>
        <mxCell id="8OrpDrZAfpW0493N6n80-522" value="" style="endArrow=none;dashed=1;html=1;rounded=0;" edge="1" parent="1" target="8OrpDrZAfpW0493N6n80-521">
          <mxGeometry width="50" height="50" relative="1" as="geometry">
            <mxPoint x="1090" y="3000" as="sourcePoint" />
            <mxPoint x="1090" y="1820" as="targetPoint" />
          </mxGeometry>
        </mxCell>
        <mxCell id="8OrpDrZAfpW0493N6n80-521" value="" style="html=1;points=[];perimeter=orthogonalPerimeter;outlineConnect=0;targetShapes=umlLifeline;portConstraint=eastwest;newEdgeStyle={&quot;edgeStyle&quot;:&quot;elbowEdgeStyle&quot;,&quot;elbow&quot;:&quot;vertical&quot;,&quot;curved&quot;:0,&quot;rounded&quot;:0};" vertex="1" parent="1">
          <mxGeometry x="1085" y="2660" width="10" height="40" as="geometry" />
        </mxCell>
        <mxCell id="8OrpDrZAfpW0493N6n80-523" value="check book information" style="html=1;verticalAlign=bottom;endArrow=block;edgeStyle=elbowEdgeStyle;elbow=vertical;curved=0;rounded=0;entryX=0.5;entryY=0;entryDx=0;entryDy=0;entryPerimeter=0;" edge="1" parent="1" target="8OrpDrZAfpW0493N6n80-524">
          <mxGeometry relative="1" as="geometry">
            <mxPoint x="1097.5" y="2670" as="sourcePoint" />
            <Array as="points">
              <mxPoint x="1256.5" y="2670" />
            </Array>
            <mxPoint x="1310" y="2670" as="targetPoint" />
          </mxGeometry>
        </mxCell>
        <mxCell id="8OrpDrZAfpW0493N6n80-525" value="" style="endArrow=none;dashed=1;html=1;rounded=0;entryX=0.5;entryY=1;entryDx=0;entryDy=0;" edge="1" parent="1" target="8OrpDrZAfpW0493N6n80-524">
          <mxGeometry width="50" height="50" relative="1" as="geometry">
            <mxPoint x="1330" y="3000" as="sourcePoint" />
            <mxPoint x="1330" y="1700" as="targetPoint" />
          </mxGeometry>
        </mxCell>
        <mxCell id="8OrpDrZAfpW0493N6n80-524" value="" style="html=1;points=[];perimeter=orthogonalPerimeter;outlineConnect=0;targetShapes=umlLifeline;portConstraint=eastwest;newEdgeStyle={&quot;edgeStyle&quot;:&quot;elbowEdgeStyle&quot;,&quot;elbow&quot;:&quot;vertical&quot;,&quot;curved&quot;:0,&quot;rounded&quot;:0};" vertex="1" parent="1">
          <mxGeometry x="1325" y="2670" width="10" height="20" as="geometry" />
        </mxCell>
        <mxCell id="8OrpDrZAfpW0493N6n80-526" value="v" style="html=1;verticalAlign=bottom;endArrow=block;edgeStyle=elbowEdgeStyle;elbow=vertical;curved=0;rounded=0;dashed=1;" edge="1" parent="1">
          <mxGeometry relative="1" as="geometry">
            <mxPoint x="1325" y="2690" as="sourcePoint" />
            <Array as="points">
              <mxPoint x="1210" y="2690" />
              <mxPoint x="1305" y="2680" />
            </Array>
            <mxPoint x="1100" y="2690" as="targetPoint" />
          </mxGeometry>
        </mxCell>
        <mxCell id="8OrpDrZAfpW0493N6n80-527" value="return" style="edgeLabel;html=1;align=center;verticalAlign=middle;resizable=0;points=[];" connectable="0" vertex="1" parent="8OrpDrZAfpW0493N6n80-526">
          <mxGeometry x="0.0062" y="1" relative="1" as="geometry">
            <mxPoint y="-11" as="offset" />
          </mxGeometry>
        </mxCell>
        <mxCell id="8OrpDrZAfpW0493N6n80-528" value="" style="html=1;points=[];perimeter=orthogonalPerimeter;outlineConnect=0;targetShapes=umlLifeline;portConstraint=eastwest;newEdgeStyle={&quot;edgeStyle&quot;:&quot;elbowEdgeStyle&quot;,&quot;elbow&quot;:&quot;vertical&quot;,&quot;curved&quot;:0,&quot;rounded&quot;:0};" vertex="1" parent="1">
          <mxGeometry x="1090" y="2670" width="10" height="20" as="geometry" />
        </mxCell>
        <mxCell id="8OrpDrZAfpW0493N6n80-529" value="v" style="html=1;verticalAlign=bottom;endArrow=block;edgeStyle=elbowEdgeStyle;elbow=vertical;curved=0;rounded=0;dashed=1;" edge="1" parent="1" target="8OrpDrZAfpW0493N6n80-519">
          <mxGeometry relative="1" as="geometry">
            <mxPoint x="930" y="2700" as="sourcePoint" />
            <Array as="points">
              <mxPoint x="1090" y="2700" />
              <mxPoint x="815" y="2700" />
              <mxPoint x="910" y="2690" />
            </Array>
            <mxPoint x="520" y="2700" as="targetPoint" />
          </mxGeometry>
        </mxCell>
        <mxCell id="8OrpDrZAfpW0493N6n80-530" value="return" style="edgeLabel;html=1;align=center;verticalAlign=middle;resizable=0;points=[];" connectable="0" vertex="1" parent="8OrpDrZAfpW0493N6n80-529">
          <mxGeometry x="0.0062" y="1" relative="1" as="geometry">
            <mxPoint y="-11" as="offset" />
          </mxGeometry>
        </mxCell>
        <mxCell id="8OrpDrZAfpW0493N6n80-531" value="update checkout book" style="html=1;verticalAlign=bottom;endArrow=block;edgeStyle=elbowEdgeStyle;elbow=vertical;curved=0;rounded=0;" edge="1" parent="1">
          <mxGeometry relative="1" as="geometry">
            <mxPoint x="215" y="2730" as="sourcePoint" />
            <Array as="points">
              <mxPoint x="374" y="2730" />
            </Array>
            <mxPoint x="400" y="2730" as="targetPoint" />
          </mxGeometry>
        </mxCell>
        <mxCell id="8OrpDrZAfpW0493N6n80-533" value="v" style="html=1;verticalAlign=bottom;endArrow=block;edgeStyle=elbowEdgeStyle;elbow=vertical;curved=0;rounded=0;dashed=1;" edge="1" parent="1">
          <mxGeometry relative="1" as="geometry">
            <mxPoint x="410" y="2750" as="sourcePoint" />
            <Array as="points">
              <mxPoint x="250" y="2750" />
              <mxPoint x="450" y="2740" />
            </Array>
            <mxPoint x="215" y="2750" as="targetPoint" />
          </mxGeometry>
        </mxCell>
        <mxCell id="8OrpDrZAfpW0493N6n80-534" value="return" style="edgeLabel;html=1;align=center;verticalAlign=middle;resizable=0;points=[];" connectable="0" vertex="1" parent="8OrpDrZAfpW0493N6n80-533">
          <mxGeometry x="0.0062" y="1" relative="1" as="geometry">
            <mxPoint y="-11" as="offset" />
          </mxGeometry>
        </mxCell>
        <mxCell id="8OrpDrZAfpW0493N6n80-535" value="" style="html=1;points=[];perimeter=orthogonalPerimeter;outlineConnect=0;targetShapes=umlLifeline;portConstraint=eastwest;newEdgeStyle={&quot;edgeStyle&quot;:&quot;elbowEdgeStyle&quot;,&quot;elbow&quot;:&quot;vertical&quot;,&quot;curved&quot;:0,&quot;rounded&quot;:0};" vertex="1" parent="1">
          <mxGeometry x="405" y="2730" width="10" height="20" as="geometry" />
        </mxCell>
        <mxCell id="8OrpDrZAfpW0493N6n80-540" value="request extention premium" style="html=1;verticalAlign=bottom;startArrow=oval;endArrow=block;startSize=8;edgeStyle=elbowEdgeStyle;elbow=vertical;curved=0;rounded=0;" edge="1" parent="1">
          <mxGeometry x="-0.0016" relative="1" as="geometry">
            <mxPoint x="-260" y="2780" as="sourcePoint" />
            <mxPoint x="-50" y="2780" as="targetPoint" />
            <Array as="points">
              <mxPoint x="-70" y="2780" />
              <mxPoint x="-260" y="2780" />
            </Array>
            <mxPoint as="offset" />
          </mxGeometry>
        </mxCell>
        <mxCell id="8OrpDrZAfpW0493N6n80-541" value="" style="html=1;points=[];perimeter=orthogonalPerimeter;outlineConnect=0;targetShapes=umlLifeline;portConstraint=eastwest;newEdgeStyle={&quot;edgeStyle&quot;:&quot;elbowEdgeStyle&quot;,&quot;elbow&quot;:&quot;vertical&quot;,&quot;curved&quot;:0,&quot;rounded&quot;:0};" vertex="1" parent="1">
          <mxGeometry x="-55" y="2550" width="10" height="60" as="geometry" />
        </mxCell>
        <mxCell id="8OrpDrZAfpW0493N6n80-544" value="v" style="html=1;verticalAlign=bottom;endArrow=block;edgeStyle=elbowEdgeStyle;elbow=vertical;curved=0;rounded=0;dashed=1;" edge="1" parent="1">
          <mxGeometry relative="1" as="geometry">
            <mxPoint x="210" y="2830" as="sourcePoint" />
            <Array as="points">
              <mxPoint x="-10" y="2830" />
              <mxPoint x="190" y="2820" />
            </Array>
            <mxPoint x="-45" y="2830" as="targetPoint" />
          </mxGeometry>
        </mxCell>
        <mxCell id="8OrpDrZAfpW0493N6n80-545" value="return" style="edgeLabel;html=1;align=center;verticalAlign=middle;resizable=0;points=[];" connectable="0" vertex="1" parent="8OrpDrZAfpW0493N6n80-544">
          <mxGeometry x="0.0062" y="1" relative="1" as="geometry">
            <mxPoint y="-11" as="offset" />
          </mxGeometry>
        </mxCell>
        <mxCell id="8OrpDrZAfpW0493N6n80-547" value="check checkout book" style="html=1;verticalAlign=bottom;endArrow=block;edgeStyle=elbowEdgeStyle;elbow=vertical;curved=0;rounded=0;" edge="1" parent="1" target="8OrpDrZAfpW0493N6n80-17">
          <mxGeometry relative="1" as="geometry">
            <mxPoint x="215" y="2800" as="sourcePoint" />
            <Array as="points">
              <mxPoint x="374" y="2800" />
            </Array>
            <mxPoint x="550" y="2800" as="targetPoint" />
          </mxGeometry>
        </mxCell>
        <mxCell id="8OrpDrZAfpW0493N6n80-549" value="v" style="html=1;verticalAlign=bottom;endArrow=block;edgeStyle=elbowEdgeStyle;elbow=vertical;curved=0;rounded=0;dashed=1;" edge="1" parent="1" target="aM9ryv3xv72pqoxQDRHE-5">
          <mxGeometry relative="1" as="geometry">
            <mxPoint x="620" y="2820" as="sourcePoint" />
            <Array as="points">
              <mxPoint x="460" y="2820" />
              <mxPoint x="660" y="2810" />
            </Array>
            <mxPoint x="425" y="2820" as="targetPoint" />
          </mxGeometry>
        </mxCell>
        <mxCell id="8OrpDrZAfpW0493N6n80-550" value="return" style="edgeLabel;html=1;align=center;verticalAlign=middle;resizable=0;points=[];" connectable="0" vertex="1" parent="8OrpDrZAfpW0493N6n80-549">
          <mxGeometry x="0.0062" y="1" relative="1" as="geometry">
            <mxPoint y="-11" as="offset" />
          </mxGeometry>
        </mxCell>
        <mxCell id="8OrpDrZAfpW0493N6n80-552" value="request book premium" style="html=1;verticalAlign=bottom;startArrow=oval;endArrow=block;startSize=8;edgeStyle=elbowEdgeStyle;elbow=vertical;curved=0;rounded=0;" edge="1" parent="1">
          <mxGeometry x="-0.0016" relative="1" as="geometry">
            <mxPoint x="-260" y="2880" as="sourcePoint" />
            <mxPoint x="-50" y="2880" as="targetPoint" />
            <Array as="points">
              <mxPoint x="-70" y="2880" />
              <mxPoint x="-260" y="2880" />
            </Array>
            <mxPoint as="offset" />
          </mxGeometry>
        </mxCell>
        <mxCell id="8OrpDrZAfpW0493N6n80-553" value="dispatch" style="html=1;verticalAlign=bottom;endArrow=block;edgeStyle=elbowEdgeStyle;elbow=vertical;curved=0;rounded=0;" edge="1" parent="1">
          <mxGeometry relative="1" as="geometry">
            <mxPoint x="-44" y="2890" as="sourcePoint" />
            <Array as="points">
              <mxPoint x="115" y="2890" />
            </Array>
            <mxPoint x="210" y="2890" as="targetPoint" />
          </mxGeometry>
        </mxCell>
        <mxCell id="8OrpDrZAfpW0493N6n80-555" value="v" style="html=1;verticalAlign=bottom;endArrow=block;edgeStyle=elbowEdgeStyle;elbow=vertical;curved=0;rounded=0;dashed=1;" edge="1" parent="1" source="8OrpDrZAfpW0493N6n80-557">
          <mxGeometry relative="1" as="geometry">
            <mxPoint x="210" y="2950" as="sourcePoint" />
            <Array as="points">
              <mxPoint x="-10" y="2950" />
              <mxPoint x="190" y="2940" />
            </Array>
            <mxPoint x="-45" y="2950" as="targetPoint" />
          </mxGeometry>
        </mxCell>
        <mxCell id="8OrpDrZAfpW0493N6n80-556" value="return" style="edgeLabel;html=1;align=center;verticalAlign=middle;resizable=0;points=[];" connectable="0" vertex="1" parent="8OrpDrZAfpW0493N6n80-555">
          <mxGeometry x="0.0062" y="1" relative="1" as="geometry">
            <mxPoint y="-11" as="offset" />
          </mxGeometry>
        </mxCell>
        <mxCell id="8OrpDrZAfpW0493N6n80-558" value="add request" style="html=1;verticalAlign=bottom;endArrow=block;edgeStyle=elbowEdgeStyle;elbow=vertical;curved=0;rounded=0;" edge="1" parent="1" target="8OrpDrZAfpW0493N6n80-561">
          <mxGeometry relative="1" as="geometry">
            <mxPoint x="215" y="2900" as="sourcePoint" />
            <Array as="points">
              <mxPoint x="374" y="2900" />
            </Array>
            <mxPoint x="840" y="2900" as="targetPoint" />
          </mxGeometry>
        </mxCell>
        <mxCell id="8OrpDrZAfpW0493N6n80-559" value="" style="html=1;verticalAlign=bottom;endArrow=block;edgeStyle=elbowEdgeStyle;elbow=vertical;curved=0;rounded=0;dashed=1;" edge="1" parent="1" target="8OrpDrZAfpW0493N6n80-557">
          <mxGeometry relative="1" as="geometry">
            <mxPoint x="210" y="2950" as="sourcePoint" />
            <Array as="points" />
            <mxPoint x="-45" y="2950" as="targetPoint" />
          </mxGeometry>
        </mxCell>
        <mxCell id="8OrpDrZAfpW0493N6n80-562" value="" style="endArrow=none;dashed=1;html=1;rounded=0;" edge="1" parent="1" target="8OrpDrZAfpW0493N6n80-561">
          <mxGeometry width="50" height="50" relative="1" as="geometry">
            <mxPoint x="850" y="3000" as="sourcePoint" />
            <mxPoint x="850" y="2270" as="targetPoint" />
          </mxGeometry>
        </mxCell>
        <mxCell id="8OrpDrZAfpW0493N6n80-561" value="" style="html=1;points=[];perimeter=orthogonalPerimeter;outlineConnect=0;targetShapes=umlLifeline;portConstraint=eastwest;newEdgeStyle={&quot;edgeStyle&quot;:&quot;elbowEdgeStyle&quot;,&quot;elbow&quot;:&quot;vertical&quot;,&quot;curved&quot;:0,&quot;rounded&quot;:0};" vertex="1" parent="1">
          <mxGeometry x="845" y="2900" width="10" height="30" as="geometry" />
        </mxCell>
        <mxCell id="8OrpDrZAfpW0493N6n80-563" value="v" style="html=1;verticalAlign=bottom;endArrow=block;edgeStyle=elbowEdgeStyle;elbow=vertical;curved=0;rounded=0;dashed=1;" edge="1" parent="1" target="8OrpDrZAfpW0493N6n80-570">
          <mxGeometry relative="1" as="geometry">
            <mxPoint x="845" y="2930" as="sourcePoint" />
            <Array as="points">
              <mxPoint x="685" y="2930" />
              <mxPoint x="885" y="2920" />
            </Array>
            <mxPoint x="240" y="2930" as="targetPoint" />
          </mxGeometry>
        </mxCell>
        <mxCell id="8OrpDrZAfpW0493N6n80-564" value="return" style="edgeLabel;html=1;align=center;verticalAlign=middle;resizable=0;points=[];" connectable="0" vertex="1" parent="8OrpDrZAfpW0493N6n80-563">
          <mxGeometry x="0.0062" y="1" relative="1" as="geometry">
            <mxPoint y="-11" as="offset" />
          </mxGeometry>
        </mxCell>
        <mxCell id="8OrpDrZAfpW0493N6n80-568" value="" style="html=1;points=[];perimeter=orthogonalPerimeter;outlineConnect=0;targetShapes=umlLifeline;portConstraint=eastwest;newEdgeStyle={&quot;edgeStyle&quot;:&quot;elbowEdgeStyle&quot;,&quot;elbow&quot;:&quot;vertical&quot;,&quot;curved&quot;:0,&quot;rounded&quot;:0};" vertex="1" parent="1">
          <mxGeometry x="-50" y="2560" width="10" height="50" as="geometry" />
        </mxCell>
        <mxCell id="8OrpDrZAfpW0493N6n80-581" value="" style="html=1;points=[];perimeter=orthogonalPerimeter;outlineConnect=0;targetShapes=umlLifeline;portConstraint=eastwest;newEdgeStyle={&quot;edgeStyle&quot;:&quot;elbowEdgeStyle&quot;,&quot;elbow&quot;:&quot;vertical&quot;,&quot;curved&quot;:0,&quot;rounded&quot;:0};" vertex="1" parent="1">
          <mxGeometry x="-50" y="2440" width="10" height="70" as="geometry" />
        </mxCell>
      </root>
    </mxGraphModel>
  </diagram>
</mxfile>
